ply
format ascii 1.0
comment Created by Blender 2.78 (sub 0) - www.blender.org, source file: 'bridge.blend'
element vertex 68
property float x
property float y
property float z
property float nx
property float ny
property float nz
property float s
property float t
property uchar red
property uchar green
property uchar blue
element face 34
property list uchar uint vertex_indices
end_header
-0.500000 0.000000 1.000000 -0.969402 -0.245480 -0.000000 0.426208 0.500000 143 143 143
-0.350000 -0.592351 -0.700000 -0.969402 -0.245480 -0.000000 0.073792 0.203824 143 143 143
-0.350000 -0.592351 0.700000 -0.969402 -0.245480 -0.000000 0.426208 0.203824 143 143 143
-0.500000 0.000000 -1.000000 0.000000 -0.451815 -0.892111 1.073792 0.500000 143 143 143
0.350000 -0.592351 -0.700000 0.000000 -0.451815 -0.892111 0.926208 0.203824 143 143 143
-0.350000 -0.592351 -0.700000 0.000000 -0.451815 -0.892111 1.073792 0.203824 143 143 143
0.500000 0.000000 -1.000000 0.969402 -0.245480 0.000000 0.926208 0.500000 143 143 143
0.350000 -0.592351 0.700000 0.969402 -0.245480 0.000000 0.573792 0.203824 143 143 143
0.350000 -0.592351 -0.700000 0.969402 -0.245480 0.000000 0.926208 0.203824 143 143 143
0.500000 0.000000 1.000000 0.000000 -0.451815 0.892111 0.573792 0.500000 143 143 143
-0.350000 -0.592351 0.700000 0.000000 -0.451815 0.892111 0.426208 0.203824 143 143 143
0.350000 -0.592351 0.700000 0.000000 -0.451815 0.892111 0.573792 0.203824 143 143 143
-0.500000 0.000000 -1.000000 0.000000 1.000000 -0.000000 0.999929 0.500000 143 143 143
0.500000 0.000000 1.000000 0.000000 1.000000 -0.000000 0.000071 0.000071 143 143 143
0.500000 0.000000 -1.000000 0.000000 1.000000 -0.000000 0.999929 0.000071 143 143 143
0.536022 -4.027119 1.072044 -0.000000 0.179862 0.983692 0.573792 -1.513560 143 143 143
-0.350000 -1.992351 0.700000 -0.000000 0.179862 0.983692 0.426208 -0.496176 143 143 143
-0.536022 -4.027119 1.072044 -0.000000 0.179862 0.983692 0.426208 -1.513560 143 143 143
0.350000 -0.592351 0.700000 0.000000 -0.000000 1.000000 0.573792 0.203824 143 143 143
-0.350000 -1.992351 0.700000 0.000000 -0.000000 1.000000 0.426208 -0.496176 143 143 143
0.350000 -1.992351 0.700000 0.000000 -0.000000 1.000000 0.573792 -0.496176 143 143 143
0.350000 -1.992351 -0.700000 0.995847 0.091042 -0.000000 0.926208 -0.496176 143 143 143
0.536022 -4.027119 1.072044 0.995847 0.091042 -0.000000 0.573792 -1.513560 143 143 143
0.536022 -4.027119 -1.072044 0.995847 0.091042 -0.000000 0.926208 -1.513560 143 143 143
0.350000 -0.592351 -0.700000 1.000000 -0.000000 0.000000 0.926208 0.203824 143 143 143
0.350000 -1.992351 0.700000 1.000000 -0.000000 0.000000 0.573792 -0.496176 143 143 143
0.350000 -1.992351 -0.700000 1.000000 -0.000000 0.000000 0.926208 -0.496176 143 143 143
-0.350000 -1.992351 -0.700000 0.000000 0.179862 -0.983692 1.073792 -0.496176 143 143 143
0.536022 -4.027119 -1.072044 0.000000 0.179862 -0.983692 0.926208 -1.513560 143 143 143
-0.536022 -4.027119 -1.072044 0.000000 0.179862 -0.983692 1.073792 -1.513560 143 143 143
-0.350000 -0.592351 -0.700000 0.000000 0.000000 -1.000000 1.073792 0.203824 143 143 143
0.350000 -1.992351 -0.700000 0.000000 0.000000 -1.000000 0.926208 -0.496176 143 143 143
-0.350000 -1.992351 -0.700000 0.000000 0.000000 -1.000000 1.073792 -0.496176 143 143 143
-0.350000 -1.992351 0.700000 -0.995847 0.091042 0.000000 0.426208 -0.496176 143 143 143
-0.536022 -4.027119 -1.072044 -0.995847 0.091042 0.000000 0.073792 -1.513560 143 143 143
-0.536022 -4.027119 1.072044 -0.995847 0.091042 0.000000 0.426208 -1.513560 143 143 143
-0.350000 -0.592351 0.700000 -1.000000 0.000000 0.000000 0.426208 0.203824 143 143 143
-0.350000 -1.992351 -0.700000 -1.000000 0.000000 0.000000 0.073792 -0.496176 143 143 143
-0.350000 -1.992351 0.700000 -1.000000 0.000000 0.000000 0.426208 -0.496176 143 143 143
0.536022 -4.027119 1.072044 1.000000 0.000000 -0.000000 0.573792 -1.513560 143 143 143
0.536022 -20.027119 -1.072044 1.000000 0.000000 -0.000000 0.926208 -9.513560 143 143 143
0.536022 -4.027119 -1.072044 1.000000 0.000000 -0.000000 0.926208 -1.513560 143 143 143
-0.536022 -4.027119 -1.072044 -1.000000 -0.000000 -0.000000 0.073792 -1.513560 143 143 143
-0.536022 -20.027119 1.072044 -1.000000 -0.000000 -0.000000 0.426208 -9.513560 143 143 143
-0.536022 -4.027119 1.072044 -1.000000 -0.000000 -0.000000 0.426208 -1.513560 143 143 143
-0.536022 -4.027119 1.072044 0.000000 0.000000 1.000000 0.426208 -1.513560 143 143 143
0.536022 -20.027119 1.072044 0.000000 0.000000 1.000000 0.573792 -9.513560 143 143 143
0.536022 -4.027119 1.072044 0.000000 0.000000 1.000000 0.573792 -1.513560 143 143 143
0.536022 -4.027119 -1.072044 0.000000 0.000000 -1.000000 0.926208 -1.513560 143 143 143
-0.536022 -20.027119 -1.072044 0.000000 0.000000 -1.000000 1.073792 -9.513560 143 143 143
-0.536022 -4.027119 -1.072044 0.000000 0.000000 -1.000000 1.073792 -1.513560 143 143 143
-0.500000 0.000000 -1.000000 -0.969402 -0.245480 0.000000 0.073792 0.500000 143 143 143
0.500000 0.000000 -1.000000 -0.000000 -0.451815 -0.892111 0.926208 0.500000 143 143 143
0.500000 0.000000 1.000000 0.969402 -0.245480 0.000000 0.573792 0.500000 143 143 143
-0.500000 0.000000 1.000000 0.000000 -0.451815 0.892111 0.426208 0.500000 143 143 143
-0.500000 0.000000 1.000000 0.000000 1.000000 0.000000 0.000071 0.500000 143 143 143
0.350000 -1.992351 0.700000 -0.000000 0.179862 0.983692 0.573792 -0.496176 143 143 143
-0.350000 -0.592351 0.700000 0.000000 0.000000 1.000000 0.426208 0.203824 143 143 143
0.350000 -1.992351 0.700000 0.995847 0.091042 0.000000 0.573792 -0.496176 143 143 143
0.350000 -0.592351 0.700000 1.000000 -0.000000 0.000000 0.573792 0.203824 143 143 143
0.350000 -1.992351 -0.700000 0.000000 0.179862 -0.983692 0.926208 -0.496176 143 143 143
0.350000 -0.592351 -0.700000 0.000000 0.000000 -1.000000 0.926208 0.203824 143 143 143
-0.350000 -1.992351 -0.700000 -0.995847 0.091042 0.000000 0.073792 -0.496176 143 143 143
-0.350000 -0.592351 -0.700000 -1.000000 0.000000 0.000000 0.073792 0.203824 143 143 143
0.536022 -20.027119 1.072044 1.000000 0.000000 0.000000 0.573792 -9.513560 143 143 143
-0.536022 -20.027119 -1.072044 -1.000000 0.000000 0.000000 0.073792 -9.513560 143 143 143
-0.536022 -20.027119 1.072044 0.000000 -0.000000 1.000000 0.426208 -9.513560 143 143 143
0.536022 -20.027119 -1.072044 0.000000 0.000000 -1.000000 0.926208 -9.513560 143 143 143
3 0 1 2
3 3 4 5
3 6 7 8
3 9 10 11
3 12 13 14
3 15 16 17
3 18 19 20
3 21 22 23
3 24 25 26
3 27 28 29
3 30 31 32
3 33 34 35
3 36 37 38
3 39 40 41
3 42 43 44
3 45 46 47
3 48 49 50
3 0 51 1
3 3 52 4
3 6 53 7
3 9 54 10
3 12 55 13
3 15 56 16
3 18 57 19
3 21 58 22
3 24 59 25
3 27 60 28
3 30 61 31
3 33 62 34
3 36 63 37
3 39 64 40
3 42 65 43
3 45 66 46
3 48 67 49
