ply
format ascii 1.0
comment Created by Blender 2.78 (sub 0) - www.blender.org, source file: 'building-roof-part1.blend'
element vertex 62
property float x
property float y
property float z
property float nx
property float ny
property float nz
property float s
property float t
property uchar red
property uchar green
property uchar blue
element face 30
property list uchar uint vertex_indices
end_header
2.129763 3.155204 -5.282896 0.000000 0.000000 -1.000000 0.564162 0.549102 185 182 196
2.603043 0.000000 -5.282896 0.000000 0.000000 -1.000000 0.594619 0.750291 185 182 196
2.129763 0.000000 -5.282896 0.000000 0.000000 -1.000000 0.564162 0.750291 185 182 196
2.603043 3.155204 -5.282896 1.000000 0.000000 -0.000000 0.706296 0.549102 185 182 196
2.603044 0.000000 3.282896 1.000000 0.000000 -0.000000 0.908646 0.000000 185 182 196
2.603043 0.000000 -5.282896 1.000000 0.000000 -0.000000 0.908646 0.549102 185 182 196
2.603044 3.155204 3.282896 0.000000 -0.000000 1.000000 0.533704 0.549102 185 182 196
2.129764 0.000000 3.282896 0.000000 -0.000000 1.000000 0.564162 0.751363 185 182 196
2.603044 0.000000 3.282896 0.000000 -0.000000 1.000000 0.533704 0.751363 185 182 196
2.129764 3.155204 3.282896 -1.000000 0.000000 0.000000 0.503247 0.549102 185 182 196
2.129763 0.000000 -5.282896 -1.000000 0.000000 0.000000 0.706296 0.000000 185 182 196
2.129764 0.000000 3.282896 -1.000000 0.000000 0.000000 0.706296 0.549102 185 182 196
2.603043 3.155204 -5.282896 0.000000 1.000000 0.000000 0.939094 0.549102 185 182 196
2.129764 3.155204 3.282896 0.000000 1.000000 0.000000 0.908646 0.000000 185 182 196
2.603044 3.155204 3.282896 0.000000 1.000000 0.000000 0.939094 0.000001 185 182 196
-1.025442 3.119668 -4.155204 0.000000 -0.305248 -0.952273 0.496766 0.736883 185 182 196
-0.552161 0.000000 -3.155204 0.000000 -0.305248 -0.952273 0.466309 0.531368 185 182 196
-1.025442 0.000000 -3.155204 0.000000 -0.305248 -0.952273 0.496766 0.531368 185 182 196
-0.552161 0.000000 -3.155204 1.000000 0.000000 -0.000000 0.205014 0.594506 185 182 196
-0.552161 3.155204 3.155205 1.000000 0.000000 -0.000000 0.405394 1.000000 185 182 196
-0.552161 0.000000 3.155205 1.000000 0.000000 -0.000000 0.203047 0.999023 185 182 196
-0.552161 3.155204 3.155205 0.000000 -0.000000 1.000000 0.503247 0.549102 185 182 196
-1.025442 0.000000 3.155205 0.000000 -0.000000 1.000000 0.533704 0.751363 185 182 196
-0.552161 0.000000 3.155205 0.000000 -0.000000 1.000000 0.503247 0.751363 185 182 196
-1.025442 3.155204 3.155205 -1.000000 0.000000 0.000000 0.203047 0.531368 185 182 196
-1.025442 0.000000 -3.155204 -1.000000 0.000000 0.000000 0.001974 0.936869 185 182 196
-1.025442 0.000000 3.155205 -1.000000 0.000000 0.000000 0.000000 0.532351 185 182 196
-0.552161 3.119668 -4.155204 0.000000 0.999988 -0.004861 0.969552 0.000002 185 182 196
-1.025442 3.155204 3.155205 0.000000 0.999988 -0.004861 1.000000 0.468630 185 182 196
-0.552161 3.155204 3.155205 0.000000 0.999988 -0.004861 0.969552 0.468632 185 182 196
-3.368706 3.312964 -1.340960 -1.000000 0.000000 0.000000 0.435852 0.531368 185 182 196
-3.368706 0.000000 -1.814241 -1.000000 0.000000 0.000000 0.466309 0.743742 185 182 196
-3.368706 0.000000 -1.340960 -1.000000 0.000000 0.000000 0.435852 0.743742 185 182 196
3.920439 0.000000 -1.340961 0.968974 -0.247163 -0.000002 0.435852 0.787133 185 182 196
4.920439 3.920393 -1.814242 0.968974 -0.247163 -0.000002 0.405394 0.531368 185 182 196
4.920440 3.920393 -1.340961 0.968974 -0.247163 -0.000002 0.435852 0.531368 185 182 196
3.920439 0.000000 -1.340961 0.000000 -0.000000 1.000000 0.252292 0.467264 185 182 196
-3.368706 3.312964 -1.340960 0.000000 -0.000000 1.000000 0.039090 0.000000 185 182 196
-3.368706 0.000000 -1.340960 0.000000 -0.000000 1.000000 0.252292 0.000000 185 182 196
4.920439 3.920393 -1.814242 -0.073084 0.997326 0.000000 0.969552 0.000002 185 182 196
-3.368706 3.312964 -1.340960 -0.073084 0.997326 0.000000 0.939094 0.532159 185 182 196
4.920440 3.920393 -1.340961 -0.073084 0.997326 0.000000 0.939094 0.000000 185 182 196
-3.368706 3.312964 -1.814241 -0.000000 0.000000 -1.000000 0.291175 0.531368 185 182 196
3.920439 0.000000 -1.814242 -0.000000 0.000000 -1.000000 0.503247 0.064104 185 182 196
-3.368706 0.000000 -1.814241 -0.000000 0.000000 -1.000000 0.503247 0.531368 185 182 196
2.603043 3.155204 -5.282896 0.000000 0.000000 -1.000000 0.594619 0.549102 185 182 196
2.603044 3.155204 3.282896 1.000000 0.000000 -0.000000 0.706296 0.000000 185 182 196
2.129764 3.155204 3.282896 0.000000 0.000000 1.000000 0.564162 0.549102 185 182 196
2.129763 3.155204 -5.282896 -1.000000 0.000000 0.000000 0.503247 0.000000 185 182 196
2.129763 3.155204 -5.282896 -0.000000 1.000000 0.000000 0.908646 0.549101 185 182 196
-0.552161 3.119668 -4.155204 -0.000000 -0.305248 -0.952273 0.466309 0.736883 185 182 196
-0.552161 3.119668 -4.155204 1.000000 -0.000000 -0.000000 0.405394 0.531368 185 182 196
-1.025442 3.155204 3.155205 0.000000 0.000000 1.000000 0.533704 0.549102 185 182 196
-1.025442 3.119668 -4.155204 -1.000000 0.000000 0.000000 0.203047 1.000000 185 182 196
-1.025442 3.119668 -4.155204 0.000000 0.999988 -0.004861 1.000000 0.000000 185 182 196
-3.368706 3.312964 -1.814241 -1.000000 0.000000 0.000000 0.466309 0.531368 185 182 196
3.920439 0.000000 -1.340961 0.968974 -0.247162 -0.000000 0.435852 0.787133 185 182 196
3.920439 0.000000 -1.814242 0.968974 -0.247162 -0.000000 0.405394 0.787133 185 182 196
4.920439 3.920393 -1.814242 0.968974 -0.247162 -0.000000 0.405394 0.531368 185 182 196
4.920440 3.920393 -1.340961 0.000000 -0.000000 1.000000 0.000000 0.531368 185 182 196
-3.368706 3.312964 -1.814241 -0.073084 0.997326 0.000000 0.969552 0.532161 185 182 196
4.920439 3.920393 -1.814242 -0.000000 0.000000 -1.000000 0.252292 0.000000 185 182 196
3 0 1 2
3 3 4 5
3 6 7 8
3 9 10 11
3 12 13 14
3 15 16 17
3 18 19 20
3 21 22 23
3 24 25 26
3 27 28 29
3 30 31 32
3 33 34 35
3 36 37 38
3 39 40 41
3 42 43 44
3 0 45 1
3 3 46 4
3 6 47 7
3 9 48 10
3 12 49 13
3 15 50 16
3 18 51 19
3 21 52 22
3 24 53 25
3 27 54 28
3 30 55 31
3 56 57 58
3 36 59 37
3 39 60 40
3 42 61 43
