ply
format ascii 1.0
comment Created by Blender 2.78 (sub 0) - www.blender.org, source file: 'building-roof-part1.blend'
element vertex 58
property float x
property float y
property float z
property float nx
property float ny
property float nz
property float s
property float t
property uchar red
property uchar green
property uchar blue
element face 26
property list uchar uint vertex_indices
end_header
1.000000 2.000000 -0.999999 1.000000 -0.000000 0.000000 0.498999 0.335335 0 255 0
1.000000 0.000000 1.000000 1.000000 -0.000000 0.000000 0.002002 0.665666 0 255 0
1.000000 0.000000 -1.000000 1.000000 -0.000000 0.000000 0.498999 0.665666 0 255 0
-0.000001 2.500000 1.000000 -0.000000 -0.000000 1.000000 0.498999 0.002002 0 255 0
-1.000000 0.000000 1.000000 -0.000000 -0.000000 1.000000 0.498999 0.332332 0 255 0
1.000000 0.000000 1.000000 -0.000000 -0.000000 1.000000 0.002002 0.332332 0 255 0
-1.000000 0.000000 1.000000 -1.000000 -0.000000 -0.000000 0.998999 0.335335 0 255 0
-1.000000 2.000000 -1.000000 -1.000000 -0.000000 -0.000000 0.502002 0.665666 0 255 0
-1.000000 0.000000 -1.000000 -1.000000 -0.000000 -0.000000 0.998999 0.665666 0 255 0
0.000000 2.500000 -1.000000 0.000000 0.000000 -1.000000 0.002002 0.998999 0 255 0
-1.000000 0.000000 -1.000000 0.000000 0.000000 -1.000000 0.498999 0.668669 0 255 0
-1.000000 2.000000 -1.000000 0.000000 0.000000 -1.000000 0.498999 0.998999 0 255 0
1.000000 2.000000 -0.999999 0.000000 0.000000 -1.000000 0.001001 0.667668 0 255 0
1.000000 0.000000 -1.000000 0.000000 0.000000 -1.000000 0.001001 0.997998 0 255 0
0.000000 2.500000 -1.000000 0.000000 0.000000 -1.000000 0.497998 0.667668 0 255 0
1.000000 0.000000 1.000000 -0.000001 -0.000000 1.000000 0.998999 0.002002 0 255 0
0.999999 2.000000 1.000001 -0.000001 -0.000000 1.000000 0.998999 0.332332 0 255 0
-0.000001 2.500000 1.000000 -0.000001 -0.000000 1.000000 0.502002 0.332332 0 255 0
1.000000 2.000000 -0.999999 1.000000 0.000000 0.000001 0.501001 0.664665 0 255 0
0.999999 2.000000 1.000001 1.000000 0.000000 0.000001 0.501001 0.334334 0 255 0
1.000000 0.000000 1.000000 1.000000 0.000000 0.000001 0.997998 0.334334 0 255 0
-0.000001 2.500000 1.000000 -0.000001 0.000000 1.000000 0.997998 0.001001 0 255 0
-1.000000 2.000000 1.000000 -0.000001 0.000000 1.000000 0.501001 0.001001 0 255 0
-1.000000 0.000000 1.000000 -0.000001 0.000000 1.000000 0.501001 0.331331 0 255 0
-1.000000 0.000000 1.000000 -1.000000 -0.000000 -0.000000 0.001001 0.664665 0 255 0
-1.000000 2.000000 1.000000 -1.000000 -0.000000 -0.000000 0.001001 0.334334 0 255 0
-1.000000 2.000000 -1.000000 -1.000000 -0.000000 -0.000000 0.497998 0.334334 0 255 0
0.000000 2.500000 -1.000000 0.000000 0.000000 -1.000000 0.001001 0.331331 0 255 0
1.000000 0.000000 -1.000000 0.000000 0.000000 -1.000000 0.497998 0.001001 0 255 0
-1.000000 0.000000 -1.000000 0.000000 0.000000 -1.000000 0.001001 0.001001 0 255 0
0.000000 2.800000 -1.300000 -0.436659 0.899627 -0.000000 0.520000 0.336478 255 255 0
-1.442177 2.100000 1.299999 -0.436659 0.899627 -0.000000 0.000000 0.519690 255 255 0
-0.000001 2.800000 1.300000 -0.436659 0.899627 -0.000000 0.000000 0.336478 255 255 0
0.000000 2.800000 -1.300000 0.436659 0.899627 0.000000 0.520000 0.336478 255 255 0
1.442176 2.100000 1.300001 0.436659 0.899627 0.000000 0.000000 0.040333 255 255 0
1.442177 2.100000 -1.299999 0.436659 0.899627 0.000000 0.520000 0.040333 255 255 0
-1.442177 2.100000 -1.300000 -0.436659 0.899627 -0.000000 0.520000 0.519690 255 255 0
-0.000001 2.800000 1.300000 0.436659 0.899627 0.000000 0.000000 0.336478 255 255 0
1.442177 1.600000 -1.299999 1.000000 -0.000000 0.000001 0.520000 0.000000 255 255 0
1.442176 2.100000 1.300001 1.000000 -0.000000 0.000001 0.000000 0.040333 255 255 0
1.442176 1.600000 1.300001 1.000000 -0.000000 0.000001 0.000000 0.000000 255 255 0
-0.000001 2.300000 1.300000 -0.000000 0.000000 1.000000 0.860000 0.266420 255 255 0
1.442176 2.100000 1.300001 -0.000000 0.000000 1.000000 0.900000 0.532840 255 255 0
-0.000001 2.800000 1.300000 -0.000000 0.000000 1.000000 0.760000 0.266420 255 255 0
-1.442177 1.600000 1.299999 -1.000000 0.000000 -0.000000 0.100000 1.000000 255 255 0
-1.442177 2.100000 -1.300000 -1.000000 0.000000 -0.000000 0.000000 0.519690 255 255 0
-1.442177 1.600000 -1.300000 -1.000000 0.000000 -0.000000 0.100000 0.519690 255 255 0
0.000000 2.300000 -1.300000 0.000000 0.000000 -1.000000 0.620000 0.266420 255 255 0
-1.442177 2.100000 -1.300000 0.000000 0.000000 -1.000000 0.660000 0.532840 255 255 0
0.000000 2.800000 -1.300000 0.000000 0.000000 -1.000000 0.520000 0.266420 255 255 0
1.442177 2.100000 -1.299999 0.000000 0.000000 -1.000000 0.660000 0.000000 255 255 0
1.442177 1.600000 -1.299999 0.000000 0.000000 -1.000000 0.760000 0.000000 255 255 0
-1.442177 2.100000 1.299999 -0.000000 0.000000 1.000000 0.900000 0.000000 255 255 0
-1.442177 1.600000 1.299999 -0.000000 0.000000 1.000000 1.000000 0.000000 255 255 0
1.442177 2.100000 -1.299999 1.000000 0.000000 0.000001 0.520000 0.040333 255 255 0
1.442176 1.600000 1.300001 -0.000000 0.000000 1.000000 1.000000 0.532840 255 255 0
-1.442177 2.100000 1.299999 -1.000000 -0.000000 -0.000000 0.000000 1.000000 255 255 0
-1.442177 1.600000 -1.300000 0.000000 0.000000 -1.000000 0.760000 0.532840 255 255 0
3 0 1 2
3 3 4 5
3 6 7 8
3 9 10 11
3 12 13 14
3 15 16 17
3 18 19 20
3 21 22 23
3 24 25 26
3 27 28 29
3 30 31 32
3 33 34 35
3 30 36 31
3 33 37 34
3 38 39 40
3 41 42 43
3 44 45 46
3 47 48 49
3 47 50 51
3 41 52 53
3 38 54 39
3 41 55 42
3 44 56 45
3 47 57 48
3 47 49 50
3 41 43 52
