ply
format ascii 1.0
comment Created by Blender 2.78 (sub 0) - www.blender.org, source file: 'building-roof-part1.blend'
element vertex 56
property float x
property float y
property float z
property float nx
property float ny
property float nz
property float s
property float t
property uchar red
property uchar green
property uchar blue
element face 28
property list uchar uint vertex_indices
end_header
-1.125000 1.260000 -1.125000 0.000000 0.000000 -1.000000 0.000000 1.000000 189 159 141
1.125000 0.840000 -1.125000 0.000000 0.000000 -1.000000 0.166667 0.500000 189 159 141
-1.125000 0.840000 -1.125000 0.000000 0.000000 -1.000000 0.166667 1.000000 189 159 141
-1.125000 1.260000 -1.125000 0.000000 1.000000 -0.000000 0.500000 0.500000 189 159 141
1.125000 1.260000 1.125000 0.000000 1.000000 -0.000000 0.000000 0.000000 189 159 141
1.125000 1.260000 -1.125000 0.000000 1.000000 -0.000000 0.500000 0.000000 189 159 141
1.125000 1.260000 1.125000 0.000000 -0.000000 1.000000 0.833333 0.000000 189 159 141
-1.125000 0.840000 1.125000 0.000000 -0.000000 1.000000 0.666667 0.500000 189 159 141
1.125000 0.840000 1.125000 0.000000 -0.000000 1.000000 0.666667 0.000000 189 159 141
-0.750000 0.840000 -0.750000 0.000000 0.000000 -1.000000 0.500000 0.500000 189 159 141
0.750000 0.000000 -0.750000 0.000000 0.000000 -1.000000 1.000000 0.000000 189 159 141
-0.750000 0.000000 -0.750000 0.000000 0.000000 -1.000000 1.000000 0.500000 189 159 141
-0.750000 0.840000 0.750000 -1.000000 0.000000 0.000000 0.000000 1.000000 189 159 141
-0.750000 0.000000 -0.750000 -1.000000 0.000000 0.000000 0.500000 0.500000 189 159 141
-0.750000 0.000000 0.750000 -1.000000 0.000000 0.000000 0.500000 1.000000 189 159 141
0.750000 0.840000 0.750000 0.000000 -0.000000 1.000000 0.500000 0.000000 189 159 141
-0.750000 0.000000 0.750000 0.000000 -0.000000 1.000000 0.000000 0.500000 189 159 141
0.750000 0.000000 0.750000 0.000000 -0.000000 1.000000 0.000000 0.000000 189 159 141
0.750000 0.840000 -0.750000 1.000000 -0.000000 0.000000 0.500000 1.000000 189 159 141
0.750000 0.000000 0.750000 1.000000 -0.000000 0.000000 1.000000 0.500000 189 159 141
0.750000 0.000000 -0.750000 1.000000 -0.000000 0.000000 1.000000 1.000000 189 159 141
-1.125000 1.260000 1.125000 -1.000000 0.000000 0.000000 0.833333 0.500000 189 159 141
-1.125000 0.840000 -1.125000 -1.000000 0.000000 0.000000 1.000000 0.000000 189 159 141
-1.125000 0.840000 1.125000 -1.000000 0.000000 0.000000 1.000000 0.500000 189 159 141
1.125000 1.260000 -1.125000 1.000000 -0.000000 0.000000 0.500000 0.500000 189 159 141
1.125000 0.840000 1.125000 1.000000 -0.000000 0.000000 0.666667 0.000000 189 159 141
1.125000 0.840000 -1.125000 1.000000 -0.000000 0.000000 0.666667 0.500000 189 159 141
-0.589327 2.166026 0.711759 -1.000000 0.000000 0.000000 0.200000 1.000000 177 175 189
-0.589327 1.004438 0.444738 -1.000000 0.000000 0.000000 0.000000 0.000000 177 175 189
-0.589327 1.004438 0.711759 -1.000000 0.000000 0.000000 0.200000 0.000000 177 175 189
-0.589327 2.166026 0.444738 0.000000 0.000000 -1.000000 0.400000 0.000000 177 175 189
-0.322306 1.004438 0.444738 0.000000 0.000000 -1.000000 0.600000 1.000000 177 175 189
-0.589327 1.004438 0.444738 0.000000 0.000000 -1.000000 0.400000 1.000000 177 175 189
-0.322306 2.166026 0.444738 1.000000 -0.000000 0.000000 0.400000 1.000000 177 175 189
-0.322306 1.004438 0.711759 1.000000 -0.000000 0.000000 0.200000 0.000000 177 175 189
-0.322306 1.004438 0.444738 1.000000 -0.000000 0.000000 0.400000 0.000000 177 175 189
-0.322306 2.166026 0.711759 0.000000 -0.000000 1.000000 0.600000 0.000000 177 175 189
-0.589327 1.004438 0.711759 0.000000 -0.000000 1.000000 0.800000 1.000000 177 175 189
-0.322306 1.004438 0.711759 0.000000 -0.000000 1.000000 0.600000 1.000000 177 175 189
-0.589327 2.166026 0.444738 0.000000 1.000000 -0.000000 1.000000 0.229875 177 175 189
-0.322306 2.166026 0.711759 0.000000 1.000000 -0.000000 0.800000 0.000000 177 175 189
-0.322306 2.166026 0.444738 0.000000 1.000000 -0.000000 1.000000 0.000000 177 175 189
1.125000 1.260000 -1.125000 0.000000 0.000000 -1.000000 0.000000 0.500000 189 159 141
-1.125000 1.260000 1.125000 0.000000 1.000000 0.000000 0.000000 0.500000 189 159 141
-1.125000 1.260000 1.125000 0.000000 0.000000 1.000000 0.833333 0.500000 189 159 141
0.750000 0.840000 -0.750000 0.000000 0.000000 -1.000000 0.500000 0.000000 189 159 141
-0.750000 0.840000 -0.750000 -1.000000 0.000000 0.000000 0.000000 0.500000 189 159 141
-0.750000 0.840000 0.750000 0.000000 0.000000 1.000000 0.500000 0.500000 189 159 141
0.750000 0.840000 0.750000 1.000000 -0.000000 0.000000 0.500000 0.500000 189 159 141
-1.125000 1.260000 -1.125000 -1.000000 0.000000 0.000000 0.833333 0.000000 189 159 141
1.125000 1.260000 1.125000 1.000000 -0.000000 0.000000 0.500000 0.000000 189 159 141
-0.589327 2.166026 0.444738 -1.000000 0.000000 0.000000 0.000000 1.000000 177 175 189
-0.322306 2.166026 0.444738 0.000000 0.000000 -1.000000 0.600000 0.000000 177 175 189
-0.322306 2.166026 0.711759 1.000000 -0.000000 0.000000 0.200000 1.000000 177 175 189
-0.589327 2.166026 0.711759 0.000000 0.000000 1.000000 0.800000 0.000000 177 175 189
-0.589327 2.166026 0.711759 0.000000 1.000000 0.000000 0.800000 0.229876 177 175 189
3 0 1 2
3 3 4 5
3 6 7 8
3 9 10 11
3 12 13 14
3 15 16 17
3 18 19 20
3 21 22 23
3 24 25 26
3 27 28 29
3 30 31 32
3 33 34 35
3 36 37 38
3 39 40 41
3 0 42 1
3 3 43 4
3 6 44 7
3 9 45 10
3 12 46 13
3 15 47 16
3 18 48 19
3 21 49 22
3 24 50 25
3 27 51 28
3 30 52 31
3 33 53 34
3 36 54 37
3 39 55 40
