ply
format ascii 1.0
comment Created by Blender 2.78 (sub 0) - www.blender.org, source file: 'building-roof-part1.blend'
element vertex 60
property float x
property float y
property float z
property float nx
property float ny
property float nz
property float s
property float t
property uchar red
property uchar green
property uchar blue
element face 30
property list uchar uint vertex_indices
end_header
-1.125000 1.656000 -0.846394 0.000000 1.000000 -0.000000 0.500000 0.500000 177 175 189
1.125000 1.656000 0.905565 0.000000 1.000000 -0.000000 0.000000 0.000000 177 175 189
1.125000 1.656000 -0.846394 0.000000 1.000000 -0.000000 0.500000 0.000000 177 175 189
1.125000 1.656000 0.905565 0.000000 -0.000000 1.000000 0.833333 0.000000 177 175 189
-1.125000 1.416000 0.905565 0.000000 -0.000000 1.000000 0.666667 0.500000 177 175 189
1.125000 1.416000 0.905565 0.000000 -0.000000 1.000000 0.666667 0.000000 177 175 189
-0.550000 1.420000 0.508333 -1.000000 0.000000 0.000000 0.000000 1.000000 177 175 189
-0.550000 -0.020000 -0.841667 -1.000000 0.000000 0.000000 0.500000 0.500000 177 175 189
-0.550000 -0.020000 0.508333 -1.000000 0.000000 0.000000 0.500000 1.000000 177 175 189
-0.250000 1.420000 0.508333 0.000000 -0.000000 1.000000 0.500000 0.000000 177 175 189
-0.550000 -0.020000 0.508333 0.000000 -0.000000 1.000000 0.000000 0.500000 177 175 189
-0.250000 -0.020000 0.508333 0.000000 -0.000000 1.000000 0.000000 0.000000 177 175 189
-0.250000 1.420000 -0.841667 1.000000 -0.000000 0.000000 0.500000 1.000000 177 175 189
-0.250000 -0.020000 0.508333 1.000000 -0.000000 0.000000 1.000000 0.500000 177 175 189
-0.250000 -0.020000 -0.841667 1.000000 -0.000000 0.000000 1.000000 1.000000 177 175 189
-1.125000 1.656000 0.905565 -1.000000 0.000000 0.000000 0.833333 0.500000 177 175 189
-1.125000 1.416000 -0.846394 -1.000000 0.000000 0.000000 1.000000 0.000000 177 175 189
-1.125000 1.416000 0.905565 -1.000000 0.000000 0.000000 1.000000 0.500000 177 175 189
1.125000 1.656000 -0.846394 1.000000 -0.000000 0.000000 0.500000 0.500000 177 175 189
1.125000 1.416000 0.905565 1.000000 -0.000000 0.000000 0.666667 0.000000 177 175 189
1.125000 1.416000 -0.846394 1.000000 -0.000000 0.000000 0.666667 0.500000 177 175 189
-0.238873 0.067495 0.577073 0.000000 1.000000 -0.000000 0.453753 1.000000 177 175 189
0.609403 0.067495 0.909343 0.000000 1.000000 -0.000000 0.000000 0.000000 177 175 189
0.609403 0.067495 0.577073 0.000000 1.000000 -0.000000 0.453753 0.000000 177 175 189
0.609403 0.067495 0.909343 0.000000 -0.000000 1.000000 0.726876 0.000000 177 175 189
-0.238873 -0.132505 0.909343 0.000000 -0.000000 1.000000 0.453753 1.000000 177 175 189
0.609403 -0.132505 0.909343 0.000000 -0.000000 1.000000 0.453753 0.000000 177 175 189
-1.000000 0.200000 0.633379 -1.000000 0.000000 0.000000 0.904371 0.745706 177 175 189
-1.000000 0.000000 -0.858033 -1.000000 0.000000 0.000000 1.000000 0.000000 177 175 189
-1.000000 0.000000 0.633379 -1.000000 0.000000 0.000000 1.000000 0.745706 177 175 189
-0.238873 0.067495 0.909343 -1.000000 0.000000 0.000000 0.726877 0.391700 177 175 189
-0.238873 -0.132505 0.577073 -1.000000 0.000000 0.000000 1.000000 0.000000 177 175 189
-0.238873 -0.132505 0.909343 -1.000000 0.000000 0.000000 1.000000 0.391700 177 175 189
1.000000 0.200000 -0.858033 1.000000 -0.000000 0.000000 0.808742 0.745706 177 175 189
1.000000 0.000000 0.633379 1.000000 -0.000000 0.000000 0.904371 0.000000 177 175 189
1.000000 0.000000 -0.858033 1.000000 -0.000000 0.000000 0.904371 0.745706 177 175 189
1.000000 0.200000 0.633379 0.000000 -0.000000 1.000000 0.808741 0.000000 177 175 189
-1.000000 0.000000 0.633379 0.000000 -0.000000 1.000000 0.713112 1.000000 177 175 189
1.000000 0.000000 0.633379 0.000000 -0.000000 1.000000 0.713112 0.000000 177 175 189
0.609403 0.067495 0.577073 1.000000 -0.000000 0.000000 0.726877 0.783400 177 175 189
0.609403 -0.132505 0.909343 1.000000 -0.000000 0.000000 1.000000 0.391700 177 175 189
0.609403 -0.132505 0.577073 1.000000 -0.000000 0.000000 1.000000 0.783400 177 175 189
-1.000000 0.200000 -0.858033 0.000000 1.000000 -0.000000 0.713112 1.000000 177 175 189
1.000000 0.200000 0.633379 0.000000 1.000000 -0.000000 0.000000 0.000000 177 175 189
1.000000 0.200000 -0.858033 0.000000 1.000000 -0.000000 0.713112 0.000000 177 175 189
-1.125000 1.656000 0.905565 0.000000 1.000000 0.000000 0.000000 0.500000 177 175 189
-1.125000 1.656000 0.905565 0.000000 0.000000 1.000000 0.833333 0.500000 177 175 189
-0.550000 1.420000 -0.841667 -1.000000 0.000000 0.000000 0.000000 0.500000 177 175 189
-0.550000 1.420000 0.508333 0.000000 0.000000 1.000000 0.500000 0.500000 177 175 189
-0.250000 1.420000 0.508333 1.000000 -0.000000 0.000000 0.500000 0.500000 177 175 189
-1.125000 1.656000 -0.846394 -1.000000 0.000000 0.000000 0.833333 0.000000 177 175 189
1.125000 1.656000 0.905565 1.000000 -0.000000 0.000000 0.500000 0.000000 177 175 189
-0.238873 0.067495 0.909343 0.000000 1.000000 0.000000 0.000000 1.000000 177 175 189
-0.238873 0.067495 0.909343 0.000000 0.000000 1.000000 0.726877 1.000000 177 175 189
-1.000000 0.200000 -0.858033 -1.000000 0.000000 0.000000 0.904371 0.000000 177 175 189
-0.238873 0.067495 0.577073 -1.000000 0.000000 0.000000 0.726877 0.000000 177 175 189
1.000000 0.200000 0.633379 1.000000 -0.000000 0.000000 0.808742 0.000000 177 175 189
-1.000000 0.200000 0.633379 0.000000 0.000000 1.000000 0.808742 1.000000 177 175 189
0.609403 0.067495 0.909343 1.000000 -0.000000 0.000000 0.726877 0.391700 177 175 189
-1.000000 0.200000 0.633379 0.000000 1.000000 0.000000 0.000000 1.000000 177 175 189
3 0 1 2
3 3 4 5
3 6 7 8
3 9 10 11
3 12 13 14
3 15 16 17
3 18 19 20
3 21 22 23
3 24 25 26
3 27 28 29
3 30 31 32
3 33 34 35
3 36 37 38
3 39 40 41
3 42 43 44
3 0 45 1
3 3 46 4
3 6 47 7
3 9 48 10
3 12 49 13
3 15 50 16
3 18 51 19
3 21 52 22
3 24 53 25
3 27 54 28
3 30 55 31
3 33 56 34
3 36 57 37
3 39 58 40
3 42 59 43
