ply
format ascii 1.0
comment Created by Blender 2.78 (sub 0) - www.blender.org, source file: 'tree1_v2.blend'
element vertex 16
property float x
property float y
property float z
property float nx
property float ny
property float nz
property float s
property float t
property uchar red
property uchar green
property uchar blue
element face 8
property list uchar uint vertex_indices
end_header
2.000000 0.000000 -0.000000 0.000000 -0.000000 1.000000 0.000050 0.999900 18 166 41
-2.000000 4.000000 0.000000 0.000000 -0.000000 1.000000 0.499950 0.000100 18 166 41
-2.000000 0.000000 -0.000000 0.000000 -0.000000 1.000000 0.499950 0.999900 18 166 41
-0.000000 0.000000 -2.000000 1.000000 -0.000000 -0.000000 0.000050 0.999900 18 166 41
0.000000 4.000000 2.000000 1.000000 -0.000000 -0.000000 0.499950 0.000100 18 166 41
-0.000000 0.000000 2.000000 1.000000 -0.000000 -0.000000 0.499950 0.999900 18 166 41
1.414213 2.000000 1.414214 0.000000 1.000000 0.000000 0.499950 0.500000 18 166 41
-2.828427 2.000000 0.000000 0.000000 1.000000 0.000000 0.000050 0.000100 18 166 41
-0.000000 2.000000 2.828427 0.000000 1.000000 0.000000 0.499950 0.000100 18 166 41
-1.414213 2.000000 -1.414213 -0.000000 1.000000 0.000000 0.499950 0.500000 18 166 41
2.828427 2.000000 0.000000 -0.000000 1.000000 0.000000 0.000050 0.000100 18 166 41
0.000000 2.000000 -2.828427 -0.000000 1.000000 0.000000 0.499950 0.000100 18 166 41
2.000000 4.000000 0.000000 0.000000 -0.000000 1.000000 0.000050 0.000100 18 166 41
0.000000 4.000000 -2.000000 1.000000 -0.000000 -0.000000 0.000050 0.000100 18 166 41
-1.414213 2.000000 -1.414213 0.000000 1.000000 0.000000 0.000050 0.500000 18 166 41
1.414214 2.000000 1.414214 -0.000000 1.000000 0.000000 0.000050 0.500000 18 166 41
3 0 1 2
3 3 4 5
3 6 7 8
3 9 10 11
3 0 12 1
3 3 13 4
3 6 14 7
3 9 15 10
