ply
format ascii 1.0
comment Created by Blender 2.79 (sub 0) - www.blender.org, source file: 'house.blend'
element vertex 130
property float x
property float y
property float z
property float nx
property float ny
property float nz
property float s
property float t
property uchar red
property uchar green
property uchar blue
element face 66
property list uchar uint vertex_indices
end_header
-2.124197 1.200000 -2.144756 0.000000 0.000000 -1.000000 0.031872 0.490259 0 0 0
1.552740 0.000000 -2.144756 0.000000 0.000000 -1.000000 1.506066 0.009143 0 0 0
-2.124197 0.000000 -2.144756 0.000000 0.000000 -1.000000 0.031872 0.009143 0 0 0
-2.124197 2.200000 -0.372400 -1.000000 0.000000 0.000000 2.335856 0.891189 0 0 0
-2.124197 1.200000 -2.144756 -1.000000 0.000000 0.000000 3.046446 0.490259 0 0 0
-2.124197 0.000000 -2.144756 -1.000000 0.000000 0.000000 3.046446 0.009143 0 0 0
1.552740 1.200000 1.399956 0.000000 -0.000000 1.000000 -0.097653 0.490259 0 0 0
-2.124197 0.000000 1.399956 0.000000 -0.000000 1.000000 -1.571848 0.009143 0 0 0
1.552740 0.000000 1.399956 0.000000 -0.000000 1.000000 -0.097653 0.009143 0 0 0
1.552740 2.200000 -0.372400 1.000000 -0.000000 0.000000 -2.274839 0.891189 0 0 0
1.552740 1.200000 1.399956 1.000000 -0.000000 0.000000 -2.985430 0.490259 0 0 0
1.552740 0.000000 1.399956 1.000000 -0.000000 0.000000 -2.985430 0.009143 0 0 0
-2.412813 2.118419 -0.374193 -1.000000 -0.000000 -0.000000 2.369446 0.055195 255 255 255
-2.412813 1.254697 1.567463 -1.000000 -0.000000 -0.000000 2.538731 0.442424 255 255 255
-2.412813 2.370689 -0.374193 -1.000000 -0.000000 -0.000000 2.320002 0.055195 255 255 255
-2.412813 1.002428 -2.315849 -0.000000 0.000000 -1.000000 2.260890 1.369239 255 255 255
1.852473 1.254697 -2.315849 -0.000000 0.000000 -1.000000 2.211447 0.518602 255 255 255
1.852473 1.002428 -2.315849 -0.000000 0.000000 -1.000000 2.260890 0.518602 255 255 255
-2.412813 1.254697 -2.315849 0.000000 0.866995 -0.498317 1.125150 -0.319728 255 255 255
1.852473 2.370689 -0.374193 0.000000 0.866995 -0.498317 1.477606 0.517693 255 255 255
1.852473 1.254697 -2.315849 0.000000 0.866995 -0.498317 1.125150 0.529999 255 255 255
1.852473 1.254697 1.567463 1.000000 0.000000 0.000000 2.538731 0.442424 255 255 255
1.852473 2.118419 -0.374193 1.000000 0.000000 0.000000 2.369446 0.829654 255 255 255
1.852473 2.370689 -0.374193 1.000000 0.000000 0.000000 2.320002 0.829654 255 255 255
-2.412813 2.370689 -0.374193 0.000000 0.866995 0.498317 1.477606 -0.332034 255 255 255
1.852473 1.254697 1.567463 0.000000 0.866995 0.498317 1.881067 0.525825 255 255 255
1.852473 2.370689 -0.374193 0.000000 0.866995 0.498317 1.477606 0.517693 255 255 255
-2.412813 1.254697 -2.315849 -1.000000 -0.000000 0.000000 2.538730 -0.332034 255 255 255
1.852473 1.254697 -2.315849 1.000000 -0.000000 0.000000 2.538730 1.216883 255 255 255
1.852473 1.002428 -2.315849 1.000000 -0.000000 0.000000 2.588174 1.216883 255 255 255
-2.412813 1.254697 1.567463 0.000000 0.000000 1.000000 2.285529 1.369239 255 255 255
1.852473 1.002428 1.567463 0.000000 0.000000 1.000000 2.260890 0.518602 255 255 255
1.852473 1.254697 1.567463 0.000000 0.000000 1.000000 2.285529 0.518602 255 255 255
1.531498 1.157990 0.248403 0.000000 0.000000 1.000000 1.800843 1.204261 255 255 255
3.209019 1.119627 0.248403 0.000000 0.000000 1.000000 1.817945 0.870140 255 255 255
1.531498 1.333445 0.248403 0.000000 0.000000 1.000000 1.817945 1.205366 255 255 255
1.500000 1.250326 0.186965 0.145680 0.989332 0.000000 1.125150 0.533969 255 255 255
3.200000 1.000000 -2.068993 0.145680 0.989332 0.000000 1.460263 0.976848 255 255 255
1.500000 1.250326 -2.068993 0.145680 0.989332 0.000000 1.125150 0.980819 255 255 255
3.200000 1.000000 0.186965 1.000000 0.000000 -0.000000 2.588174 0.099837 255 255 255
3.200000 0.000000 -2.068993 1.000000 0.000000 -0.000000 2.784168 0.549748 255 255 255
3.200000 1.000000 -2.068993 1.000000 0.000000 -0.000000 2.588174 0.549748 255 255 255
3.209019 1.119627 -2.183695 0.000000 0.000000 -1.000000 2.622286 1.168078 255 255 255
1.531498 1.157990 -2.183695 0.000000 0.000000 -1.000000 2.588174 0.835244 255 255 255
1.531498 1.333445 -2.183695 0.000000 0.000000 -1.000000 2.622286 0.830819 255 255 255
1.531498 1.333445 0.248403 0.126438 0.991974 -0.000000 2.211447 1.000341 255 255 255
3.209019 1.119627 -2.183695 0.126438 0.991974 -0.000000 1.881067 0.521750 255 255 255
1.531498 1.333445 -2.183695 0.126438 0.991974 -0.000000 2.211447 0.518602 255 255 255
3.200000 1.000000 -2.068993 0.000000 0.000000 -1.000000 1.174212 0.980819 255 255 255
1.500000 0.000000 -2.068993 0.000000 0.000000 -1.000000 1.370207 1.319854 255 255 255
1.500000 1.250326 -2.068993 0.000000 0.000000 -1.000000 1.125150 1.319854 255 255 255
1.500000 0.000000 0.186965 0.000000 0.000000 1.000000 1.698513 0.869035 255 255 255
3.200000 1.000000 0.186965 0.000000 0.000000 1.000000 1.796180 0.529999 255 255 255
1.500000 1.250326 0.186965 0.000000 0.000000 1.000000 1.820629 0.869034 255 255 255
3.209019 1.119627 0.248403 1.000000 0.000000 -0.000000 2.319917 1.003642 255 255 255
3.209019 0.944172 -2.183695 1.000000 0.000000 -0.000000 2.285529 0.518602 255 255 255
3.209019 1.119627 -2.183695 1.000000 0.000000 -0.000000 2.319917 0.518602 255 255 255
-1.574333 1.982572 -0.044526 -1.000000 -0.000000 0.000000 2.656523 0.834095 255 255 255
-1.574333 2.044209 1.166053 -1.000000 -0.000000 0.000000 2.622286 1.073313 255 255 255
-1.574333 2.158027 -0.044526 -1.000000 -0.000000 0.000000 2.622286 0.830819 255 255 255
0.857764 2.044209 1.166052 1.000000 0.000000 -0.000000 1.454442 1.223312 255 255 255
0.857764 1.982572 -0.044526 1.000000 0.000000 -0.000000 1.420205 0.984094 255 255 255
0.857764 2.158027 -0.044526 1.000000 0.000000 -0.000000 1.454442 0.980819 255 255 255
-1.574333 2.158027 -0.044526 0.000000 0.995609 0.093607 1.698513 1.014520 255 255 255
0.857764 2.044209 1.166052 0.000000 0.995609 0.093607 1.460263 0.530258 255 255 255
0.857764 2.158027 -0.044526 0.000000 0.995609 0.093607 1.698513 0.529999 255 255 255
-1.574333 2.044209 1.166053 0.000000 0.000000 1.000000 2.690504 0.549748 255 255 255
0.857764 1.868753 1.166052 0.000000 0.000000 1.000000 2.707640 1.034787 255 255 255
0.857764 2.044209 1.166052 0.000000 0.000000 1.000000 2.690504 1.034787 255 255 255
-1.441543 2.063206 -0.151989 -1.000000 -0.000000 -0.000000 2.690504 0.549748 255 255 255
-1.441543 1.341552 1.058590 -1.000000 -0.000000 -0.000000 2.690504 0.830819 255 255 255
-1.441543 1.949388 1.058590 -1.000000 -0.000000 -0.000000 2.588174 0.768748 255 255 255
0.724974 2.063206 -0.151989 1.000000 -0.000000 0.000000 1.800843 1.150106 255 255 255
0.724974 1.949388 1.058589 1.000000 -0.000000 0.000000 1.698513 0.931106 255 255 255
0.724974 1.341552 1.058589 1.000000 -0.000000 0.000000 1.800843 0.869034 255 255 255
-1.441543 2.063206 -0.151989 0.000000 0.995609 0.093607 2.826423 0.099577 255 255 255
0.724974 1.949388 1.058589 0.000000 0.995609 0.093607 2.588174 -0.331775 255 255 255
0.724974 2.063206 -0.151989 0.000000 0.995609 0.093607 2.826423 -0.332034 255 255 255
-1.441543 1.949388 1.058590 0.000000 0.000000 1.000000 1.820629 0.529999 255 255 255
0.724974 1.341552 1.058589 0.000000 0.000000 1.000000 1.879995 0.962073 255 255 255
0.724974 1.949388 1.058589 0.000000 0.000000 1.000000 1.820629 0.962073 255 255 255
0.060378 1.862211 -1.000647 -1.000000 -0.000000 0.000000 1.290098 1.398881 255 255 255
0.060378 2.958761 -0.745551 -1.000000 -0.000000 0.000000 1.238611 1.213103 255 255 255
0.060378 2.958761 -1.000647 -1.000000 -0.000000 0.000000 1.290097 1.213103 255 255 255
0.413878 2.958761 -0.745551 1.000000 0.000000 -0.000000 1.341584 1.213103 255 255 255
0.413878 1.862211 -1.000647 1.000000 0.000000 -0.000000 1.290098 1.398881 255 255 255
0.413878 2.958761 -1.000647 1.000000 0.000000 -0.000000 1.290098 1.213103 255 255 255
0.060378 2.958761 -1.000647 0.000000 1.000000 -0.000000 1.095916 1.398881 255 255 255
0.413878 2.958761 -0.745551 0.000000 1.000000 -0.000000 1.147402 1.458771 255 255 255
0.413878 2.958761 -1.000647 0.000000 1.000000 -0.000000 1.095916 1.458771 255 255 255
0.060378 2.958761 -0.745551 0.000000 0.000000 1.000000 1.238611 1.213103 255 255 255
0.413878 1.862211 -0.745551 0.000000 0.000000 1.000000 1.167263 1.398881 255 255 255
0.413878 2.958761 -0.745551 0.000000 0.000000 1.000000 1.167263 1.213103 255 255 255
0.413878 1.862211 -1.000647 -0.000000 -0.000000 -1.000000 1.167263 1.398881 255 255 255
0.060378 2.958761 -1.000647 -0.000000 -0.000000 -1.000000 1.095916 1.213103 255 255 255
0.413878 2.958761 -1.000647 -0.000000 -0.000000 -1.000000 1.167263 1.213103 255 255 255
1.552740 1.200000 -2.144756 0.000000 0.000000 -1.000000 1.506066 0.490259 0 0 0
-2.124197 0.000000 1.399956 -1.000000 -0.000000 -0.000000 1.625265 0.009143 0 0 0
-2.124197 1.200000 1.399956 -1.000000 0.000000 0.000000 1.625265 0.490259 0 0 0
-2.124197 1.200000 1.399956 0.000000 0.000000 1.000000 -1.571848 0.490259 0 0 0
1.552740 0.000000 -2.144756 1.000000 0.000000 -0.000000 -1.564249 0.009143 0 0 0
1.552740 1.200000 -2.144756 1.000000 0.000000 0.000000 -1.564249 0.490259 0 0 0
-2.412813 1.002428 1.567463 -1.000000 -0.000000 -0.000000 2.588174 0.442424 255 255 255
-2.412813 1.254697 -2.315849 -0.000000 -0.000000 -1.000000 2.211447 1.369239 255 255 255
-2.412813 2.370689 -0.374193 0.000000 0.866995 -0.498317 1.477606 -0.332034 255 255 255
1.852473 1.002428 1.567463 1.000000 0.000000 -0.000000 2.588174 0.442424 255 255 255
-2.412813 1.254697 1.567463 0.000000 0.866995 0.498317 1.881067 -0.323902 255 255 255
-2.412813 1.002428 -2.315849 -1.000000 0.000000 -0.000000 2.588174 -0.332034 255 255 255
-2.412813 1.002428 1.567463 0.000000 -0.000000 1.000000 2.260890 1.369239 255 255 255
3.209019 0.944172 0.248403 0.000000 0.000000 1.000000 1.800843 0.869034 255 255 255
3.200000 1.000000 0.186965 0.145680 0.989332 -0.000000 1.460263 0.529999 255 255 255
3.200000 0.000000 0.186965 1.000000 0.000000 0.000000 2.784169 0.099837 255 255 255
3.209019 0.944172 -2.183695 0.000000 0.000000 -1.000000 2.588174 1.172502 255 255 255
1.531498 1.333445 0.248403 0.126438 0.991975 -0.000000 2.211447 1.000341 255 255 255
3.209019 1.119627 0.248403 0.126438 0.991975 -0.000000 1.881067 1.003488 255 255 255
3.209019 1.119627 -2.183695 0.126438 0.991975 -0.000000 1.881067 0.521750 255 255 255
3.200000 0.000000 -2.068993 0.000000 0.000000 -1.000000 1.370207 0.980819 255 255 255
3.200000 0.000000 0.186965 0.000000 0.000000 1.000000 1.698513 0.529999 255 255 255
3.209019 0.944172 0.248403 1.000000 0.000000 -0.000000 2.285529 1.003642 255 255 255
-1.574333 1.868753 1.166053 -1.000000 -0.000000 -0.000000 2.656523 1.076588 255 255 255
0.857764 1.868753 1.166052 1.000000 0.000000 -0.000000 1.420205 1.226587 255 255 255
-1.574333 2.044209 1.166053 0.000000 0.995609 0.093607 1.460263 1.014779 255 255 255
-1.574333 1.868753 1.166053 0.000000 -0.000000 1.000000 2.707640 0.549748 255 255 255
-1.441543 1.949388 1.058590 0.000000 0.995609 0.093607 2.588174 0.099837 255 255 255
-1.441543 1.341552 1.058590 0.000000 -0.000000 1.000000 1.879995 0.529999 255 255 255
0.060378 1.862211 -0.745551 -1.000000 -0.000000 -0.000000 1.238611 1.398881 255 255 255
0.413878 1.862211 -0.745551 1.000000 0.000000 0.000000 1.341584 1.398881 255 255 255
0.060378 2.958761 -0.745551 0.000000 1.000000 0.000000 1.147402 1.398881 255 255 255
0.060378 1.862211 -0.745551 0.000000 -0.000000 1.000000 1.238611 1.398881 255 255 255
0.060378 1.862211 -1.000647 0.000000 0.000000 -1.000000 1.095916 1.398881 255 255 255
3 0 1 2
3 3 4 5
3 6 7 8
3 9 10 11
3 12 13 14
3 15 16 17
3 18 19 20
3 21 22 23
3 24 25 26
3 27 12 14
3 28 22 29
3 30 31 32
3 33 34 35
3 36 37 38
3 39 40 41
3 42 43 44
3 45 46 47
3 48 49 50
3 51 52 53
3 54 55 56
3 57 58 59
3 60 61 62
3 63 64 65
3 66 67 68
3 69 70 71
3 72 73 74
3 75 76 77
3 78 79 80
3 81 82 83
3 84 85 86
3 87 88 89
3 90 91 92
3 93 94 95
3 0 96 1
3 5 97 3
3 97 98 3
3 6 99 7
3 11 100 9
3 100 101 9
3 12 102 13
3 15 103 16
3 18 104 19
3 21 105 22
3 24 106 25
3 27 107 12
3 28 23 22
3 30 108 31
3 33 109 34
3 36 110 37
3 39 111 40
3 42 112 43
3 113 114 115
3 48 116 49
3 51 117 52
3 54 118 55
3 57 119 58
3 60 120 61
3 63 121 64
3 66 122 67
3 75 123 76
3 78 124 79
3 81 125 82
3 84 126 85
3 87 127 88
3 90 128 91
3 93 129 94
