ply
format ascii 1.0
comment Created by Blender 2.79 (sub 0) - www.blender.org, source file: 'house.blend'
element vertex 114
property float x
property float y
property float z
property float nx
property float ny
property float nz
property float s
property float t
property uchar red
property uchar green
property uchar blue
element face 62
property list uchar uint vertex_indices
end_header
2.218220 1.188190 1.849010 -0.000000 0.000000 1.000000 0.031872 0.490259 0 0 0
-1.458716 0.000000 1.849010 -0.000000 0.000000 1.000000 1.506066 0.009143 0 0 0
2.218220 0.000000 1.849010 -0.000000 0.000000 1.000000 0.031872 0.009143 0 0 0
2.218220 2.178349 0.076653 1.000000 0.000000 -0.000000 2.335856 0.891189 0 0 0
2.218220 1.188190 1.849010 1.000000 0.000000 -0.000000 3.046446 0.490259 0 0 0
2.218220 0.000000 1.849010 1.000000 0.000000 -0.000000 3.046446 0.009143 0 0 0
-1.458716 1.188190 -1.695702 -0.000000 0.000000 -1.000000 -0.097653 0.490259 0 0 0
2.218220 0.000000 -1.695702 -0.000000 0.000000 -1.000000 -1.571848 0.009143 0 0 0
-1.458716 0.000000 -1.695702 -0.000000 0.000000 -1.000000 -0.097653 0.009143 0 0 0
-1.458716 2.178349 0.076654 -1.000000 0.000000 0.000000 -2.274839 0.891189 0 0 0
-1.458716 1.188190 -1.695702 -1.000000 0.000000 0.000000 -2.985430 0.490259 0 0 0
-1.458716 0.000000 -1.695702 -1.000000 0.000000 0.000000 -2.985430 0.009143 0 0 0
2.506836 2.097570 0.078447 1.000000 0.000000 -0.000000 2.369446 0.055195 255 255 255
2.506836 1.242349 -1.863209 1.000000 0.000000 -0.000000 2.538731 0.442424 255 255 255
2.506836 2.347357 0.078447 1.000000 0.000000 -0.000000 2.320002 0.055195 255 255 255
2.506837 0.992562 2.020102 0.000000 -0.000000 1.000000 2.260890 1.369239 255 255 255
-1.758450 1.242349 2.020103 0.000000 -0.000000 1.000000 2.211447 0.518602 255 255 255
-1.758450 0.992562 2.020103 0.000000 -0.000000 1.000000 2.260890 0.518602 255 255 255
2.506837 1.242349 2.020102 0.000000 0.869111 0.494617 1.125150 -0.319728 255 255 255
-1.758450 2.347357 0.078447 0.000000 0.869111 0.494617 1.477606 0.517693 255 255 255
-1.758450 1.242349 2.020103 0.000000 0.869111 0.494617 1.125150 0.529999 255 255 255
-1.758450 1.242349 -1.863209 -1.000000 0.000000 0.000000 2.538731 0.442424 255 255 255
-1.758450 2.097570 0.078447 -1.000000 0.000000 0.000000 2.369446 0.829654 255 255 255
-1.758450 2.347357 0.078447 -1.000000 0.000000 0.000000 2.320002 0.829654 255 255 255
2.506836 2.347357 0.078447 0.000000 0.869111 -0.494617 1.477606 -0.332034 255 255 255
-1.758450 1.242349 -1.863209 0.000000 0.869111 -0.494617 1.881067 0.525825 255 255 255
-1.758450 2.347357 0.078447 0.000000 0.869111 -0.494617 1.477606 0.517693 255 255 255
2.506837 1.242349 2.020102 1.000000 0.000000 -0.000000 2.538730 -0.332034 255 255 255
-1.758450 1.242349 2.020103 -1.000000 0.000000 0.000000 2.538730 1.216883 255 255 255
-1.758450 0.992562 2.020103 -1.000000 0.000000 0.000000 2.588174 1.216883 255 255 255
2.506836 1.242349 -1.863209 -0.000000 -0.000000 -1.000000 2.285529 1.369239 255 255 255
-1.758450 0.992562 -1.863209 -0.000000 -0.000000 -1.000000 2.260890 0.518602 255 255 255
-1.758450 1.242349 -1.863209 -0.000000 -0.000000 -1.000000 2.285529 0.518602 255 255 255
-0.473638 1.628605 0.924634 -0.000000 0.000000 1.000000 1.212498 1.323031 255 255 255
-0.827138 2.714363 0.924634 -0.000000 0.000000 1.000000 1.190678 1.392317 255 255 255
-0.827138 1.628605 0.924634 -0.000000 0.000000 1.000000 1.190678 1.323031 255 255 255
1.783596 1.952254 2.587146 0.000000 -0.000000 1.000000 0.018148 0.727221 0 0 0
-0.297328 1.952254 2.587146 0.000000 -0.000000 1.000000 -0.429412 0.727221 0 0 0
-0.297328 0.001623 2.587146 0.000000 -0.000000 1.000000 -0.429412 0.006888 0 0 0
1.783596 1.952254 -1.413350 1.000000 -0.000000 0.000000 0.520800 0.727221 0 0 0
1.783596 0.001623 2.587146 1.000000 -0.000000 0.000000 0.985054 0.006888 0 0 0
1.783596 0.001623 -1.413350 1.000000 -0.000000 0.000000 0.520800 0.006888 0 0 0
-0.297328 1.952254 -1.413350 0.000000 0.000000 -1.000000 1.022592 0.727221 0 0 0
1.783596 1.952254 -1.413350 0.000000 0.000000 -1.000000 1.470152 0.727221 0 0 0
1.783596 0.001623 -1.413350 0.000000 0.000000 -1.000000 1.470152 0.006888 0 0 0
-0.297328 1.952254 2.587146 -1.000000 0.000000 0.000000 0.480009 0.727221 0 0 0
-0.297328 0.001623 -1.413350 -1.000000 0.000000 0.000000 0.015755 0.006888 0 0 0
-0.297328 0.001623 2.587146 -1.000000 0.000000 0.000000 0.480009 0.006888 0 0 0
-0.473638 1.628605 0.924634 1.000000 0.000000 0.000000 1.142591 1.323031 255 255 255
-0.473638 2.714363 0.499107 1.000000 0.000000 0.000000 1.168857 1.392317 255 255 255
-0.473638 2.714363 0.924634 1.000000 0.000000 0.000000 1.142591 1.392317 255 255 255
-0.827138 2.714363 0.499107 -1.000000 0.000000 0.000000 1.142591 1.323031 255 255 255
-0.827138 1.628605 0.924634 -1.000000 0.000000 0.000000 1.116325 1.392317 255 255 255
-0.827138 2.714363 0.924634 -1.000000 0.000000 0.000000 1.116325 1.323031 255 255 255
-0.827138 2.714363 0.924634 0.000000 1.000000 -0.000000 1.116325 1.392317 255 255 255
-0.473638 2.714363 0.499107 0.000000 1.000000 -0.000000 1.138145 1.419204 255 255 255
-0.827138 2.714363 0.499107 0.000000 1.000000 -0.000000 1.116325 1.419204 255 255 255
-0.473638 2.714363 0.499107 0.000000 0.000000 -1.000000 1.168857 1.392317 255 255 255
-0.827138 1.628605 0.499107 0.000000 0.000000 -1.000000 1.190678 1.323031 255 255 255
-0.827138 2.714363 0.499107 0.000000 0.000000 -1.000000 1.190678 1.392317 255 255 255
0.731759 2.793719 -1.603267 0.000000 -0.000000 -1.000000 2.369446 0.055195 255 255 255
-0.519127 1.944298 -1.603267 0.000000 -0.000000 -1.000000 2.538731 0.442424 255 255 255
0.731759 3.041812 -1.603267 0.000000 -0.000000 -1.000000 2.320002 0.055195 255 255 255
1.982644 1.696205 -1.603267 1.000000 0.000000 -0.000000 2.260890 1.369239 255 255 255
1.982645 1.944298 2.920251 1.000000 0.000000 -0.000000 2.211447 0.518602 255 255 255
1.982645 1.696205 2.920251 1.000000 0.000000 -0.000000 2.260890 0.518602 255 255 255
1.982644 1.944298 -1.603267 0.659521 0.751686 -0.000000 1.125150 -0.319728 255 255 255
0.731759 3.041812 2.920251 0.659521 0.751686 -0.000000 1.477606 0.517693 255 255 255
1.982645 1.944298 2.920251 0.659521 0.751686 -0.000000 1.125150 0.529999 255 255 255
-0.519127 1.944298 2.920251 0.000000 0.000000 1.000000 2.538731 0.442424 255 255 255
0.731759 2.793719 2.920251 0.000000 0.000000 1.000000 2.369446 0.829654 255 255 255
0.731759 3.041812 2.920251 0.000000 0.000000 1.000000 2.320002 0.829654 255 255 255
0.731759 3.041812 2.920251 -0.659521 0.751686 0.000000 1.477606 0.517693 255 255 255
-0.519127 1.944298 -1.603267 -0.659521 0.751686 0.000000 1.881067 -0.323902 255 255 255
-0.519127 1.944298 2.920251 -0.659521 0.751686 0.000000 1.881067 0.525825 255 255 255
1.982644 1.944298 -1.603267 0.000000 0.000000 -1.000000 2.538730 -0.332034 255 255 255
1.982645 1.944298 2.920251 0.000000 0.000000 1.000000 2.538730 1.216883 255 255 255
1.982645 1.696205 2.920251 0.000000 0.000000 1.000000 2.588174 1.216883 255 255 255
-0.519127 1.944298 -1.603267 -1.000000 0.000000 0.000000 2.285529 1.369239 255 255 255
-0.519127 1.696205 2.920251 -1.000000 0.000000 0.000000 2.260890 0.518602 255 255 255
-0.519127 1.944298 2.920251 -1.000000 0.000000 0.000000 2.285529 0.518602 255 255 255
-1.458716 1.188190 1.849010 -0.000000 0.000000 1.000000 1.506066 0.490259 0 0 0
2.218220 0.000000 -1.695702 1.000000 0.000000 -0.000000 1.625265 0.009143 0 0 0
2.218220 1.188190 -1.695702 1.000000 0.000000 0.000000 1.625265 0.490259 0 0 0
2.218220 1.188190 -1.695702 -0.000000 0.000000 -1.000000 -1.571848 0.490259 0 0 0
-1.458716 0.000000 1.849010 -1.000000 0.000000 0.000000 -1.564249 0.009143 0 0 0
-1.458716 1.188190 1.849010 -1.000000 0.000000 0.000000 -1.564249 0.490259 0 0 0
2.506836 0.992562 -1.863209 1.000000 0.000000 -0.000000 2.588174 0.442424 255 255 255
2.506837 1.242349 2.020102 0.000000 0.000000 1.000000 2.211447 1.369239 255 255 255
2.506836 2.347357 0.078447 0.000000 0.869111 0.494617 1.477606 -0.332034 255 255 255
-1.758450 0.992562 -1.863209 -1.000000 0.000000 0.000000 2.588174 0.442424 255 255 255
2.506836 1.242349 -1.863209 -0.000000 0.869111 -0.494617 1.881067 -0.323902 255 255 255
2.506837 0.992562 2.020102 1.000000 0.000000 -0.000000 2.588174 -0.332034 255 255 255
2.506836 0.992562 -1.863209 -0.000000 0.000000 -1.000000 2.260890 1.369239 255 255 255
-0.473638 2.714363 0.924634 -0.000000 0.000000 1.000000 1.212498 1.392317 255 255 255
1.783596 0.001623 2.587146 0.000000 0.000000 1.000000 0.018148 0.006888 0 0 0
0.743133 2.910016 2.587146 0.000000 0.000000 1.000000 -0.205632 1.327499 0 0 0
1.783596 1.952254 2.587146 1.000000 -0.000000 0.000000 0.985054 0.727221 0 0 0
-0.297328 0.001623 -1.413350 0.000000 0.000000 -1.000000 1.022592 0.006888 0 0 0
0.743133 2.910016 -1.413350 0.000000 0.000000 -1.000000 1.246372 1.327499 0 0 0
-0.297328 1.952254 -1.413350 -1.000000 0.000000 0.000000 0.015755 0.727221 0 0 0
-0.473638 1.628605 0.499107 1.000000 0.000000 -0.000000 1.168857 1.323031 255 255 255
-0.827138 1.628605 0.499107 -1.000000 0.000000 0.000000 1.142591 1.392317 255 255 255
-0.473638 2.714363 0.924634 0.000000 1.000000 -0.000000 1.138145 1.392317 255 255 255
-0.473638 1.628605 0.499107 0.000000 0.000000 -1.000000 1.168857 1.323031 255 255 255
-0.519127 1.696205 -1.603267 0.000000 0.000000 -1.000000 2.588174 0.442424 255 255 255
1.982644 1.944298 -1.603267 1.000000 0.000000 -0.000000 2.211447 1.369239 255 255 255
1.982644 1.944298 -1.603267 0.659522 0.751686 -0.000000 1.125150 -0.319728 255 255 255
0.731759 3.041812 -1.603267 0.659522 0.751686 -0.000000 1.477606 -0.332034 255 255 255
0.731759 3.041812 2.920251 0.659522 0.751686 -0.000000 1.477606 0.517693 255 255 255
-0.519127 1.696205 2.920251 0.000000 -0.000000 1.000000 2.588174 0.442424 255 255 255
0.731759 3.041812 -1.603267 -0.659521 0.751686 0.000000 1.477606 -0.332034 255 255 255
1.982644 1.696205 -1.603267 0.000000 0.000000 -1.000000 2.588174 -0.332034 255 255 255
-0.519127 1.696205 -1.603267 -1.000000 0.000000 0.000000 2.260890 1.369239 255 255 255
3 0 1 2
3 3 4 5
3 6 7 8
3 9 10 11
3 12 13 14
3 15 16 17
3 18 19 20
3 21 22 23
3 24 25 26
3 27 12 14
3 28 22 29
3 30 31 32
3 33 34 35
3 36 37 38
3 39 40 41
3 42 43 44
3 45 46 47
3 48 49 50
3 51 52 53
3 54 55 56
3 57 58 59
3 60 61 62
3 63 64 65
3 66 67 68
3 69 70 71
3 72 73 74
3 75 60 62
3 76 70 77
3 78 79 80
3 0 81 1
3 5 82 3
3 82 83 3
3 6 84 7
3 11 85 9
3 85 86 9
3 12 87 13
3 15 88 16
3 18 89 19
3 21 90 22
3 24 91 25
3 27 92 12
3 28 23 22
3 30 93 31
3 33 94 34
3 38 95 36
3 36 96 37
3 39 97 40
3 44 98 42
3 42 99 43
3 45 100 46
3 48 101 49
3 51 102 52
3 54 103 55
3 57 104 58
3 60 105 61
3 63 106 64
3 107 108 109
3 69 110 70
3 72 111 73
3 75 112 60
3 76 71 70
3 78 113 79
