ply
format ascii 1.0
comment Created by Blender 2.79 (sub 0) - www.blender.org, source file: 'house.blend'
element vertex 96
property float x
property float y
property float z
property float nx
property float ny
property float nz
property float s
property float t
property uchar red
property uchar green
property uchar blue
element face 50
property list uchar uint vertex_indices
end_header
1.849010 1.200000 -2.218220 1.000000 0.000000 0.000000 0.031872 0.490259 0 0 0
1.849010 0.000000 1.458716 1.000000 0.000000 0.000000 1.506066 0.009143 0 0 0
1.849010 0.000000 -2.218220 1.000000 0.000000 0.000000 0.031872 0.009143 0 0 0
0.076654 2.200000 -2.218220 0.000000 0.000000 -1.000000 2.335856 0.891189 0 0 0
1.849010 1.200000 -2.218220 0.000000 0.000000 -1.000000 3.046446 0.490259 0 0 0
1.849010 0.000000 -2.218220 0.000000 0.000000 -1.000000 3.046446 0.009143 0 0 0
-1.695703 1.200000 1.458716 -1.000000 0.000000 -0.000000 -0.097653 0.490259 0 0 0
-1.695702 0.000000 -2.218221 -1.000000 0.000000 -0.000000 -1.571848 0.009143 0 0 0
-1.695703 0.000000 1.458716 -1.000000 0.000000 -0.000000 -0.097653 0.009143 0 0 0
0.076654 2.200000 1.458716 0.000000 0.000000 1.000000 -2.274839 0.891189 0 0 0
-1.695703 1.200000 1.458716 0.000000 0.000000 1.000000 -2.985430 0.490259 0 0 0
-1.695703 0.000000 1.458716 0.000000 0.000000 1.000000 -2.985430 0.009143 0 0 0
0.078447 2.118419 -2.506836 0.000000 -0.000000 -1.000000 2.369446 0.055195 255 255 255
-1.863209 1.254697 -2.506836 0.000000 -0.000000 -1.000000 2.538731 0.442424 255 255 255
0.078447 2.370689 -2.506836 0.000000 -0.000000 -1.000000 2.320002 0.055195 255 255 255
2.020103 1.002428 -2.506836 1.000000 -0.000000 0.000000 2.260890 1.369239 255 255 255
2.020103 1.254697 1.758450 1.000000 -0.000000 0.000000 2.211447 0.518602 255 255 255
2.020103 1.002428 1.758450 1.000000 -0.000000 0.000000 2.260890 0.518602 255 255 255
2.020103 1.254697 1.758450 0.498317 0.866995 0.000000 1.125150 0.529999 255 255 255
0.078447 2.370689 -2.506836 0.498317 0.866995 0.000000 1.477606 -0.332034 255 255 255
0.078447 2.370689 1.758450 0.498317 0.866995 0.000000 1.477606 0.517693 255 255 255
-1.863209 1.254697 1.758450 0.000000 0.000000 1.000000 2.538731 0.442424 255 255 255
0.078447 2.118419 1.758450 0.000000 0.000000 1.000000 2.369446 0.829654 255 255 255
0.078447 2.370689 1.758450 0.000000 0.000000 1.000000 2.320002 0.829654 255 255 255
0.078447 2.370689 1.758450 -0.498317 0.866995 0.000000 1.477606 0.517693 255 255 255
-1.863209 1.254697 -2.506836 -0.498317 0.866995 0.000000 1.881067 -0.323902 255 255 255
-1.863209 1.254697 1.758450 -0.498317 0.866995 0.000000 1.881067 0.525825 255 255 255
2.020103 1.254697 -2.506836 0.000000 0.000000 -1.000000 2.538730 -0.332034 255 255 255
2.020103 1.254697 1.758450 0.000000 0.000000 1.000000 2.538730 1.216883 255 255 255
2.020103 1.002428 1.758450 0.000000 0.000000 1.000000 2.588174 1.216883 255 255 255
-1.863209 1.254697 -2.506836 -1.000000 -0.000000 -0.000000 2.285529 1.369239 255 255 255
-1.863209 1.002428 1.758450 -1.000000 -0.000000 -0.000000 2.260890 0.518602 255 255 255
-1.863209 1.254697 1.758450 -1.000000 -0.000000 -0.000000 2.285529 0.518602 255 255 255
0.924634 1.644793 0.473638 1.000000 -0.000000 0.000000 1.212498 1.323031 255 255 255
0.924634 2.741343 0.827138 1.000000 -0.000000 0.000000 1.190678 1.392317 255 255 255
0.924634 1.644793 0.827138 1.000000 -0.000000 0.000000 1.190678 1.323031 255 255 255
-0.251221 1.982572 -1.980917 0.000000 0.000000 -1.000000 2.656523 0.834095 255 255 255
-1.461800 2.044209 -1.980917 0.000000 0.000000 -1.000000 2.622286 1.073313 255 255 255
-0.251221 2.158027 -1.980917 0.000000 0.000000 -1.000000 2.622286 0.830819 255 255 255
-1.461799 2.044209 -0.040792 0.000000 0.000000 1.000000 1.454442 1.223312 255 255 255
-0.251221 1.982572 -0.040792 0.000000 0.000000 1.000000 1.420205 0.984094 255 255 255
-0.251221 2.158027 -0.040792 0.000000 0.000000 1.000000 1.454442 0.980819 255 255 255
-0.251221 2.158027 -1.980917 -0.093607 0.995609 0.000000 1.698513 1.014520 255 255 255
-1.461799 2.044209 -0.040792 -0.093607 0.995609 0.000000 1.460263 0.530258 255 255 255
-0.251221 2.158027 -0.040792 -0.093607 0.995609 0.000000 1.698513 0.529999 255 255 255
-1.461800 2.044209 -1.980917 -1.000000 0.000000 0.000000 2.690504 0.549748 255 255 255
-1.461799 1.868753 -0.040792 -1.000000 0.000000 0.000000 2.707640 1.034787 255 255 255
-1.461799 2.044209 -0.040792 -1.000000 0.000000 0.000000 2.690504 1.034787 255 255 255
-0.143758 2.063206 -1.874988 0.000000 0.000000 -1.000000 2.690504 0.549748 255 255 255
-1.354336 1.341552 -1.874988 0.000000 0.000000 -1.000000 2.690504 0.830819 255 255 255
-1.354336 1.949388 -1.874988 0.000000 0.000000 -1.000000 2.588174 0.768748 255 255 255
-0.143758 2.063206 -0.146721 -0.000000 0.000000 1.000000 1.800843 1.150106 255 255 255
-1.354336 1.949388 -0.146721 -0.000000 0.000000 1.000000 1.698513 0.931106 255 255 255
-1.354336 1.341552 -0.146721 -0.000000 0.000000 1.000000 1.800843 0.869034 255 255 255
-0.143758 2.063206 -1.874988 -0.093607 0.995609 0.000000 2.826423 0.099577 255 255 255
-1.354336 1.949388 -0.146721 -0.093607 0.995609 0.000000 2.588174 -0.331775 255 255 255
-0.143758 2.063206 -0.146721 -0.093607 0.995609 0.000000 2.826423 -0.332034 255 255 255
-1.354336 1.949388 -1.874988 -1.000000 0.000000 0.000000 1.820629 0.529999 255 255 255
-1.354336 1.341552 -0.146721 -1.000000 0.000000 0.000000 1.879995 0.962073 255 255 255
-1.354336 1.949388 -0.146721 -1.000000 0.000000 0.000000 1.820629 0.962073 255 255 255
0.924634 1.644793 0.473638 0.000000 0.000000 -1.000000 1.142591 1.323031 255 255 255
0.499107 2.741343 0.473638 0.000000 0.000000 -1.000000 1.168857 1.392317 255 255 255
0.924634 2.741343 0.473638 0.000000 0.000000 -1.000000 1.142591 1.392317 255 255 255
0.499107 2.741343 0.827138 0.000000 0.000000 1.000000 1.142591 1.323031 255 255 255
0.924634 1.644793 0.827138 0.000000 0.000000 1.000000 1.116325 1.392317 255 255 255
0.924634 2.741343 0.827138 0.000000 0.000000 1.000000 1.116325 1.323031 255 255 255
0.924634 2.741343 0.827138 -0.000000 1.000000 0.000000 1.116325 1.392317 255 255 255
0.499107 2.741343 0.473638 -0.000000 1.000000 0.000000 1.138145 1.419204 255 255 255
0.499107 2.741343 0.827138 -0.000000 1.000000 0.000000 1.116325 1.419204 255 255 255
0.499107 2.741343 0.473638 -1.000000 -0.000000 -0.000000 1.168857 1.392317 255 255 255
0.499107 1.644793 0.827138 -1.000000 -0.000000 -0.000000 1.190678 1.323031 255 255 255
0.499107 2.741343 0.827138 -1.000000 -0.000000 -0.000000 1.190678 1.392317 255 255 255
1.849010 1.200000 1.458716 1.000000 -0.000000 0.000000 1.506066 0.490259 0 0 0
-1.695702 0.000000 -2.218221 0.000000 0.000000 -1.000000 1.625265 0.009143 0 0 0
-1.695702 1.200000 -2.218221 0.000000 0.000000 -1.000000 1.625265 0.490259 0 0 0
-1.695702 1.200000 -2.218221 -1.000000 0.000000 -0.000000 -1.571848 0.490259 0 0 0
1.849010 0.000000 1.458716 -0.000000 0.000000 1.000000 -1.564249 0.009143 0 0 0
1.849010 1.200000 1.458716 -0.000000 0.000000 1.000000 -1.564249 0.490259 0 0 0
-1.863209 1.002428 -2.506836 0.000000 0.000000 -1.000000 2.588174 0.442424 255 255 255
2.020103 1.254697 -2.506836 1.000000 0.000000 0.000000 2.211447 1.369239 255 255 255
2.020103 1.254697 -2.506836 0.498317 0.866995 -0.000000 1.125150 -0.319728 255 255 255
-1.863209 1.002428 1.758450 0.000000 -0.000000 1.000000 2.588174 0.442424 255 255 255
0.078447 2.370689 -2.506836 -0.498317 0.866995 -0.000000 1.477606 -0.332034 255 255 255
2.020103 1.002428 -2.506836 0.000000 0.000000 -1.000000 2.588174 -0.332034 255 255 255
-1.863209 1.002428 -2.506836 -1.000000 0.000000 0.000000 2.260890 1.369239 255 255 255
0.924634 2.741343 0.473638 1.000000 0.000000 0.000000 1.212498 1.392317 255 255 255
-1.461800 1.868753 -1.980917 0.000000 0.000000 -1.000000 2.656523 1.076588 255 255 255
-1.461799 1.868753 -0.040792 0.000000 -0.000000 1.000000 1.420205 1.226587 255 255 255
-1.461800 2.044209 -1.980917 -0.093607 0.995609 0.000000 1.460263 1.014779 255 255 255
-1.461800 1.868753 -1.980917 -1.000000 0.000000 0.000000 2.707640 0.549748 255 255 255
-1.354336 1.949388 -1.874988 -0.093607 0.995609 0.000000 2.588174 0.099837 255 255 255
-1.354336 1.341552 -1.874988 -1.000000 0.000000 0.000000 1.879995 0.529999 255 255 255
0.499107 1.644793 0.473638 0.000000 0.000000 -1.000000 1.168857 1.323031 255 255 255
0.499107 1.644793 0.827138 0.000000 -0.000000 1.000000 1.142591 1.392317 255 255 255
0.924634 2.741343 0.473638 0.000000 1.000000 -0.000000 1.138145 1.392317 255 255 255
0.499107 1.644793 0.473638 -1.000000 0.000000 -0.000000 1.168857 1.323031 255 255 255
3 0 1 2
3 3 4 5
3 6 7 8
3 9 10 11
3 12 13 14
3 15 16 17
3 18 19 20
3 21 22 23
3 24 25 26
3 27 12 14
3 28 22 29
3 30 31 32
3 33 34 35
3 36 37 38
3 39 40 41
3 42 43 44
3 45 46 47
3 48 49 50
3 51 52 53
3 54 55 56
3 57 58 59
3 60 61 62
3 63 64 65
3 66 67 68
3 69 70 71
3 0 72 1
3 5 73 3
3 73 74 3
3 6 75 7
3 11 76 9
3 76 77 9
3 12 78 13
3 15 79 16
3 18 80 19
3 21 81 22
3 24 82 25
3 27 83 12
3 28 23 22
3 30 84 31
3 33 85 34
3 36 86 37
3 39 87 40
3 42 88 43
3 45 89 46
3 54 90 55
3 57 91 58
3 60 92 61
3 63 93 64
3 66 94 67
3 69 95 70
