ply
format ascii 1.0
comment Created by Blender 2.79 (sub 0) - www.blender.org, source file: 'house.blend'
element vertex 120
property float x
property float y
property float z
property float nx
property float ny
property float nz
property float s
property float t
property uchar red
property uchar green
property uchar blue
element face 66
property list uchar uint vertex_indices
end_header
-0.478392 1.792886 -2.122784 -0.000000 0.000000 -1.000000 1.511036 -1.207516 255 255 255
-1.879176 1.128082 -2.122783 -0.000000 0.000000 -1.000000 1.858146 -1.427500 255 255 255
-0.478392 1.987058 -2.122784 -0.000000 0.000000 -1.000000 1.511036 -1.143265 255 255 255
0.922392 0.933910 -2.122784 1.000000 0.000000 -0.000000 1.163926 -0.476213 255 255 255
0.922393 1.128082 2.154135 1.000000 0.000000 -0.000000 0.104119 -0.435158 255 255 255
0.922393 0.933910 2.154135 1.000000 0.000000 -0.000000 0.104119 -0.476213 255 255 255
0.922393 1.128082 2.154135 0.522753 0.852484 -0.000000 0.104119 -0.435158 255 255 255
-0.478392 1.987058 -2.122784 0.522753 0.852484 -0.000000 1.163926 0.009672 255 255 255
-0.478391 1.987058 2.154135 0.522753 0.852484 -0.000000 0.104119 0.009672 255 255 255
-1.698367 1.080720 -1.777003 -0.000000 0.000000 -1.000000 -1.205637 0.486870 0 0 0
-0.478392 0.000000 -1.777003 -0.000000 0.000000 -1.000000 -1.553091 0.021453 0 0 0
-1.698367 0.000000 -1.777003 -0.000000 0.000000 -1.000000 -1.205637 0.021453 0 0 0
-1.698366 1.080720 1.882922 -1.000000 0.000000 0.000000 -0.215340 0.486870 0 0 0
-1.698367 0.000000 -1.777003 -1.000000 0.000000 0.000000 -1.205637 0.021453 0 0 0
-1.698366 0.000000 1.882922 -1.000000 0.000000 0.000000 -0.215340 0.021453 0 0 0
-0.478391 0.000000 1.882922 0.000000 -0.000000 1.000000 0.043357 0.021453 0 0 0
-1.698366 1.080720 1.882922 0.000000 -0.000000 1.000000 -0.215340 0.486870 0 0 0
-1.698366 0.000000 1.882922 0.000000 -0.000000 1.000000 -0.215340 0.021453 0 0 0
-0.478392 1.792886 -2.122784 -0.522753 -0.852484 0.000000 2.070844 0.184417 255 255 255
0.922393 0.933910 2.154135 -0.522753 -0.852484 0.000000 1.011037 0.629248 255 255 255
-0.478391 1.792886 2.154135 -0.522753 -0.852484 0.000000 1.011037 0.184418 255 255 255
-1.879175 1.128082 2.154135 -0.000000 0.000000 1.000000 0.104119 -1.246334 255 255 255
-0.478391 1.792886 2.154135 -0.000000 0.000000 1.000000 0.451228 -1.026350 255 255 255
-0.478391 1.987058 2.154135 -0.000000 0.000000 1.000000 0.451228 -0.962098 255 255 255
-0.478392 1.987058 -2.122784 -0.522753 0.852484 0.000000 1.163926 -0.962098 255 255 255
-1.879175 1.128082 2.154135 -0.522753 0.852484 0.000000 0.104119 -0.517268 255 255 255
-0.478391 1.987058 2.154135 -0.522753 0.852484 0.000000 0.104119 -0.962098 255 255 255
0.922392 1.128082 -2.122784 -0.000000 -0.000000 -1.000000 1.163926 -1.427500 255 255 255
0.922393 1.128082 2.154135 0.000000 0.000000 1.000000 0.798339 -1.246334 255 255 255
0.922393 0.933910 2.154135 0.000000 0.000000 1.000000 0.798339 -1.310585 255 255 255
-1.879176 1.128082 -2.122783 -1.000000 0.000000 0.000000 1.163926 -0.517268 255 255 255
-1.879175 0.933910 2.154135 -1.000000 0.000000 0.000000 0.104119 -0.476213 255 255 255
-1.879175 1.128082 2.154135 -1.000000 0.000000 0.000000 0.104119 -0.517268 255 255 255
0.741583 1.080720 0.052959 1.000000 0.000000 -0.000000 0.696945 0.486870 0 0 0
0.741584 0.000000 1.882921 1.000000 0.000000 -0.000000 0.356497 0.021453 0 0 0
0.741583 0.000000 0.052959 1.000000 0.000000 -0.000000 0.696945 0.021453 0 0 0
0.741584 1.080720 1.882921 0.000000 0.000000 1.000000 0.356497 0.486870 0 0 0
-0.478391 1.872395 1.882922 0.000000 0.000000 1.000000 0.043357 0.827808 0 0 0
1.961558 1.080720 -1.777004 1.000000 0.000000 -0.000000 1.579677 0.486870 0 0 0
1.961558 0.000000 -0.862023 1.000000 0.000000 -0.000000 1.304083 0.021453 0 0 0
1.961558 0.000000 -1.777004 1.000000 0.000000 -0.000000 1.579677 0.021453 0 0 0
-0.478392 0.000000 -1.777003 -0.000000 0.000000 -1.000000 2.531147 0.021453 0 0 0
0.741583 1.080720 -1.777004 -0.000000 0.000000 -1.000000 1.909835 0.486870 0 0 0
0.741583 0.000000 -1.777004 -0.000000 0.000000 -1.000000 1.909835 0.021453 0 0 0
1.961558 1.080720 0.052959 1.000000 0.000000 -0.000000 0.993899 0.486870 0 0 0
1.961558 0.000000 0.052959 1.000000 0.000000 -0.000000 0.993899 0.021453 0 0 0
1.961558 0.000000 -1.777004 0.000000 0.000000 -1.000000 1.579677 0.021453 0 0 0
0.741583 0.000000 0.052959 0.000000 0.000000 1.000000 0.696945 0.021453 0 0 0
1.961558 1.080720 0.052959 0.000000 0.000000 1.000000 0.993899 0.486870 0 0 0
0.741583 1.080720 0.052959 0.000000 0.000000 1.000000 0.696945 0.486870 0 0 0
-0.364561 1.315092 -0.855637 -1.000000 0.000000 0.000000 1.926185 0.075305 255 255 255
-0.364561 1.071383 0.284310 -1.000000 0.000000 0.000000 1.643263 0.042887 255 255 255
-0.364561 1.541210 -0.855637 -1.000000 0.000000 0.000000 1.934383 0.042887 255 255 255
0.797396 0.845266 -1.995584 -0.000000 0.000000 -1.000000 1.322970 0.184417 255 255 255
2.153743 1.071383 -1.995584 -0.000000 0.000000 -1.000000 1.644722 0.075305 255 255 255
2.153743 0.845266 -1.995584 -0.000000 0.000000 -1.000000 1.653947 0.126795 255 255 255
0.797396 1.071383 -1.995584 -0.000000 0.924553 -0.381052 1.943499 0.009672 255 255 255
2.153743 1.541210 -0.855638 -0.000000 0.924553 -0.381052 2.272456 -0.268788 255 255 255
2.153743 1.071383 -1.995584 -0.000000 0.924553 -0.381052 2.202035 0.009672 255 255 255
2.153743 1.071383 0.284309 1.000000 0.000000 -0.000000 1.714366 -1.143265 255 255 255
2.153743 1.315092 -0.855638 1.000000 0.000000 -0.000000 1.677837 -0.864805 255 255 255
2.153743 1.541210 -0.855638 1.000000 0.000000 -0.000000 1.643945 -0.864805 255 255 255
-0.364561 1.541210 -0.855637 0.000000 0.924553 0.381052 1.163926 -0.864805 255 255 255
2.153743 1.071383 0.284309 0.000000 0.924553 0.381052 1.714366 -1.143265 255 255 255
2.153743 1.541210 -0.855638 0.000000 0.924553 0.381052 1.643945 -0.864805 255 255 255
0.797396 1.071383 -1.995584 -0.700313 -0.000000 -0.713835 1.313745 0.132927 255 255 255
-0.364561 1.315092 -0.855637 -0.700313 -0.000000 -0.713835 1.020262 0.126795 255 255 255
-0.364561 1.541210 -0.855637 -0.700313 -0.000000 -0.713835 1.011037 0.075305 255 255 255
2.153743 1.071383 -1.995584 1.000000 0.000000 -0.000000 1.714366 -0.586345 255 255 255
2.153743 0.845266 -1.995584 1.000000 0.000000 -0.000000 1.748258 -0.586345 255 255 255
-0.364561 1.071383 0.284310 0.000000 0.000000 1.000000 1.635064 0.023018 255 255 255
2.153743 0.845266 0.284309 0.000000 0.000000 1.000000 1.011037 0.075305 255 255 255
2.153743 1.071383 0.284309 0.000000 0.000000 1.000000 1.011037 0.023018 255 255 255
0.277533 2.407626 -0.018058 -1.000000 0.000000 0.000000 0.000000 0.000000 255 255 255
0.277533 1.185784 -0.261821 -1.000000 0.000000 0.000000 0.000000 0.000000 255 255 255
0.277533 1.185784 -0.018058 -1.000000 0.000000 0.000000 0.000000 0.000000 255 255 255
0.277533 2.407626 -0.261821 0.000000 0.000000 -1.000000 0.000000 0.000000 255 255 255
0.521295 1.185784 -0.261821 0.000000 0.000000 -1.000000 0.000000 0.000000 255 255 255
0.277533 1.185784 -0.261821 0.000000 0.000000 -1.000000 0.000000 0.000000 255 255 255
0.521295 2.407626 -0.261821 1.000000 0.000000 0.000000 0.000000 0.000000 255 255 255
0.521295 1.185784 -0.018058 1.000000 0.000000 0.000000 0.000000 0.000000 255 255 255
0.521295 1.185784 -0.261821 1.000000 0.000000 0.000000 0.000000 0.000000 255 255 255
0.521295 2.407626 -0.018058 -0.000000 0.000000 1.000000 0.000000 0.000000 255 255 255
0.277533 1.185784 -0.018058 -0.000000 0.000000 1.000000 0.000000 0.000000 255 255 255
0.521295 1.185784 -0.018058 -0.000000 0.000000 1.000000 0.000000 0.000000 255 255 255
0.521295 1.185784 -0.261821 0.000000 -1.000000 0.000000 0.000000 0.000000 255 255 255
0.277533 1.185784 -0.018058 0.000000 -1.000000 0.000000 0.000000 0.000000 255 255 255
0.277533 1.185784 -0.261821 0.000000 -1.000000 0.000000 0.000000 0.000000 255 255 255
0.521295 2.407626 -0.261821 0.000000 1.000000 0.000000 0.000000 0.000000 255 255 255
0.277533 2.407626 -0.018058 0.000000 1.000000 0.000000 0.000000 0.000000 255 255 255
0.521295 2.407626 -0.018058 0.000000 1.000000 0.000000 0.000000 0.000000 255 255 255
-1.879176 0.933910 -2.122783 -0.000000 -0.000000 -1.000000 1.858146 -1.491751 255 255 255
0.922392 1.128082 -2.122784 1.000000 0.000000 -0.000000 1.163926 -0.435158 255 255 255
0.922392 1.128082 -2.122784 0.522753 0.852484 -0.000000 1.163926 -0.435158 255 255 255
-0.478392 1.872395 -1.777003 -0.000000 0.000000 -1.000000 -1.553091 0.827808 0 0 0
-1.698367 1.080720 -1.777003 -1.000000 0.000000 0.000000 -1.205637 0.486870 0 0 0
0.922392 0.933910 -2.122784 -0.522753 -0.852484 0.000000 2.070844 0.629247 255 255 255
-1.879175 0.933910 2.154135 -0.000000 0.000000 1.000000 0.104119 -1.310585 255 255 255
-1.879176 1.128082 -2.122783 -0.522753 0.852484 0.000000 1.163926 -0.517268 255 255 255
0.922392 0.933910 -2.122784 -0.000000 0.000000 -1.000000 1.163926 -1.491751 255 255 255
-1.879176 0.933910 -2.122783 -1.000000 0.000000 0.000000 1.163926 -0.476213 255 255 255
0.741584 1.080720 1.882921 1.000000 0.000000 -0.000000 0.356497 0.486870 0 0 0
0.741584 0.000000 1.882921 0.000000 0.000000 1.000000 0.356497 0.021453 0 0 0
1.961558 1.398862 -0.862023 1.000000 0.000000 -0.000000 1.304083 0.623879 0 0 0
-0.478392 1.872395 -1.777003 -0.000000 -0.000000 -1.000000 2.531147 0.827808 0 0 0
1.961558 1.080720 -1.777004 0.000000 0.000000 -1.000000 1.579677 0.486870 0 0 0
1.961558 0.000000 0.052959 0.000000 0.000000 1.000000 0.993899 0.021453 0 0 0
-0.364561 0.845266 0.284310 -1.000000 0.000000 0.000000 1.635064 0.075305 255 255 255
0.797396 1.071383 -1.995584 -0.000000 -0.000000 -1.000000 1.313745 0.132927 255 255 255
-0.364561 1.541210 -0.855637 -0.000000 0.924553 -0.381052 1.792436 -0.268788 255 255 255
2.153743 0.845266 0.284309 1.000000 0.000000 -0.000000 1.748258 -1.143265 255 255 255
-0.364561 1.071383 0.284310 0.000000 0.924553 0.381052 1.234347 -1.143264 255 255 255
0.797396 0.845266 -1.995584 -0.700313 0.000000 -0.713835 1.322970 0.184417 255 255 255
-0.364561 0.845266 0.284310 0.000000 -0.000000 1.000000 1.635064 0.075305 255 255 255
0.277533 2.407626 -0.261821 -1.000000 0.000000 0.000000 0.000000 0.000000 255 255 255
0.521295 2.407626 -0.261821 0.000000 0.000000 -1.000000 0.000000 0.000000 255 255 255
0.521295 2.407626 -0.018058 1.000000 -0.000000 0.000000 0.000000 0.000000 255 255 255
0.277533 2.407626 -0.018058 -0.000000 0.000000 1.000000 0.000000 0.000000 255 255 255
0.521295 1.185784 -0.018058 0.000000 -1.000000 0.000000 0.000000 0.000000 255 255 255
0.277533 2.407626 -0.261821 -0.000000 1.000000 0.000000 0.000000 0.000000 255 255 255
3 0 1 2
3 3 4 5
3 6 7 8
3 9 10 11
3 12 13 14
3 15 16 17
3 18 19 20
3 21 22 23
3 24 25 26
3 27 0 2
3 28 22 29
3 30 31 32
3 33 34 35
3 15 36 37
3 38 39 40
3 41 42 43
3 39 44 45
3 42 46 43
3 47 48 49
3 50 51 52
3 53 54 55
3 56 57 58
3 59 60 61
3 62 63 64
3 65 66 67
3 68 60 69
3 70 71 72
3 73 74 75
3 76 77 78
3 79 80 81
3 82 83 84
3 85 86 87
3 88 89 90
3 0 91 1
3 3 92 4
3 6 93 7
3 9 94 10
3 12 95 13
3 15 37 16
3 18 96 19
3 21 97 22
3 24 98 25
3 27 99 0
3 28 23 22
3 30 100 31
3 33 101 34
3 15 102 36
3 38 103 39
3 41 104 42
3 39 103 44
3 42 105 46
3 47 106 48
3 50 107 51
3 53 108 54
3 56 109 57
3 59 110 60
3 62 111 63
3 65 112 66
3 68 61 60
3 70 113 71
3 73 114 74
3 76 115 77
3 79 116 80
3 82 117 83
3 85 118 86
3 88 119 89
