ply
format ascii 1.0
comment Created by Blender 2.78 (sub 0) - www.blender.org, source file: 'powertowers.blend'
element vertex 191
property float x
property float y
property float z
property float nx
property float ny
property float nz
property float s
property float t
property uchar red
property uchar green
property uchar blue
element face 120
property list uchar uint vertex_indices
end_header
0.000000 36.000000 0.000000 0.000000 1.000000 -0.000000 0.250000 0.250000 150 145 150
0.353553 36.000000 -0.353553 0.000000 1.000000 -0.000000 0.419706 0.419706 150 145 150
0.000000 36.000000 -0.500000 0.000000 1.000000 -0.000000 0.250000 0.490000 150 145 150
0.000000 36.000000 -0.500000 0.382683 0.000000 -0.923879 0.125000 4.750000 150 145 150
0.353553 0.000000 -0.353553 0.382683 0.000000 -0.923879 0.000000 -3.250000 150 145 150
0.000000 0.000000 -0.500000 0.382683 0.000000 -0.923879 0.125000 -3.250000 150 145 150
0.500000 36.000000 0.000000 0.000000 1.000000 -0.000000 0.490000 0.250000 150 145 150
0.353553 36.000000 -0.353553 0.923880 0.000000 -0.382683 0.250000 4.750000 150 145 150
0.500000 0.000000 0.000000 0.923880 0.000000 -0.382683 0.125000 -3.250000 150 145 150
0.353553 0.000000 -0.353553 0.923880 0.000000 -0.382683 0.250000 -3.250000 150 145 150
0.353553 36.000000 0.353553 0.000000 1.000000 0.000000 0.419706 0.080294 150 145 150
0.500000 36.000000 0.000000 0.923880 0.000000 0.382683 0.375000 4.750000 150 145 150
0.353553 0.000000 0.353553 0.923880 0.000000 0.382683 0.250000 -3.250000 150 145 150
0.500000 0.000000 0.000000 0.923880 0.000000 0.382683 0.375000 -3.250000 150 145 150
-0.000000 36.000000 0.500000 0.000000 1.000000 0.000000 0.250000 0.010000 150 145 150
0.353553 36.000000 0.353553 0.382683 0.000000 0.923880 0.500000 4.750000 150 145 150
-0.000000 0.000000 0.500000 0.382683 0.000000 0.923880 0.375000 -3.250000 150 145 150
0.353553 0.000000 0.353553 0.382683 0.000000 0.923880 0.500000 -3.250000 150 145 150
-0.353553 36.000000 0.353553 0.000000 1.000000 0.000000 0.080294 0.080294 150 145 150
-0.000000 36.000000 0.500000 -0.382684 0.000000 0.923880 0.625000 4.750000 150 145 150
-0.353553 0.000000 0.353553 -0.382684 0.000000 0.923880 0.500000 -3.250000 150 145 150
-0.000000 0.000000 0.500000 -0.382684 0.000000 0.923880 0.625000 -3.250000 150 145 150
-0.500000 36.000000 -0.000000 -0.000000 1.000000 0.000000 0.010000 0.250000 150 145 150
-0.353553 36.000000 0.353553 -0.923880 0.000000 0.382683 0.750000 4.750000 150 145 150
-0.500000 0.000000 -0.000000 -0.923880 0.000000 0.382683 0.625000 -3.250000 150 145 150
-0.353553 0.000000 0.353553 -0.923880 0.000000 0.382683 0.750000 -3.250000 150 145 150
-0.353553 36.000000 -0.353553 -0.000000 1.000000 0.000000 0.080294 0.419706 150 145 150
-0.500000 36.000000 -0.000000 -0.923880 0.000000 -0.382683 0.875000 4.750000 150 145 150
-0.353553 0.000000 -0.353553 -0.923880 0.000000 -0.382683 0.750000 -3.250000 150 145 150
-0.500000 0.000000 -0.000000 -0.923880 0.000000 -0.382683 0.875000 -3.250000 150 145 150
-0.353553 36.000000 -0.353553 -0.382684 0.000000 -0.923879 1.000000 4.750000 150 145 150
0.000000 0.000000 -0.500000 -0.382684 0.000000 -0.923879 0.875000 -3.250000 150 145 150
-0.353553 0.000000 -0.353553 -0.382684 0.000000 -0.923879 1.000000 -3.250000 150 145 150
-7.171540 27.645782 0.000001 -1.000000 0.000000 0.000000 0.750000 0.250000 36 34 36
-7.171540 27.645782 -0.249999 -1.000000 0.000000 0.000000 0.750000 0.490000 36 34 36
-7.171540 27.469006 -0.176776 -1.000000 0.000000 0.000000 0.919706 0.419706 36 34 36
7.171540 27.645782 -0.000001 1.000000 0.000000 -0.000000 0.250000 0.250000 36 34 36
7.171540 27.469006 -0.176778 1.000000 0.000000 -0.000000 0.419706 0.419706 36 34 36
7.171540 27.645782 -0.250001 1.000000 0.000000 -0.000000 0.250000 0.490000 36 34 36
7.171540 27.645782 -0.250001 -0.000000 -0.382683 -0.923880 0.125000 2.750000 36 34 36
-7.171540 27.469006 -0.176776 -0.000000 -0.382683 -0.923880 0.000000 -1.250000 36 34 36
-7.171540 27.645782 -0.249999 -0.000000 -0.382683 -0.923880 0.125000 -1.250000 36 34 36
-7.171540 27.395782 0.000001 -1.000000 0.000000 0.000000 0.990000 0.250000 36 34 36
7.171540 27.395782 -0.000001 1.000000 0.000000 -0.000000 0.490000 0.250000 36 34 36
7.171540 27.469006 -0.176778 -0.000000 -0.923880 -0.382683 0.250000 2.750000 36 34 36
-7.171540 27.395782 0.000001 -0.000000 -0.923880 -0.382683 0.125000 -1.250000 36 34 36
-7.171540 27.469006 -0.176776 -0.000000 -0.923880 -0.382683 0.250000 -1.250000 36 34 36
-7.171540 27.469006 0.176778 -1.000000 0.000000 -0.000000 0.919706 0.080294 36 34 36
7.171540 27.469006 0.176775 1.000000 -0.000000 0.000000 0.419706 0.080294 36 34 36
7.171540 27.395782 -0.000001 0.000000 -0.923880 0.382683 0.375000 2.750000 36 34 36
-7.171540 27.469006 0.176778 0.000000 -0.923880 0.382683 0.250000 -1.250000 36 34 36
-7.171540 27.395782 0.000001 0.000000 -0.923880 0.382683 0.375000 -1.250000 36 34 36
-7.171540 27.645782 0.250001 -1.000000 0.000000 -0.000000 0.750000 0.010000 36 34 36
7.171540 27.645782 0.249999 1.000000 -0.000000 0.000000 0.250000 0.010000 36 34 36
7.171540 27.469006 0.176775 0.000000 -0.382683 0.923880 0.500000 2.750000 36 34 36
-7.171540 27.645782 0.250001 0.000000 -0.382683 0.923880 0.375000 -1.250000 36 34 36
-7.171540 27.469006 0.176778 0.000000 -0.382683 0.923880 0.500000 -1.250000 36 34 36
-7.171540 27.822559 0.176778 -1.000000 -0.000000 -0.000000 0.580294 0.080294 36 34 36
7.171540 27.822559 0.176775 1.000000 0.000000 0.000000 0.080294 0.080294 36 34 36
7.171540 27.645782 0.249999 0.000000 0.382683 0.923880 0.625000 2.750000 36 34 36
-7.171540 27.822559 0.176778 0.000000 0.382683 0.923880 0.500000 -1.250000 36 34 36
-7.171540 27.645782 0.250001 0.000000 0.382683 0.923880 0.625000 -1.250000 36 34 36
-7.171540 27.895782 0.000001 -1.000000 -0.000000 0.000000 0.510000 0.250000 36 34 36
7.171540 27.895782 -0.000001 1.000000 0.000000 0.000000 0.010000 0.250000 36 34 36
7.171540 27.822559 0.176775 0.000000 0.923880 0.382683 0.750000 2.750000 36 34 36
-7.171540 27.895782 0.000001 0.000000 0.923880 0.382683 0.625000 -1.250000 36 34 36
-7.171540 27.822559 0.176778 0.000000 0.923880 0.382683 0.750000 -1.250000 36 34 36
-7.171540 27.822559 -0.176775 -1.000000 -0.000000 0.000000 0.580294 0.419706 36 34 36
7.171540 27.822559 -0.176778 1.000000 0.000000 0.000000 0.080294 0.419706 36 34 36
7.171540 27.895782 -0.000001 -0.000000 0.923880 -0.382683 0.875000 2.750000 36 34 36
-7.171540 27.822559 -0.176775 -0.000000 0.923880 -0.382683 0.750000 -1.250000 36 34 36
-7.171540 27.895782 0.000001 -0.000000 0.923880 -0.382683 0.875000 -1.250000 36 34 36
7.171540 27.822559 -0.176778 -0.000000 0.382683 -0.923880 1.000000 2.750000 36 34 36
-7.171540 27.645782 -0.249999 -0.000000 0.382683 -0.923880 0.875000 -1.250000 36 34 36
-7.171540 27.822559 -0.176775 -0.000000 0.382683 -0.923880 1.000000 -1.250000 36 34 36
-5.020078 32.415676 0.000001 -1.000000 0.000000 0.000000 0.750000 0.250000 36 34 36
-5.020078 32.415676 -0.249999 -1.000000 0.000000 0.000000 0.750000 0.490000 36 34 36
-5.020078 32.238899 -0.176776 -1.000000 0.000000 0.000000 0.919706 0.419706 36 34 36
5.020078 32.415676 -0.000001 1.000000 0.000000 -0.000000 0.250000 0.250000 36 34 36
5.020078 32.238899 -0.176778 1.000000 0.000000 -0.000000 0.419706 0.419706 36 34 36
5.020078 32.415676 -0.250001 1.000000 0.000000 -0.000000 0.250000 0.490000 36 34 36
5.020078 32.415676 -0.250001 -0.000000 -0.382683 -0.923880 0.125000 2.750000 36 34 36
-5.020078 32.238899 -0.176776 -0.000000 -0.382683 -0.923880 0.000000 -1.250000 36 34 36
-5.020078 32.415676 -0.249999 -0.000000 -0.382683 -0.923880 0.125000 -1.250000 36 34 36
-5.020078 32.165676 0.000001 -1.000000 0.000000 0.000000 0.990000 0.250000 36 34 36
5.020078 32.165676 -0.000001 1.000000 0.000000 -0.000000 0.490000 0.250000 36 34 36
5.020078 32.238899 -0.176778 -0.000000 -0.923880 -0.382683 0.250000 2.750000 36 34 36
-5.020078 32.165676 0.000001 -0.000000 -0.923880 -0.382683 0.125000 -1.250000 36 34 36
-5.020078 32.238899 -0.176776 -0.000000 -0.923880 -0.382683 0.250000 -1.250000 36 34 36
-5.020078 32.238899 0.176778 -1.000000 0.000000 -0.000000 0.919706 0.080294 36 34 36
5.020078 32.238899 0.176775 1.000000 -0.000000 0.000000 0.419706 0.080294 36 34 36
5.020078 32.165676 -0.000001 0.000000 -0.923880 0.382683 0.375000 2.750000 36 34 36
-5.020078 32.238899 0.176778 0.000000 -0.923880 0.382683 0.250000 -1.250000 36 34 36
-5.020078 32.165676 0.000001 0.000000 -0.923880 0.382683 0.375000 -1.250000 36 34 36
-5.020078 32.415676 0.250001 -1.000000 0.000000 -0.000000 0.750000 0.010000 36 34 36
5.020078 32.415676 0.249999 1.000000 -0.000000 0.000000 0.250000 0.010000 36 34 36
5.020078 32.238899 0.176775 0.000000 -0.382683 0.923880 0.500000 2.750000 36 34 36
-5.020078 32.415676 0.250001 0.000000 -0.382683 0.923880 0.375000 -1.250000 36 34 36
-5.020078 32.238899 0.176778 0.000000 -0.382683 0.923880 0.500000 -1.250000 36 34 36
-5.020078 32.592453 0.176778 -1.000000 -0.000000 -0.000000 0.580294 0.080294 36 34 36
5.020078 32.592453 0.176775 1.000000 0.000000 0.000000 0.080294 0.080294 36 34 36
5.020078 32.415676 0.249999 0.000000 0.382683 0.923880 0.625000 2.750000 36 34 36
-5.020078 32.592453 0.176778 0.000000 0.382683 0.923880 0.500000 -1.250000 36 34 36
-5.020078 32.415676 0.250001 0.000000 0.382683 0.923880 0.625000 -1.250000 36 34 36
-5.020078 32.665676 0.000001 -1.000000 -0.000000 0.000000 0.510000 0.250000 36 34 36
5.020078 32.665676 -0.000001 1.000000 0.000000 0.000000 0.010000 0.250000 36 34 36
5.020078 32.592453 0.176775 0.000000 0.923880 0.382683 0.750000 2.750000 36 34 36
-5.020078 32.665676 0.000001 0.000000 0.923880 0.382683 0.625000 -1.250000 36 34 36
-5.020078 32.592453 0.176778 0.000000 0.923880 0.382683 0.750000 -1.250000 36 34 36
-5.020078 32.592453 -0.176775 -1.000000 -0.000000 0.000000 0.580294 0.419706 36 34 36
5.020078 32.592453 -0.176778 1.000000 0.000000 0.000000 0.080294 0.419706 36 34 36
5.020078 32.665676 -0.000001 -0.000000 0.923880 -0.382683 0.875000 2.750000 36 34 36
-5.020078 32.592453 -0.176775 -0.000000 0.923880 -0.382683 0.750000 -1.250000 36 34 36
-5.020078 32.665676 0.000001 -0.000000 0.923880 -0.382683 0.875000 -1.250000 36 34 36
5.020078 32.592453 -0.176778 -0.000000 0.382683 -0.923880 1.000000 2.750000 36 34 36
-5.020078 32.415676 -0.249999 -0.000000 0.382683 -0.923880 0.875000 -1.250000 36 34 36
-5.020078 32.592453 -0.176775 -0.000000 0.382683 -0.923880 1.000000 -1.250000 36 34 36
-5.020078 22.981888 0.000001 -1.000000 0.000000 0.000000 0.750000 0.250000 36 34 36
-5.020078 22.981888 -0.249999 -1.000000 0.000000 0.000000 0.750000 0.490000 36 34 36
-5.020078 22.805111 -0.176776 -1.000000 0.000000 0.000000 0.919706 0.419706 36 34 36
5.020078 22.981888 -0.000001 1.000000 0.000000 -0.000000 0.250000 0.250000 36 34 36
5.020078 22.805111 -0.176778 1.000000 0.000000 -0.000000 0.419706 0.419706 36 34 36
5.020078 22.981888 -0.250001 1.000000 0.000000 -0.000000 0.250000 0.490000 36 34 36
5.020078 22.981888 -0.250001 -0.000000 -0.382683 -0.923880 0.125000 2.750000 36 34 36
-5.020078 22.805111 -0.176776 -0.000000 -0.382683 -0.923880 0.000000 -1.250000 36 34 36
-5.020078 22.981888 -0.249999 -0.000000 -0.382683 -0.923880 0.125000 -1.250000 36 34 36
-5.020078 22.731888 0.000001 -1.000000 0.000000 0.000000 0.990000 0.250000 36 34 36
5.020078 22.731888 -0.000001 1.000000 0.000000 -0.000000 0.490000 0.250000 36 34 36
5.020078 22.805111 -0.176778 -0.000000 -0.923880 -0.382683 0.250000 2.750000 36 34 36
-5.020078 22.731888 0.000001 -0.000000 -0.923880 -0.382683 0.125000 -1.250000 36 34 36
-5.020078 22.805111 -0.176776 -0.000000 -0.923880 -0.382683 0.250000 -1.250000 36 34 36
-5.020078 22.805111 0.176778 -1.000000 0.000000 -0.000000 0.919706 0.080294 36 34 36
5.020078 22.805111 0.176775 1.000000 -0.000000 0.000000 0.419706 0.080294 36 34 36
5.020078 22.731888 -0.000001 0.000000 -0.923880 0.382683 0.375000 2.750000 36 34 36
-5.020078 22.805111 0.176778 0.000000 -0.923880 0.382683 0.250000 -1.250000 36 34 36
-5.020078 22.731888 0.000001 0.000000 -0.923880 0.382683 0.375000 -1.250000 36 34 36
-5.020078 22.981888 0.250001 -1.000000 0.000000 -0.000000 0.750000 0.010000 36 34 36
5.020078 22.981888 0.249999 1.000000 -0.000000 0.000000 0.250000 0.010000 36 34 36
5.020078 22.805111 0.176775 0.000000 -0.382683 0.923880 0.500000 2.750000 36 34 36
-5.020078 22.981888 0.250001 0.000000 -0.382683 0.923880 0.375000 -1.250000 36 34 36
-5.020078 22.805111 0.176778 0.000000 -0.382683 0.923880 0.500000 -1.250000 36 34 36
-5.020078 23.158665 0.176778 -1.000000 -0.000000 -0.000000 0.580294 0.080294 36 34 36
5.020078 23.158665 0.176775 1.000000 0.000000 0.000000 0.080294 0.080294 36 34 36
5.020078 22.981888 0.249999 0.000000 0.382683 0.923880 0.625000 2.750000 36 34 36
-5.020078 23.158665 0.176778 0.000000 0.382683 0.923880 0.500000 -1.250000 36 34 36
-5.020078 22.981888 0.250001 0.000000 0.382683 0.923880 0.625000 -1.250000 36 34 36
-5.020078 23.231888 0.000001 -1.000000 -0.000000 0.000000 0.510000 0.250000 36 34 36
5.020078 23.231888 -0.000001 1.000000 0.000000 0.000000 0.010000 0.250000 36 34 36
5.020078 23.158665 0.176775 0.000000 0.923880 0.382683 0.750000 2.750000 36 34 36
-5.020078 23.231888 0.000001 0.000000 0.923880 0.382683 0.625000 -1.250000 36 34 36
-5.020078 23.158665 0.176778 0.000000 0.923880 0.382683 0.750000 -1.250000 36 34 36
-5.020078 23.158665 -0.176775 -1.000000 -0.000000 0.000000 0.580294 0.419706 36 34 36
5.020078 23.158665 -0.176778 1.000000 0.000000 0.000000 0.080294 0.419706 36 34 36
5.020078 23.231888 -0.000001 -0.000000 0.923880 -0.382683 0.875000 2.750000 36 34 36
-5.020078 23.158665 -0.176775 -0.000000 0.923880 -0.382683 0.750000 -1.250000 36 34 36
-5.020078 23.231888 0.000001 -0.000000 0.923880 -0.382683 0.875000 -1.250000 36 34 36
5.020078 23.158665 -0.176778 -0.000000 0.382683 -0.923880 1.000000 2.750000 36 34 36
-5.020078 22.981888 -0.249999 -0.000000 0.382683 -0.923880 0.875000 -1.250000 36 34 36
-5.020078 23.158665 -0.176775 -0.000000 0.382683 -0.923880 1.000000 -1.250000 36 34 36
0.353553 36.000000 -0.353553 0.382683 0.000000 -0.923879 0.000000 4.750000 150 145 150
0.500000 36.000000 0.000000 0.923880 0.000000 -0.382683 0.125000 4.750000 150 145 150
0.353553 36.000000 0.353553 0.923880 -0.000000 0.382683 0.250000 4.750000 150 145 150
-0.000000 36.000000 0.500000 0.382683 -0.000000 0.923880 0.375000 4.750000 150 145 150
-0.353553 36.000000 0.353553 -0.382684 0.000000 0.923880 0.500000 4.750000 150 145 150
-0.500000 36.000000 -0.000000 -0.923880 0.000000 0.382683 0.625000 4.750000 150 145 150
-0.353553 36.000000 -0.353553 -0.923880 0.000000 -0.382683 0.750000 4.750000 150 145 150
0.000000 36.000000 -0.500000 -0.382684 0.000000 -0.923879 0.875000 4.750000 150 145 150
7.171540 27.469006 -0.176778 -0.000000 -0.382683 -0.923880 0.000000 2.750000 36 34 36
7.171540 27.395782 -0.000001 -0.000000 -0.923880 -0.382683 0.125000 2.750000 36 34 36
7.171540 27.469006 0.176775 0.000000 -0.923880 0.382683 0.250000 2.750000 36 34 36
7.171540 27.645782 0.249999 0.000000 -0.382683 0.923880 0.375000 2.750000 36 34 36
7.171540 27.822559 0.176775 0.000000 0.382683 0.923880 0.500000 2.750000 36 34 36
7.171540 27.895782 -0.000001 0.000000 0.923880 0.382683 0.625000 2.750000 36 34 36
7.171540 27.822559 -0.176778 -0.000000 0.923880 -0.382683 0.750000 2.750000 36 34 36
7.171540 27.645782 -0.250001 -0.000000 0.382683 -0.923880 0.875000 2.750000 36 34 36
5.020078 32.238899 -0.176778 -0.000000 -0.382683 -0.923880 0.000000 2.750000 36 34 36
5.020078 32.165676 -0.000001 -0.000000 -0.923880 -0.382683 0.125000 2.750000 36 34 36
5.020078 32.238899 0.176775 0.000000 -0.923880 0.382683 0.250000 2.750000 36 34 36
5.020078 32.415676 0.249999 0.000000 -0.382683 0.923880 0.375000 2.750000 36 34 36
5.020078 32.592453 0.176775 0.000000 0.382683 0.923880 0.500000 2.750000 36 34 36
5.020078 32.665676 -0.000001 0.000000 0.923880 0.382683 0.625000 2.750000 36 34 36
5.020078 32.592453 -0.176778 -0.000000 0.923880 -0.382683 0.750000 2.750000 36 34 36
5.020078 32.415676 -0.250001 -0.000000 0.382683 -0.923880 0.875000 2.750000 36 34 36
5.020078 22.805111 -0.176778 -0.000000 -0.382683 -0.923880 0.000000 2.750000 36 34 36
5.020078 22.731888 -0.000001 -0.000000 -0.923880 -0.382683 0.125000 2.750000 36 34 36
5.020078 22.805111 0.176775 0.000000 -0.923880 0.382683 0.250000 2.750000 36 34 36
5.020078 22.981888 0.249999 0.000000 -0.382683 0.923880 0.375000 2.750000 36 34 36
5.020078 23.158665 0.176775 0.000000 0.382683 0.923880 0.500000 2.750000 36 34 36
5.020078 23.231888 -0.000001 0.000000 0.923880 0.382683 0.625000 2.750000 36 34 36
5.020078 23.158665 -0.176778 -0.000000 0.923880 -0.382683 0.750000 2.750000 36 34 36
5.020078 22.981888 -0.250001 -0.000000 0.382683 -0.923880 0.875000 2.750000 36 34 36
3 0 1 2
3 3 4 5
3 0 6 1
3 7 8 9
3 0 10 6
3 11 12 13
3 0 14 10
3 15 16 17
3 0 18 14
3 19 20 21
3 0 22 18
3 23 24 25
3 0 26 22
3 27 28 29
3 0 2 26
3 30 31 32
3 33 34 35
3 36 37 38
3 39 40 41
3 33 35 42
3 36 43 37
3 44 45 46
3 33 42 47
3 36 48 43
3 49 50 51
3 33 47 52
3 36 53 48
3 54 55 56
3 33 52 57
3 36 58 53
3 59 60 61
3 33 57 62
3 36 63 58
3 64 65 66
3 33 62 67
3 36 68 63
3 69 70 71
3 33 67 34
3 36 38 68
3 72 73 74
3 75 76 77
3 78 79 80
3 81 82 83
3 75 77 84
3 78 85 79
3 86 87 88
3 75 84 89
3 78 90 85
3 91 92 93
3 75 89 94
3 78 95 90
3 96 97 98
3 75 94 99
3 78 100 95
3 101 102 103
3 75 99 104
3 78 105 100
3 106 107 108
3 75 104 109
3 78 110 105
3 111 112 113
3 75 109 76
3 78 80 110
3 114 115 116
3 117 118 119
3 120 121 122
3 123 124 125
3 117 119 126
3 120 127 121
3 128 129 130
3 117 126 131
3 120 132 127
3 133 134 135
3 117 131 136
3 120 137 132
3 138 139 140
3 117 136 141
3 120 142 137
3 143 144 145
3 117 141 146
3 120 147 142
3 148 149 150
3 117 146 151
3 120 152 147
3 153 154 155
3 117 151 118
3 120 122 152
3 156 157 158
3 3 159 4
3 7 160 8
3 11 161 12
3 15 162 16
3 19 163 20
3 23 164 24
3 27 165 28
3 30 166 31
3 39 167 40
3 44 168 45
3 49 169 50
3 54 170 55
3 59 171 60
3 64 172 65
3 69 173 70
3 72 174 73
3 81 175 82
3 86 176 87
3 91 177 92
3 96 178 97
3 101 179 102
3 106 180 107
3 111 181 112
3 114 182 115
3 123 183 124
3 128 184 129
3 133 185 134
3 138 186 139
3 143 187 144
3 148 188 149
3 153 189 154
3 156 190 157
