ply
format ascii 1.0
comment Created by Blender 2.78 (sub 0) - www.blender.org, source file: 'street-lamp.blend'
element vertex 138
property float x
property float y
property float z
property float nx
property float ny
property float nz
property float s
property float t
property uchar red
property uchar green
property uchar blue
element face 70
property list uchar uint vertex_indices
end_header
0.000000 40.330574 -0.635330 0.382683 0.000000 -0.923880 0.999999 17.665289 71 71 71
0.449246 13.957100 -0.449246 0.382683 0.000000 -0.923880 0.875000 7.478550 71 71 71
0.000000 13.957100 -0.635330 0.382683 0.000000 -0.923880 1.000000 7.478550 71 71 71
0.449246 40.330574 -0.449246 0.923880 0.000000 -0.382683 0.875000 17.665289 71 71 71
0.635330 13.957100 0.000000 0.923880 0.000000 -0.382683 0.750000 7.478550 71 71 71
0.449246 13.957100 -0.449246 0.923880 0.000000 -0.382683 0.875000 7.478550 71 71 71
0.635330 40.330574 0.000000 0.923880 0.000000 0.382683 0.750001 17.665289 71 71 71
0.449246 13.957100 0.449246 0.923880 0.000000 0.382683 0.625000 7.478550 71 71 71
0.635330 13.957100 0.000000 0.923880 0.000000 0.382683 0.750000 7.478550 71 71 71
0.449246 40.330574 0.449246 0.382683 0.000000 0.923880 0.625001 17.665289 71 71 71
-0.000000 13.957100 0.635330 0.382683 0.000000 0.923880 0.500000 7.478550 71 71 71
0.449246 13.957100 0.449246 0.382683 0.000000 0.923880 0.625000 7.478550 71 71 71
-0.000000 40.330574 0.635330 -0.382684 0.000000 0.923879 0.500001 17.665289 71 71 71
-0.449247 13.957100 0.449246 -0.382684 0.000000 0.923879 0.375000 7.478550 71 71 71
-0.000000 13.957100 0.635330 -0.382684 0.000000 0.923879 0.500000 7.478550 71 71 71
-0.449247 40.330574 0.449246 -0.923880 0.000000 0.382683 0.375000 17.665289 71 71 71
-0.635330 13.957100 -0.000000 -0.923880 0.000000 0.382683 0.250000 7.478550 71 71 71
-0.449247 13.957100 0.449246 -0.923880 0.000000 0.382683 0.375000 7.478550 71 71 71
-0.635330 40.330574 -0.000000 0.000000 1.000000 0.000000 0.551812 0.361775 71 71 71
-0.000000 40.330574 0.635330 0.000000 1.000000 0.000000 0.619438 0.558801 71 71 71
0.635330 40.330574 0.000000 0.000000 1.000000 0.000000 0.426873 0.638313 71 71 71
-0.635330 40.330574 -0.000000 -0.923880 0.000000 -0.382683 0.249999 17.665289 71 71 71
-0.449247 13.957100 -0.449246 -0.923880 0.000000 -0.382683 0.125000 7.478550 71 71 71
-0.635330 13.957100 -0.000000 -0.923880 0.000000 -0.382683 0.250000 7.478550 71 71 71
-0.449247 40.330574 -0.449246 -0.382684 0.000000 -0.923879 1.124999 17.665289 71 71 71
0.000000 13.957100 -0.635330 -0.382684 0.000000 -0.923879 1.000000 7.478550 71 71 71
-0.449247 13.957100 -0.449246 -0.382684 0.000000 -0.923879 1.125000 7.478550 71 71 71
-0.449247 13.957100 -0.449246 -0.382572 0.024135 -0.923610 1.125000 7.478550 71 71 71
0.000000 0.001587 -1.000000 -0.382572 0.024135 -0.923610 1.000000 0.500794 71 71 71
-0.707107 0.001586 -0.707107 -0.382572 0.024135 -0.923610 1.125000 0.500793 71 71 71
-0.635330 13.957100 -0.000000 -0.923610 0.024135 -0.382572 0.250000 7.478550 71 71 71
-0.707107 0.001586 -0.707107 -0.923610 0.024135 -0.382572 0.125000 0.500793 71 71 71
-1.000000 0.001586 -0.000000 -0.923610 0.024135 -0.382572 0.250000 0.500793 71 71 71
-0.449247 13.957100 0.449246 -0.923610 0.024135 0.382572 0.375000 7.478550 71 71 71
-1.000000 0.001586 -0.000000 -0.923610 0.024135 0.382572 0.250000 0.500793 71 71 71
-0.707107 0.001586 0.707107 -0.923610 0.024135 0.382572 0.375000 0.500793 71 71 71
-0.000000 13.957100 0.635330 -0.382572 0.024135 0.923610 0.500000 7.478550 71 71 71
-0.707107 0.001586 0.707107 -0.382572 0.024135 0.923610 0.375000 0.500793 71 71 71
-0.000000 0.001586 1.000000 -0.382572 0.024135 0.923610 0.500000 0.500793 71 71 71
0.449246 13.957100 0.449246 0.382572 0.024135 0.923610 0.625000 7.478550 71 71 71
-0.000000 0.001586 1.000000 0.382572 0.024135 0.923610 0.500000 0.500793 71 71 71
0.707107 0.001586 0.707107 0.382572 0.024135 0.923610 0.625000 0.500793 71 71 71
0.635330 13.957100 0.000000 0.923610 0.024135 0.382572 0.750000 7.478550 71 71 71
0.707107 0.001586 0.707107 0.923610 0.024135 0.382572 0.625000 0.500793 71 71 71
1.000000 0.001586 0.000000 0.923610 0.024135 0.382572 0.750000 0.500793 71 71 71
0.449246 13.957100 -0.449246 0.923610 0.024135 -0.382572 0.875000 7.478550 71 71 71
1.000000 0.001586 0.000000 0.923610 0.024135 -0.382572 0.750000 0.500793 71 71 71
0.707107 0.001586 -0.707107 0.923610 0.024135 -0.382572 0.875000 0.500793 71 71 71
0.000000 0.001587 -1.000000 0.382572 0.024135 -0.923611 1.000000 0.500794 71 71 71
0.449246 13.957100 -0.449246 0.382572 0.024135 -0.923611 0.875000 7.478550 71 71 71
0.707107 0.001586 -0.707107 0.382572 0.024135 -0.923611 0.875000 0.500793 71 71 71
-5.800000 37.299999 -0.300000 0.000000 0.000000 -1.000000 0.666665 -4.050000 36 36 36
16.799999 36.700001 -0.300000 0.000000 0.000000 -1.000000 0.333336 5.050000 36 36 36
-5.800000 36.700001 -0.300000 0.000000 0.000000 -1.000000 0.333334 -4.050000 36 36 36
16.799999 37.299999 0.300000 0.000000 -0.000000 1.000000 0.999998 -4.050000 36 36 36
-5.800000 36.700001 0.300000 0.000000 -0.000000 1.000000 0.666669 5.050000 36 36 36
16.799999 36.700001 0.300000 0.000000 -0.000000 1.000000 0.666667 -4.050000 36 36 36
-5.800000 37.299999 -0.300000 0.000000 1.000000 -0.000000 0.333334 5.050000 36 36 36
16.799999 37.299999 0.300000 0.000000 1.000000 -0.000000 0.000000 -4.050000 36 36 36
16.799999 37.299999 -0.300000 0.000000 1.000000 -0.000000 0.333332 -4.050000 36 36 36
-4.160000 33.299999 -0.300000 0.000000 0.000000 -1.000000 0.666665 -4.050000 36 36 36
0.160000 32.700001 -0.300000 0.000000 0.000000 -1.000000 0.333336 5.050000 36 36 36
-4.160000 32.700001 -0.300000 0.000000 0.000000 -1.000000 0.333334 -4.050000 36 36 36
0.160000 33.299999 0.300000 0.000000 -0.000000 1.000000 0.999998 -4.050000 36 36 36
-4.160000 32.700001 0.300000 0.000000 -0.000000 1.000000 0.666669 5.050000 36 36 36
0.160000 32.700001 0.300000 0.000000 -0.000000 1.000000 0.666667 -4.050000 36 36 36
-4.160000 33.299999 -0.300000 0.000000 1.000000 -0.000000 0.333334 5.050000 36 36 36
0.160000 33.299999 0.300000 0.000000 1.000000 -0.000000 0.000000 -4.050000 36 36 36
0.160000 33.299999 -0.300000 0.000000 1.000000 -0.000000 0.333332 -4.050000 36 36 36
-5.287102 36.617363 -0.200785 -0.000000 0.000000 -1.000000 0.333334 -4.050000 36 36 36
0.253829 33.392418 -0.200786 -0.000000 0.000000 -1.000000 0.666667 5.050000 36 36 36
-0.044639 32.964111 -0.200786 -0.000000 0.000000 -1.000000 0.333336 5.050000 36 36 36
0.253829 33.392418 0.200786 0.000000 -0.000000 1.000000 0.999998 -4.050000 36 36 36
-5.287102 36.617363 0.200786 0.000000 -0.000000 1.000000 0.666669 5.050000 36 36 36
-0.044639 32.964111 0.200786 0.000000 -0.000000 1.000000 0.666667 -4.050000 36 36 36
-4.988634 37.045670 -0.200785 0.571731 0.820441 -0.000000 0.333334 5.050000 36 36 36
0.253829 33.392418 0.200786 0.571731 0.820441 -0.000000 0.000000 -4.050000 36 36 36
0.253829 33.392418 -0.200786 0.571731 0.820441 -0.000000 0.333332 -4.050000 36 36 36
0.317360 28.919077 -0.253952 0.000000 0.000000 -1.000000 0.333334 -4.050000 36 36 36
12.545219 37.005402 -0.253951 0.000000 0.000000 -1.000000 0.666667 5.050000 36 36 36
12.810533 36.572304 -0.253951 0.000000 0.000000 -1.000000 0.333336 5.050000 36 36 36
12.545219 37.005402 0.253953 -0.000000 -0.000000 1.000000 0.999998 -4.050000 36 36 36
0.317360 28.919077 0.253952 -0.000000 -0.000000 1.000000 0.666669 5.050000 36 36 36
12.810533 36.572304 0.253953 -0.000000 -0.000000 1.000000 0.666667 -4.050000 36 36 36
0.052047 29.352175 -0.253952 -0.522370 0.852719 0.000000 0.333334 5.050000 36 36 36
12.545219 37.005402 0.253953 -0.522370 0.852719 0.000000 0.000000 -4.050000 36 36 36
12.545219 37.005402 -0.253951 -0.522370 0.852719 0.000000 0.333332 -4.050000 36 36 36
15.342660 36.898849 -0.253950 0.999694 0.024742 -0.000000 0.333334 5.050000 36 36 36
15.540938 28.887556 0.253951 0.999694 0.024742 -0.000000 0.000000 -4.050000 36 36 36
15.540938 28.887556 -0.253953 0.999694 0.024742 -0.000000 0.333332 -4.050000 36 36 36
0.425889 29.280264 -0.220439 0.000000 0.000000 -1.000000 0.666665 -4.050000 36 36 36
15.480947 28.839390 -0.220439 0.000000 0.000000 -1.000000 0.333336 5.050000 36 36 36
0.425889 28.839390 -0.220439 0.000000 0.000000 -1.000000 0.333334 -4.050000 36 36 36
15.480947 29.280264 0.220437 0.000000 -0.000000 1.000000 0.999998 -4.050000 36 36 36
0.425889 28.839390 0.220437 0.000000 -0.000000 1.000000 0.666669 5.050000 36 36 36
15.480947 28.839390 0.220437 0.000000 -0.000000 1.000000 0.666667 -4.050000 36 36 36
0.425889 29.280264 -0.220439 0.000000 1.000000 -0.000000 0.333334 5.050000 36 36 36
15.480947 29.280264 0.220437 0.000000 1.000000 -0.000000 0.000000 -4.050000 36 36 36
15.480947 29.280264 -0.220439 0.000000 1.000000 -0.000000 0.333332 -4.050000 36 36 36
0.449246 40.330574 -0.449246 0.382683 0.000000 -0.923880 0.875000 17.665289 71 71 71
0.635330 40.330574 0.000000 0.923880 0.000000 -0.382683 0.750001 17.665289 71 71 71
0.449246 40.330574 0.449246 0.923880 -0.000000 0.382683 0.625001 17.665289 71 71 71
-0.000000 40.330574 0.635330 0.382683 -0.000000 0.923880 0.500001 17.665289 71 71 71
-0.449247 40.330574 0.449246 -0.382684 0.000000 0.923879 0.375000 17.665289 71 71 71
-0.635330 40.330574 -0.000000 -0.923880 0.000000 0.382683 0.249999 17.665289 71 71 71
0.449246 40.330574 -0.449246 0.000000 1.000000 0.000000 0.352538 0.553900 71 71 71
0.000000 40.330574 -0.635330 0.000000 1.000000 0.000000 0.363187 0.443069 71 71 71
-0.449247 40.330574 -0.449246 0.000000 1.000000 0.000000 0.439320 0.361789 71 71 71
-0.449247 40.330574 0.449246 0.000000 1.000000 0.000000 0.624742 0.447263 71 71 71
0.449246 40.330574 0.449246 0.000000 1.000000 0.000000 0.539251 0.636526 71 71 71
-0.449247 40.330574 -0.449246 -0.923880 0.000000 -0.382683 0.124999 17.665289 71 71 71
0.000000 40.330574 -0.635330 -0.382684 0.000000 -0.923879 0.999999 17.665289 71 71 71
0.000000 13.957100 -0.635330 -0.382572 0.024135 -0.923610 1.000000 7.478550 71 71 71
-0.449247 13.957100 -0.449246 -0.923610 0.024135 -0.382572 0.125000 7.478550 71 71 71
-0.635330 13.957100 -0.000000 -0.923610 0.024135 0.382572 0.250000 7.478550 71 71 71
-0.449247 13.957100 0.449246 -0.382572 0.024135 0.923610 0.375000 7.478550 71 71 71
-0.000000 13.957100 0.635330 0.382572 0.024135 0.923610 0.500000 7.478550 71 71 71
0.449246 13.957100 0.449246 0.923610 0.024135 0.382572 0.625000 7.478550 71 71 71
0.635330 13.957100 0.000000 0.923610 0.024135 -0.382572 0.750000 7.478550 71 71 71
0.000000 0.001587 -1.000000 0.382572 0.024135 -0.923610 1.000000 0.500794 71 71 71
0.000000 13.957100 -0.635330 0.382572 0.024135 -0.923610 1.000000 7.478550 71 71 71
0.449246 13.957100 -0.449246 0.382572 0.024135 -0.923610 0.875000 7.478550 71 71 71
16.799999 37.299999 -0.300000 0.000000 0.000000 -1.000000 0.666667 5.050000 36 36 36
-5.800000 37.299999 0.300000 0.000000 0.000000 1.000000 1.000000 5.050000 36 36 36
-5.800000 37.299999 0.300000 0.000000 1.000000 0.000000 0.000002 5.050000 36 36 36
0.160000 33.299999 -0.300000 0.000000 0.000000 -1.000000 0.666667 5.050000 36 36 36
-4.160000 33.299999 0.300000 0.000000 0.000000 1.000000 1.000000 5.050000 36 36 36
-4.160000 33.299999 0.300000 0.000000 1.000000 0.000000 0.000002 5.050000 36 36 36
-4.988634 37.045670 -0.200785 -0.000000 0.000000 -1.000000 0.666665 -4.050000 36 36 36
-4.988634 37.045670 0.200786 0.000000 -0.000000 1.000000 1.000000 5.050000 36 36 36
-4.988634 37.045670 0.200786 0.571731 0.820441 0.000000 0.000002 5.050000 36 36 36
0.052047 29.352175 -0.253952 0.000000 0.000000 -1.000000 0.666665 -4.050000 36 36 36
0.052047 29.352175 0.253952 -0.000000 -0.000000 1.000000 1.000000 5.050000 36 36 36
0.052047 29.352175 0.253952 -0.522370 0.852719 0.000000 0.000002 5.050000 36 36 36
15.342660 36.898849 0.253953 0.999694 0.024742 0.000000 0.000002 5.050000 36 36 36
15.480947 29.280264 -0.220439 0.000000 0.000000 -1.000000 0.666667 5.050000 36 36 36
0.425889 29.280264 0.220437 0.000000 0.000000 1.000000 1.000000 5.050000 36 36 36
0.425889 29.280264 0.220437 0.000000 1.000000 0.000000 0.000002 5.050000 36 36 36
3 0 1 2
3 3 4 5
3 6 7 8
3 9 10 11
3 12 13 14
3 15 16 17
3 18 19 20
3 21 22 23
3 24 25 26
3 27 28 29
3 30 31 32
3 33 34 35
3 36 37 38
3 39 40 41
3 42 43 44
3 45 46 47
3 48 49 50
3 51 52 53
3 54 55 56
3 57 58 59
3 60 61 62
3 63 64 65
3 66 67 68
3 69 70 71
3 72 73 74
3 75 76 77
3 78 79 80
3 81 82 83
3 84 85 86
3 87 88 89
3 90 91 92
3 93 94 95
3 96 97 98
3 0 99 1
3 3 100 4
3 6 101 7
3 9 102 10
3 12 103 13
3 15 104 16
3 20 105 106
3 106 107 20
3 18 108 19
3 19 109 20
3 20 107 18
3 21 110 22
3 24 111 25
3 27 112 28
3 30 113 31
3 33 114 34
3 36 115 37
3 39 116 40
3 42 117 43
3 45 118 46
3 119 120 121
3 51 122 52
3 54 123 55
3 57 124 58
3 60 125 61
3 63 126 64
3 66 127 67
3 69 128 70
3 72 129 73
3 75 130 76
3 78 131 79
3 81 132 82
3 84 133 85
3 87 134 88
3 90 135 91
3 93 136 94
3 96 137 97
