ply
format ascii 1.0
comment Created by Blender 2.78 (sub 0) - www.blender.org, source file: 'street-lamp.blend'
element vertex 28
property float x
property float y
property float z
property float nx
property float ny
property float nz
property float s
property float t
property uchar red
property uchar green
property uchar blue
element face 16
property list uchar uint vertex_indices
end_header
0.000000 9.000000 -0.125000 0.707107 0.000000 -0.707107 0.200001 -5.149611 117 116 115
0.125000 0.000000 0.000000 0.707107 0.000000 -0.707107 0.400002 6.149608 117 116 115
0.000000 0.000000 -0.125000 0.707107 0.000000 -0.707107 0.200002 6.149608 117 116 115
0.125000 9.000000 0.000000 0.707107 0.000000 0.707107 0.600001 -5.149611 117 116 115
-0.000000 0.000000 0.125000 0.707107 0.000000 0.707107 0.800001 6.149611 117 116 115
0.125000 0.000000 0.000000 0.707107 0.000000 0.707107 0.600001 6.149611 117 116 115
0.000000 9.000000 -0.125000 0.000000 1.000000 0.000000 0.800001 -5.149611 117 116 115
-0.000000 9.000000 0.125000 0.000000 1.000000 0.000000 1.000000 -4.816704 117 116 115
0.125000 9.000000 0.000000 0.000000 1.000000 0.000000 0.800001 -4.816704 117 116 115
-0.000000 9.000000 0.125000 -0.707107 0.000000 0.707107 0.600001 6.149608 117 116 115
-0.125000 0.000000 -0.000000 -0.707107 0.000000 0.707107 0.400002 -5.149611 117 116 115
-0.000000 0.000000 0.125000 -0.707107 0.000000 0.707107 0.600001 -5.149611 117 116 115
-0.125000 9.000000 -0.000000 -0.707107 0.000000 -0.707107 0.000000 -5.149611 117 116 115
0.000000 0.000000 -0.125000 -0.707107 0.000000 -0.707107 0.200001 6.149609 117 116 115
-0.125000 0.000000 -0.000000 -0.707107 0.000000 -0.707107 0.000002 6.149609 117 116 115
-1.246615 8.159251 0.151373 0.000000 -0.000000 1.000000 0.000000 0.000000 184 126 103
-0.543061 7.455695 0.151373 0.000000 -0.000000 1.000000 0.000000 0.000000 184 126 103
1.155471 8.159251 0.151373 0.000000 -0.000000 1.000000 0.000000 0.000000 184 126 103
0.125000 9.000000 0.000000 0.707107 0.000000 -0.707107 0.400001 -5.149611 117 116 115
-0.000000 9.000000 0.125000 0.707107 -0.000000 0.707107 0.800001 -5.149610 117 116 115
-0.125000 9.000000 -0.000000 0.000000 1.000000 0.000000 1.000000 -5.149611 117 116 115
-0.125000 9.000000 -0.000000 -0.707107 0.000000 0.707107 0.400002 6.149608 117 116 115
0.000000 9.000000 -0.125000 -0.707107 0.000000 -0.707107 0.199999 -5.149611 117 116 115
1.155471 9.154228 0.151373 0.000000 0.000000 1.000000 0.000000 0.000000 184 126 103
-1.246615 9.154228 0.151373 0.000000 0.000000 1.000000 0.000000 0.000000 184 126 103
0.451917 9.857783 0.151373 -0.000000 0.000000 1.000000 0.000000 0.000000 184 126 103
-0.543061 9.857783 0.151373 -0.000000 0.000000 1.000000 0.000000 0.000000 184 126 103
0.451916 7.455695 0.151373 0.000000 0.000000 1.000000 0.000000 0.000000 184 126 103
3 0 1 2
3 3 4 5
3 6 7 8
3 9 10 11
3 12 13 14
3 15 16 17
3 0 18 1
3 3 19 4
3 6 20 7
3 9 21 10
3 12 22 13
3 17 23 24
3 25 26 24
3 24 15 17
3 16 27 17
3 23 25 24
