ply
format ascii 1.0
comment Created by Blender 2.79 (sub 0) - www.blender.org, source file: 'house.blend'
element vertex 98
property float x
property float y
property float z
property float nx
property float ny
property float nz
property float s
property float t
property uchar red
property uchar green
property uchar blue
element face 54
property list uchar uint vertex_indices
end_header
1.818220 1.294842 0.076653 1.000000 0.000000 -0.000000 0.499852 0.228345 0 0 0
1.818220 0.212853 1.849010 1.000000 0.000000 -0.000000 0.027861 0.055139 0 0 0
1.818220 0.000000 1.849010 1.000000 0.000000 -0.000000 0.027861 0.021065 0 0 0
-1.858716 1.294842 0.076654 -1.000000 0.000000 0.000000 1.565080 0.228345 0 0 0
-1.858716 0.212853 -1.695702 -1.000000 0.000000 0.000000 2.037071 0.055139 0 0 0
-1.858716 0.000000 -1.695702 -1.000000 0.000000 0.000000 2.037071 0.021065 0 0 0
2.106836 1.160461 0.078447 1.000000 0.000000 -0.000000 2.354568 0.412798 255 255 255
2.106836 0.197857 -1.863209 1.000000 0.000000 -0.000000 2.451330 0.999115 255 255 255
2.106836 1.370693 0.078447 1.000000 0.000000 -0.000000 2.301472 0.412798 255 255 255
2.106837 -0.012374 2.020102 0.000000 -0.000000 1.000000 2.610616 1.114460 255 255 255
-2.158450 0.197857 2.020103 0.000000 -0.000000 1.000000 2.557521 -0.173519 255 255 255
-2.158450 -0.012374 2.020103 0.000000 -0.000000 1.000000 2.610616 -0.173519 255 255 255
2.106837 0.197857 2.020102 0.000000 0.855964 0.517036 1.322637 -0.173519 255 255 255
-2.158450 1.370693 0.078447 0.000000 0.855964 0.517036 1.659432 1.114460 255 255 255
-2.158450 0.197857 2.020103 0.000000 0.855964 0.517036 1.322637 1.114460 255 255 255
-2.158450 0.197857 -1.863209 -1.000000 -0.000000 0.000000 2.248377 -0.173519 255 255 255
-2.158450 1.160461 0.078447 -1.000000 -0.000000 0.000000 2.151614 0.412798 255 255 255
-2.158450 1.370693 0.078447 -1.000000 -0.000000 0.000000 2.098519 0.412798 255 255 255
2.106836 1.370693 0.078447 0.000000 0.855964 -0.517035 1.659432 -0.173519 255 255 255
-2.158450 0.197857 -1.863209 0.000000 0.855964 -0.517035 2.098519 1.114460 255 255 255
-2.158450 1.370693 0.078447 0.000000 0.855964 -0.517035 1.659432 1.114460 255 255 255
2.106837 0.197857 2.020102 1.000000 0.000000 -0.000000 2.451330 -0.173519 255 255 255
-2.158450 0.197857 2.020103 -1.000000 0.000000 0.000000 2.248377 0.999116 255 255 255
-2.158450 -0.012374 2.020103 -1.000000 0.000000 0.000000 2.301472 0.999116 255 255 255
2.106836 0.197857 -1.863209 -0.000000 -0.000000 -1.000000 2.504426 -0.173519 255 255 255
-2.158450 -0.012374 -1.863209 -0.000000 -0.000000 -1.000000 2.557521 1.114460 255 255 255
-2.158450 0.197857 -1.863209 -0.000000 -0.000000 -1.000000 2.504426 1.114460 255 255 255
-0.928719 0.640347 -0.327971 -0.000000 0.000000 1.000000 1.266618 1.268910 0 0 0
-1.172056 2.052385 -0.327971 -0.000000 0.000000 1.000000 1.220240 1.416176 0 0 0
-1.172056 0.640347 -0.327971 -0.000000 0.000000 1.000000 1.220240 1.268910 0 0 0
-0.928719 0.640347 -0.327971 1.000000 0.000000 0.000000 1.118033 1.268910 0 0 0
-0.928719 2.052385 -0.620889 1.000000 0.000000 0.000000 1.173861 1.416176 0 0 0
-0.928719 2.052385 -0.327971 1.000000 0.000000 0.000000 1.118033 1.416176 0 0 0
-1.172056 2.052385 -0.620889 -1.000000 -0.000000 -0.000000 1.118033 1.268910 0 0 0
-1.172056 0.640347 -0.327971 -1.000000 -0.000000 -0.000000 1.062205 1.416176 0 0 0
-1.172056 2.052385 -0.327971 -1.000000 -0.000000 -0.000000 1.062205 1.268910 0 0 0
-1.172056 2.052385 -0.327971 0.000000 1.000000 -0.000000 1.062205 1.416176 0 0 0
-0.928719 2.052385 -0.620889 0.000000 1.000000 -0.000000 1.108583 1.473324 0 0 0
-1.172056 2.052385 -0.620889 0.000000 1.000000 -0.000000 1.062205 1.473324 0 0 0
-0.928719 2.052385 -0.620889 0.000000 0.000000 -1.000000 1.173861 1.416176 0 0 0
-1.172056 0.640347 -0.620889 0.000000 0.000000 -1.000000 1.220240 1.268910 0 0 0
-1.172056 2.052385 -0.620889 0.000000 0.000000 -1.000000 1.220240 1.416176 0 0 0
0.360081 1.292340 1.587343 0.000000 -0.000000 1.000000 0.499852 0.228345 0 0 0
-0.573071 0.465086 1.587343 0.000000 -0.000000 1.000000 0.027861 0.055139 0 0 0
-0.573071 0.302345 1.587343 0.000000 -0.000000 1.000000 0.027861 0.021065 0 0 0
0.360081 1.292340 -1.359739 0.000000 0.000000 -1.000000 1.565080 0.228345 0 0 0
1.293233 0.465086 -1.359739 0.000000 0.000000 -1.000000 2.037071 0.055139 0 0 0
1.293233 0.302345 -1.359739 0.000000 0.000000 -1.000000 2.037071 0.021065 0 0 0
0.359137 1.189596 1.818670 0.000000 0.000000 1.000000 2.354568 0.412798 255 255 255
1.381425 0.472922 1.818669 0.000000 0.000000 1.000000 2.451330 0.999115 255 255 255
0.359137 1.369634 1.818670 0.000000 0.000000 1.000000 2.301472 0.412798 255 255 255
-0.663152 0.292885 -1.599976 -1.000000 0.000000 0.000000 2.610616 -0.173519 255 255 255
-0.663152 0.472922 1.818670 -1.000000 0.000000 0.000000 2.557521 1.114460 255 255 255
-0.663152 0.472922 -1.599976 -1.000000 0.000000 0.000000 2.557521 -0.173519 255 255 255
-0.663152 0.472922 -1.599976 -0.659424 0.751771 0.000000 1.322637 1.114460 255 255 255
0.359137 1.369634 1.818670 -0.659424 0.751771 0.000000 1.659432 -0.173519 255 255 255
0.359136 1.369634 -1.599977 -0.659424 0.751771 0.000000 1.659432 1.114460 255 255 255
1.381425 0.472922 -1.599977 -0.000000 -0.000000 -1.000000 2.248377 -0.173519 255 255 255
0.359136 1.189596 -1.599977 -0.000000 -0.000000 -1.000000 2.151614 0.412798 255 255 255
0.359136 1.369634 -1.599977 -0.000000 -0.000000 -1.000000 2.098519 0.412798 255 255 255
0.359136 1.369634 -1.599977 0.659424 0.751771 -0.000000 1.659432 1.114460 255 255 255
1.381425 0.472922 1.818669 0.659424 0.751771 -0.000000 2.098519 -0.173519 255 255 255
1.381425 0.472922 -1.599977 0.659424 0.751771 -0.000000 2.098519 1.114460 255 255 255
-0.663152 0.472922 1.818670 0.000000 0.000000 1.000000 2.451330 -0.173519 255 255 255
-0.663152 0.472922 -1.599976 -0.000001 0.000000 -1.000000 2.248377 0.999116 255 255 255
0.359136 1.189596 -1.599977 -0.000001 0.000000 -1.000000 2.151614 0.412798 255 255 255
-0.663152 0.292885 -1.599976 -0.000001 0.000000 -1.000000 2.301472 0.999116 255 255 255
1.381425 0.472922 1.818669 1.000000 0.000000 -0.000000 2.504426 -0.173519 255 255 255
1.381425 0.292885 -1.599977 1.000000 0.000000 -0.000000 2.557521 1.114460 255 255 255
1.381425 0.472922 -1.599977 1.000000 0.000000 -0.000000 2.504426 1.114460 255 255 255
1.818220 0.000000 -1.695702 1.000000 0.000000 -0.000000 0.971843 0.021065 0 0 0
1.818220 0.212853 -1.695702 1.000000 0.000000 0.000000 0.971843 0.055139 0 0 0
-1.858716 0.000000 1.849010 -1.000000 0.000000 0.000000 1.093089 0.021065 0 0 0
-1.858716 0.212853 1.849010 -1.000000 0.000000 0.000000 1.093089 0.055139 0 0 0
2.106836 -0.012374 -1.863209 1.000000 0.000000 -0.000000 2.504426 0.999115 255 255 255
2.106837 0.197857 2.020102 0.000000 0.000000 1.000000 2.557521 1.114460 255 255 255
2.106836 1.370693 0.078447 0.000000 0.855964 0.517036 1.659432 -0.173519 255 255 255
-2.158450 -0.012374 -1.863209 -1.000000 0.000000 -0.000000 2.301472 -0.173519 255 255 255
2.106836 0.197857 -1.863209 -0.000000 0.855964 -0.517035 2.098519 -0.173519 255 255 255
2.106837 -0.012374 2.020102 1.000000 0.000000 -0.000000 2.504426 -0.173519 255 255 255
2.106836 -0.012374 -1.863209 -0.000000 0.000000 -1.000000 2.557521 -0.173519 255 255 255
-0.928719 2.052385 -0.327971 -0.000000 0.000000 1.000000 1.266618 1.416176 0 0 0
-0.928719 0.640347 -0.620889 1.000000 0.000000 -0.000000 1.173861 1.268910 0 0 0
-1.172056 0.640347 -0.620889 -1.000000 0.000000 0.000000 1.118033 1.416176 0 0 0
-0.928719 2.052385 -0.327971 0.000000 1.000000 -0.000000 1.108583 1.416176 0 0 0
-0.928719 0.640347 -0.620889 0.000000 0.000000 -1.000000 1.173861 1.268910 0 0 0
1.293233 0.302345 1.587343 0.000000 0.000000 1.000000 0.971843 0.021065 0 0 0
1.293233 0.465086 1.587343 0.000000 0.000000 1.000000 0.971843 0.055139 0 0 0
-0.573071 0.302345 -1.359739 0.000000 -0.000000 -1.000000 1.093089 0.021065 0 0 0
-0.573071 0.465086 -1.359739 0.000000 -0.000000 -1.000000 1.093089 0.055139 0 0 0
1.381425 0.292885 1.818669 0.000000 0.000000 1.000000 2.504426 0.999115 255 255 255
-0.663152 0.155215 1.818670 -1.000000 0.000000 0.000000 2.610616 1.114460 255 255 255
-0.663152 0.472922 1.818670 -0.659424 0.751771 0.000000 1.322637 -0.173519 255 255 255
1.381425 0.292885 -1.599977 -0.000000 0.000000 -1.000000 2.301472 -0.173519 255 255 255
0.359137 1.369634 1.818670 0.659424 0.751771 -0.000000 1.659432 -0.173519 255 255 255
-0.663152 0.155215 1.818670 0.000000 -0.000000 1.000000 2.504426 -0.173519 255 255 255
0.359136 1.369634 -1.599977 -0.000001 0.000000 -1.000000 2.098519 0.412798 255 255 255
1.381425 0.292885 1.818669 1.000000 0.000000 -0.000000 2.557521 -0.173519 255 255 255
3 0 1 2
3 3 4 5
3 6 7 8
3 9 10 11
3 12 13 14
3 15 16 17
3 18 19 20
3 21 6 8
3 22 16 23
3 24 25 26
3 27 28 29
3 30 31 32
3 33 34 35
3 36 37 38
3 39 40 41
3 42 43 44
3 45 46 47
3 48 49 50
3 51 52 53
3 54 55 56
3 57 58 59
3 60 61 62
3 63 48 50
3 64 65 66
3 67 68 69
3 2 70 0
3 70 71 0
3 5 72 3
3 72 73 3
3 6 74 7
3 9 75 10
3 12 76 13
3 15 77 16
3 18 78 19
3 21 79 6
3 22 17 16
3 24 80 25
3 27 81 28
3 30 82 31
3 33 83 34
3 36 84 37
3 39 85 40
3 44 86 42
3 86 87 42
3 47 88 45
3 88 89 45
3 48 90 49
3 51 91 52
3 54 92 55
3 57 93 58
3 60 94 61
3 63 95 48
3 64 96 65
3 67 97 68
