ply
format ascii 1.0
comment Created by Blender 2.79 (sub 0) - www.blender.org, source file: 'building-roof-part1.blend'
element vertex 41
property float x
property float y
property float z
property float nx
property float ny
property float nz
property float s
property float t
property uchar red
property uchar green
property uchar blue
element face 40
property list uchar uint vertex_indices
end_header
-0.850648 0.525736 0.000000 -0.850642 0.525712 0.000000 0.170958 0.110957 209 206 222
-0.723607 0.447219 0.525725 -0.723594 0.447188 0.525712 0.205948 0.290487 209 206 222
-0.425323 0.850654 0.309011 -0.425306 0.850642 0.309000 0.076223 0.290487 209 206 222
-0.425323 0.850654 -0.309011 -0.425306 0.850642 -0.309000 0.049904 0.110958 209 206 222
0.000000 1.000000 0.000000 0.000000 1.000000 0.000000 0.000000 0.290488 209 206 222
0.688189 0.525736 -0.499997 0.688162 0.525712 -0.499985 0.529984 0.328130 209 206 222
0.276388 0.447220 -0.850649 0.276376 0.447218 -0.850642 0.591284 0.157995 209 206 222
0.162456 0.850654 -0.499995 0.162450 0.850642 -0.499985 0.670907 0.310518 209 206 222
-0.262869 0.525738 -0.809012 -0.262856 0.525712 -0.808985 0.860111 0.678452 209 206 222
-0.723607 0.447219 -0.525725 -0.723594 0.447188 -0.525712 0.867586 0.873657 209 206 222
-0.425323 0.850654 -0.309011 -0.425306 0.850642 -0.309000 0.739342 0.805981 209 206 222
0.162456 0.850654 -0.499995 0.162450 0.850642 -0.499985 0.739342 0.587779 209 206 222
0.000000 1.000000 0.000000 0.000000 1.000000 0.000000 0.662122 0.719393 209 206 222
0.162456 0.850654 0.499995 0.162450 0.850642 0.499985 0.401464 0.696446 209 206 222
0.525730 0.850652 0.000000 0.525712 0.850642 0.000000 0.401465 0.914649 209 206 222
0.000000 1.000000 0.000000 0.000000 1.000000 0.000000 0.324244 0.783034 209 206 222
0.525730 0.850652 0.000000 0.525712 0.850642 0.000000 0.588540 0.502428 209 206 222
0.000000 1.000000 0.000000 0.000000 1.000000 0.000000 0.690904 0.454529 209 206 222
-0.951058 0.000000 0.309013 -0.932035 0.221717 0.286569 0.324244 0.179530 209 206 222
-0.587786 0.000000 0.809017 -0.560564 0.221717 0.797845 0.324244 0.401445 209 206 222
0.587786 0.000000 -0.809017 0.585559 0.221717 -0.779687 0.449006 0.136219 209 206 222
-0.587786 0.000000 -0.809017 -0.560564 0.221717 -0.797845 1.000000 0.793651 209 206 222
-0.951058 0.000000 -0.309013 -0.932035 0.221717 -0.286569 0.965684 0.992380 209 206 222
0.951058 0.000000 -0.309013 0.922483 0.221717 -0.315958 0.366639 0.328131 209 206 222
0.688189 0.525736 0.499997 0.688162 0.525712 0.499985 0.522234 0.823976 209 206 222
0.894426 0.447216 0.000000 0.894406 0.447188 0.000000 0.529709 1.000000 209 206 222
0.894426 0.447216 0.000000 0.894406 0.447188 0.000000 0.451152 0.484492 209 206 222
-0.850648 0.525736 0.000000 -0.850642 0.525712 0.000000 0.804589 0.999998 209 206 222
0.000000 0.000000 -1.000000 -0.015442 0.221717 -0.974975 1.000000 0.575448 209 206 222
0.276388 0.447220 -0.850649 0.276376 0.447218 -0.850642 0.867586 0.502428 209 206 222
0.951058 0.000000 0.309013 0.922483 0.221717 0.315958 0.324244 0.502428 209 206 222
0.000000 0.000000 1.000000 -0.015442 0.221717 0.974975 0.627806 0.510047 209 206 222
0.587786 0.000000 0.809017 0.585559 0.221717 0.779687 0.662122 0.708775 209 206 222
0.276388 0.447220 0.850649 0.276376 0.447218 0.850642 0.529708 0.628770 209 206 222
-0.951058 0.000000 -0.309013 -0.932035 0.221717 -0.286569 0.297925 0.000000 209 206 222
0.951058 0.000000 0.309013 0.922483 0.221717 0.315958 0.662122 0.926979 209 206 222
-0.262869 0.525738 0.809012 -0.262856 0.525712 0.808985 0.466709 0.502428 209 206 222
0.000000 0.000000 1.000000 -0.015442 0.221717 0.974975 0.297924 0.580977 209 206 222
-0.262869 0.525738 0.809012 -0.262856 0.525712 0.808985 0.170958 0.470018 209 206 222
0.000000 0.000000 -1.000000 -0.015442 0.221717 -0.974975 0.539882 0.000000 209 206 222
0.162456 0.850654 0.499995 0.162450 0.850642 0.499985 0.049904 0.470018 209 206 222
3 0 1 2
3 3 0 2
3 3 2 4
3 5 6 7
3 8 9 10
3 11 8 10
3 11 10 12
3 13 14 15
3 16 5 7
3 16 7 17
3 18 19 1
3 20 6 5
3 21 22 9
3 23 20 5
3 24 25 14
3 23 5 26
3 13 24 14
3 22 27 9
3 28 21 8
3 28 8 29
3 30 23 26
3 18 1 0
3 31 32 33
3 34 18 0
3 21 9 8
3 32 35 24
3 31 33 36
3 32 24 33
3 19 37 38
3 19 38 1
3 20 39 6
3 36 33 13
3 35 25 24
3 29 8 11
3 9 27 10
3 2 38 40
3 2 40 4
3 26 5 16
3 33 24 13
3 1 38 2
