ply
format ascii 1.0
comment Created by Blender 2.79 (sub 0) - www.blender.org, source file: 'building-roof-part1.blend'
element vertex 218
property float x
property float y
property float z
property float nx
property float ny
property float nz
property float s
property float t
property uchar red
property uchar green
property uchar blue
element face 276
property list uchar uint vertex_indices
end_header
0.000000 0.272340 -0.960950 0.000000 -0.295999 -0.955168 0.953859 0.409844 222 219 125
0.330636 0.100481 -0.798225 0.277779 -0.687796 -0.670614 0.997753 0.298899 222 219 125
0.000000 0.100481 -0.863993 0.000000 -0.687796 -0.725883 1.000000 0.393485 222 219 125
0.004093 1.245703 -0.270972 0.012879 0.753227 -0.657613 0.295008 0.636332 222 219 125
0.045113 1.447801 -0.108912 0.328929 0.500992 -0.800470 0.324895 0.584779 222 219 125
0.102201 1.240283 -0.257692 0.238197 0.767052 -0.595691 0.318293 0.635582 222 219 125
0.000000 0.100481 -0.863993 0.000000 -0.687796 -0.725883 0.773952 0.475517 222 219 125
0.258762 -0.007742 -0.624705 0.191046 -0.866451 -0.461226 0.706658 0.458753 222 219 125
0.000000 -0.007742 -0.676176 0.000000 -0.866451 -0.499252 0.762967 0.428091 222 219 125
0.000000 1.084055 -0.548021 0.000244 0.830470 -0.557054 0.578028 0.921414 222 219 125
0.102201 1.240283 -0.257692 0.238197 0.767052 -0.595691 0.663524 0.944613 222 219 125
0.209719 1.084055 -0.506306 0.215857 0.830134 -0.514023 0.586137 0.966343 222 219 125
0.267392 0.971069 -0.645541 0.263283 0.718925 -0.643269 0.539374 0.975103 222 219 125
0.000000 0.971069 -0.698729 0.003723 0.717551 -0.696463 0.529035 0.917819 222 219 125
0.000000 0.821327 -0.821618 -0.000580 0.582507 -0.812799 0.812969 0.386335 222 219 125
0.267392 0.971069 -0.645541 0.263283 0.718925 -0.643269 0.773952 0.289107 222 219 125
0.314420 0.821327 -0.759076 0.311228 0.582232 -0.751061 0.810832 0.296388 222 219 125
0.354842 0.656418 -0.856664 0.350017 0.404187 -0.845027 0.851955 0.302646 222 219 125
0.000000 0.656418 -0.927247 0.000000 0.404187 -0.914670 0.854367 0.404157 222 219 125
0.375403 0.467468 -0.906303 0.381268 0.085299 -0.920499 0.900223 0.305829 222 219 125
0.000000 0.467468 -0.980976 0.000000 0.085299 -0.996338 0.902774 0.413222 222 219 125
0.367740 0.272340 -0.887802 0.365520 -0.295999 -0.882443 0.951359 0.304643 222 219 125
-0.023272 1.448276 -0.116997 -0.192236 0.514206 -0.835810 0.313808 0.585136 222 219 125
-0.000000 1.763136 0.000000 -0.002503 0.999969 0.002350 0.330895 0.491572 222 219 125
0.679494 0.272340 -0.679494 0.675405 -0.295999 -0.675405 0.951359 0.190775 222 219 125
0.097322 1.450539 -0.067400 0.711570 0.504318 -0.489181 0.341963 0.584942 222 219 125
0.610936 0.100481 -0.610935 0.513260 -0.687796 -0.513260 0.997753 0.196519 222 219 125
0.187862 1.243611 -0.199995 0.441725 0.759148 -0.478011 0.343497 0.635582 222 219 125
0.330636 0.100481 -0.798225 0.277779 -0.687796 -0.670614 0.702002 0.514696 222 219 125
0.478129 -0.007742 -0.478129 0.353008 -0.866451 -0.353008 0.645710 0.458753 222 219 125
0.102201 1.240283 -0.257692 0.238197 0.767052 -0.595691 0.368912 0.248885 222 219 125
0.387510 1.084055 -0.387510 0.396161 0.826655 -0.399579 0.349081 0.146363 222 219 125
0.209719 1.084055 -0.506306 0.215857 0.830134 -0.514023 0.388296 0.170905 222 219 125
0.514210 0.943237 -0.517032 0.516526 0.680532 -0.519639 0.344148 0.083548 222 219 125
0.267392 0.971069 -0.645541 0.263283 0.718925 -0.643269 0.396306 0.124952 222 219 125
0.655663 0.656418 -0.655662 0.643788 0.413770 -0.643666 0.851955 0.192771 222 219 125
0.693655 0.467468 -0.693655 0.704520 0.085299 -0.704520 0.900223 0.189588 222 219 125
0.759077 0.821327 -0.314420 0.750694 0.582507 -0.311594 0.812969 0.109082 222 219 125
0.856665 0.656418 -0.354842 0.845027 0.404187 -0.350017 0.854367 0.091260 222 219 125
0.906304 0.467468 -0.375403 0.920499 0.085299 -0.381268 0.902774 0.082195 222 219 125
0.887802 0.272340 -0.367739 0.882443 -0.296030 -0.365520 0.953859 0.085574 222 219 125
0.798226 0.100481 -0.330636 0.670614 -0.687796 -0.277779 1.000000 0.101933 222 219 125
0.250097 1.243611 -0.112879 0.592608 0.760857 -0.264260 0.366782 0.636332 222 219 125
0.798226 0.100481 -0.330636 0.670614 -0.687796 -0.277779 0.552175 0.475517 222 219 125
0.624706 -0.007742 -0.258761 0.461257 -0.866451 -0.191046 0.589401 0.428091 222 219 125
0.187862 1.243611 -0.199995 0.441725 0.759148 -0.478011 0.348829 0.237491 222 219 125
0.506306 1.084055 -0.209719 0.514420 0.830622 -0.213050 0.302742 0.145577 222 219 125
0.645542 0.971069 -0.267392 0.644887 0.717551 -0.263070 0.287224 0.092659 222 219 125
0.097322 1.450539 -0.067400 0.711570 0.504318 -0.489181 0.352745 0.300188 222 219 125
-0.000000 1.763136 0.000000 -0.002503 0.999969 0.002350 0.396306 0.361247 222 219 125
0.117885 1.447801 0.000000 0.865352 0.501114 -0.002838 0.342762 0.305155 222 219 125
0.887802 0.272340 -0.367739 0.882443 -0.296030 -0.365520 0.518895 0.500000 222 219 125
0.863993 0.100481 0.000000 0.725883 -0.687796 0.000000 0.497107 0.403124 222 219 125
0.250097 1.243611 -0.112879 0.592608 0.760857 -0.264260 0.325314 0.237092 222 219 125
0.269449 1.248493 -0.003418 0.653645 0.756737 -0.006928 0.302782 0.250483 222 219 125
0.676177 -0.007742 0.000000 0.499252 -0.866451 0.000000 0.546304 0.371435 222 219 125
0.548022 1.084055 0.000000 0.557604 0.830103 -0.000244 0.256333 0.168667 222 219 125
0.698729 0.971069 0.000000 0.699026 0.715049 0.000000 0.228052 0.122099 222 219 125
0.821619 0.821327 0.000000 0.811426 0.584429 0.000000 0.197016 0.079134 222 219 125
0.759077 0.821327 -0.314420 0.750694 0.582507 -0.311594 0.266594 0.044517 222 219 125
0.927247 0.656418 0.000000 0.914670 0.404187 0.000000 0.165326 0.039068 222 219 125
0.856665 0.656418 -0.354842 0.845027 0.404187 -0.350017 0.243850 0.000000 222 219 125
0.980976 0.467468 0.000000 0.996338 0.085299 0.000000 0.907489 0.000000 222 219 125
0.960950 0.272340 0.000000 0.955168 -0.296030 0.000000 0.958477 0.005057 222 219 125
0.645542 0.971069 0.267393 0.645833 0.715049 0.267495 0.177801 0.177498 222 219 125
0.759077 0.821327 0.314420 0.749657 0.584429 0.310495 0.137926 0.144277 222 219 125
0.856665 0.656418 0.354843 0.845027 0.404187 0.350017 0.098640 0.112586 222 219 125
0.906304 0.467468 0.375404 0.920499 0.085299 0.381268 0.064110 0.087362 222 219 125
0.980976 0.467468 0.000000 0.996338 0.085299 0.000000 0.134661 0.009584 222 219 125
0.960950 0.272340 0.000000 0.955168 -0.296030 0.000000 0.457648 0.419483 222 219 125
0.906304 0.467468 0.375404 0.920499 0.085299 0.381268 0.396306 0.315469 222 219 125
0.887802 0.272340 0.367740 0.882443 -0.296030 0.365520 0.424501 0.314282 222 219 125
0.099513 1.450539 0.064121 0.707144 0.506424 0.493393 0.331687 0.320126 222 219 125
0.798226 0.100481 0.330636 0.670614 -0.687796 0.277779 0.467305 0.308538 222 219 125
0.252395 1.243983 0.105352 0.592822 0.760002 0.266274 0.281937 0.271010 222 219 125
0.624706 -0.007742 0.258762 0.461226 -0.866451 0.191046 0.522980 0.297410 222 219 125
0.506306 1.084055 0.209719 0.508927 0.833338 0.215613 0.216920 0.212118 222 219 125
0.610935 0.100481 0.610936 0.513260 -0.687796 0.513260 0.467305 0.206158 222 219 125
0.175072 1.271630 0.175073 0.518937 0.681173 0.516373 0.277754 0.303708 222 219 125
0.478129 -0.007742 0.478129 0.353008 -0.866451 0.353008 0.522980 0.217286 222 219 125
0.186201 1.206225 0.278670 0.304331 0.841487 0.446364 0.239300 0.309881 222 219 125
0.387510 1.084055 0.387510 0.391705 0.834376 0.387768 0.190503 0.269314 222 219 125
0.494076 0.971069 0.494077 0.492477 0.719413 0.489731 0.144120 0.250424 222 219 125
0.580972 0.821327 0.580973 0.575182 0.582110 0.574664 0.098321 0.230028 222 219 125
0.655663 0.656418 0.655663 0.646748 0.404187 0.646748 0.053944 0.209361 222 219 125
0.693655 0.467468 0.693655 0.704520 0.085299 0.704520 0.016824 0.189745 222 219 125
0.693655 0.467468 0.693655 0.704520 0.085299 0.704520 0.396306 0.199227 222 219 125
0.679494 0.272340 0.679495 0.675405 -0.296030 0.675405 0.424501 0.200414 222 219 125
0.354842 0.656418 0.856665 0.346324 0.414258 0.841670 0.038041 0.314660 222 219 125
0.375403 0.467468 0.906304 0.381268 0.085299 0.920499 0.000000 0.301146 222 219 125
0.375403 0.467468 0.906304 0.381268 0.085299 0.920499 0.430144 0.091834 222 219 125
0.367739 0.272340 0.887802 0.365520 -0.296030 0.882443 0.457648 0.095213 222 219 125
0.022914 1.452778 0.115195 0.170782 0.509018 0.843623 0.327553 0.346409 222 219 125
0.330636 0.100481 0.798226 0.277779 -0.687796 0.670614 0.497107 0.111572 222 219 125
0.050891 1.278532 0.238624 0.144047 0.704611 0.694784 0.275410 0.343973 222 219 125
0.258761 -0.007742 0.624706 0.191046 -0.866451 0.461257 0.546304 0.143261 222 219 125
0.209719 1.084055 0.506307 0.208350 0.829615 0.517960 0.181105 0.331548 222 219 125
0.277409 0.938245 0.680538 0.276070 0.676748 0.682455 0.120188 0.328166 222 219 125
-0.000000 0.100481 0.863993 0.000000 -0.687796 0.725883 0.552175 0.039179 222 219 125
-0.000000 -0.007742 0.676177 0.000000 -0.866451 0.499252 0.589401 0.086605 222 219 125
-0.000000 1.084055 0.548022 0.001831 0.832057 0.554643 0.190155 0.389346 222 219 125
-0.004138 0.938245 0.734895 -0.004425 0.675527 0.737297 0.132233 0.405091 222 219 125
-0.000000 0.656418 0.927247 0.000061 0.416150 0.909268 0.053354 0.412453 222 219 125
0.354842 0.656418 0.856665 0.346324 0.414258 0.841670 0.084872 0.973422 222 219 125
-0.000000 0.467468 0.980976 0.000000 0.085299 0.996338 0.128823 0.904794 222 219 125
0.375403 0.467468 0.906304 0.381268 0.085299 0.920499 0.133538 0.986989 222 219 125
0.367739 0.272340 0.887802 0.365520 -0.296030 0.882443 0.184526 0.981932 222 219 125
-0.000000 0.272340 0.960950 0.000000 -0.295999 0.955168 0.179907 0.901415 222 219 125
-0.000000 0.656418 0.927247 0.000061 0.416150 0.909268 0.080415 0.895729 222 219 125
-0.375403 0.467468 0.906304 -0.381268 0.085299 0.920499 0.126271 0.797401 222 219 125
-0.367740 0.272340 0.887802 -0.365520 -0.296030 0.882443 0.177408 0.796215 222 219 125
0.022914 1.452778 0.115195 0.170782 0.509018 0.843623 0.289140 0.546828 222 219 125
-0.000000 1.763136 0.000000 -0.002503 0.999969 0.002350 0.295008 0.642239 222 219 125
-0.067400 1.450539 0.097322 -0.484909 0.520768 0.702567 0.272313 0.552852 222 219 125
-0.330636 0.100481 0.798226 -0.277779 -0.687796 0.670614 0.223801 0.790470 222 219 125
-0.000000 0.100481 0.863993 0.000000 -0.687796 0.725883 0.226048 0.885056 222 219 125
-0.103976 1.243984 0.252965 -0.225379 0.764153 0.604327 0.272815 0.499807 222 219 125
0.050891 1.278532 0.238624 0.144047 0.704611 0.694784 0.295008 0.491572 222 219 125
-0.330636 0.100481 0.798226 -0.277779 -0.687796 0.670614 0.624124 0.000000 222 219 125
-0.258762 -0.007742 0.624706 -0.191046 -0.866451 0.461226 0.645710 0.055943 222 219 125
-0.000000 1.185392 0.362343 0.015625 0.849483 0.527329 0.242177 0.368670 222 219 125
-0.209719 1.084055 0.506306 -0.212714 0.826106 0.521805 0.216276 0.433907 222 219 125
-0.285054 0.938245 0.677371 -0.286233 0.675527 0.679464 0.166998 0.464400 222 219 125
-0.004138 0.938245 0.734895 -0.004425 0.675527 0.737297 0.039017 0.877907 222 219 125
-0.354842 0.656418 0.856665 -0.347880 0.416150 0.840083 0.078003 0.794218 222 219 125
-0.103976 1.243984 0.252965 -0.225379 0.764153 0.604327 0.281611 0.383286 222 219 125
-0.387510 1.084055 0.387510 -0.397107 0.825220 0.401593 0.255491 0.458449 222 219 125
-0.522575 0.938245 0.516723 -0.523270 0.674337 0.520951 0.226979 0.491572 222 219 125
-0.285054 0.938245 0.677371 -0.286233 0.675527 0.679464 0.009199 0.782495 222 219 125
-0.655663 0.656418 0.655663 -0.642872 0.416150 0.643025 0.078003 0.684343 222 219 125
-0.693655 0.467468 0.693655 -0.704520 0.085299 0.704520 0.126271 0.681160 222 219 125
-0.679494 0.272340 0.679494 -0.675405 -0.295999 0.675405 0.177408 0.682346 222 219 125
-0.610935 0.100481 0.610935 -0.513260 -0.687796 0.513260 0.223801 0.688091 222 219 125
-0.192867 1.243983 0.193920 -0.459517 0.761284 0.457381 0.248599 0.507942 222 219 125
-0.610935 0.100481 0.610935 -0.513260 -0.687796 0.513260 0.702002 0.000000 222 219 125
-0.478129 -0.007742 0.478129 -0.353008 -0.866451 0.353008 0.706658 0.055943 222 219 125
-0.906303 0.467468 0.375403 -0.920499 0.085299 0.381268 0.128823 0.573767 222 219 125
-0.887802 0.272340 0.367740 -0.882443 -0.295999 0.365520 0.179907 0.577146 222 219 125
-0.116476 1.450539 0.021158 -0.841365 0.518632 0.152013 0.256306 0.557858 222 219 125
-0.798225 0.100481 0.330636 -0.670614 -0.687796 0.277779 0.226048 0.593505 222 219 125
-0.252395 1.243983 0.105351 -0.595294 0.762841 0.252358 0.226048 0.514737 222 219 125
-0.798225 0.100481 0.330636 -0.670614 -0.687796 0.277779 0.773952 0.039179 222 219 125
-0.624706 -0.007742 0.258761 -0.461257 -0.866451 0.191046 0.762967 0.086605 222 219 125
-0.192867 1.243983 0.193920 -0.459517 0.761284 0.457381 0.765835 0.828255 222 219 125
-0.506306 1.084055 0.209719 -0.515000 0.830195 0.213294 0.747212 0.726956 222 219 125
-0.387510 1.084055 0.387510 -0.397107 0.825220 0.401593 0.785703 0.736964 222 219 125
-0.645542 0.971069 0.267392 -0.644826 0.718406 0.260842 0.744745 0.669885 222 219 125
-0.522575 0.938245 0.516723 -0.523270 0.674337 0.520951 0.793821 0.682645 222 219 125
-0.522575 0.938245 0.516723 -0.523270 0.674337 0.520951 0.009199 0.696066 222 219 125
-0.645542 0.971069 0.267392 -0.644826 0.718406 0.260842 0.001817 0.621388 222 219 125
-0.759077 0.821327 0.314420 -0.751213 0.577654 0.319285 0.039017 0.600654 222 219 125
-0.856665 0.656418 0.354842 -0.842524 0.407392 0.352306 0.080415 0.582832 222 219 125
-0.698729 0.971069 0.000000 -0.694540 0.719413 0.001923 0.686220 0.684215 222 219 125
-0.759077 0.821327 0.314420 -0.751213 0.577654 0.319285 0.734650 0.613817 222 219 125
-0.821618 0.821327 -0.000000 -0.813074 0.582110 0.000336 0.665831 0.630668 222 219 125
-0.927247 0.656418 -0.000000 -0.914670 0.404187 0.000000 0.643226 0.578653 222 219 125
-0.856665 0.656418 0.354842 -0.842524 0.407392 0.352306 0.720892 0.559637 222 219 125
-0.980976 0.467468 0.000000 -0.996338 0.085299 0.000000 0.616984 0.534815 222 219 125
-0.906303 0.467468 0.375403 -0.920499 0.085299 0.381268 0.699151 0.514696 222 219 125
-0.980976 0.467468 0.000000 -0.996338 0.085299 0.000000 0.133537 0.491572 222 219 125
-0.960950 0.272340 -0.000000 -0.955168 -0.295999 0.000000 0.184525 0.496628 222 219 125
-0.887802 0.272340 0.367740 -0.882443 -0.295999 0.365520 0.885989 1.000000 222 219 125
-0.863993 0.100481 0.000000 -0.725883 -0.687796 0.000000 0.907204 0.903124 222 219 125
-0.798225 0.100481 0.330636 -0.670614 -0.687796 0.277779 0.932651 0.975517 222 219 125
-0.116476 1.450539 0.021158 -0.841365 0.518632 0.152013 0.754684 0.897984 222 219 125
-0.269449 1.248493 -0.003419 -0.655751 0.754845 -0.012482 0.723589 0.830583 222 219 125
-0.252395 1.243983 0.105351 -0.595294 0.762841 0.252358 0.746349 0.823189 222 219 125
-0.624706 -0.007742 0.258761 -0.461257 -0.866451 0.191046 0.969553 0.928091 222 219 125
-0.676176 -0.007742 -0.000000 -0.499252 -0.866451 0.000000 0.949638 0.871435 222 219 125
-0.548022 1.084055 0.000000 -0.559679 0.828669 -0.003388 0.701310 0.738195 222 219 125
-0.960950 0.272340 -0.000000 -0.955168 -0.295999 0.000000 0.857686 0.919483 222 219 125
-0.906303 0.467468 -0.375403 -0.920499 0.085299 -0.381268 0.793821 0.815469 222 219 125
-0.887802 0.272340 -0.367740 -0.882443 -0.295999 -0.365520 0.842369 0.814282 222 219 125
-0.000000 1.763136 0.000000 -0.002503 0.999969 0.002350 0.793821 0.978858 222 219 125
-0.097322 1.450539 -0.067400 -0.704337 0.517441 -0.485916 0.735569 0.911037 222 219 125
-0.798225 0.100481 -0.330636 -0.670614 -0.687796 -0.277779 0.893432 0.808538 222 219 125
-0.250097 1.243611 -0.112880 -0.591510 0.762413 -0.262337 0.699538 0.844258 222 219 125
-0.624705 -0.007742 -0.258761 -0.461257 -0.866451 -0.191046 0.938860 0.797410 222 219 125
-0.506306 1.084055 -0.209719 -0.522996 0.824396 -0.216346 0.654984 0.768971 222 219 125
-0.677370 0.938245 -0.285054 -0.677786 0.676748 -0.287362 0.619478 0.711819 222 219 125
-0.856664 0.656418 -0.354842 -0.840022 0.414258 -0.350230 0.564843 0.630725 222 219 125
-0.906303 0.467468 -0.375403 -0.920499 0.085299 -0.381268 0.534060 0.589904 222 219 125
-0.516723 0.938245 -0.522574 -0.518845 0.675008 -0.524522 0.566645 0.772545 222 219 125
-0.655662 0.656418 -0.655663 -0.643025 0.416150 -0.642872 0.497678 0.707924 222 219 125
-0.693654 0.467468 -0.693654 -0.704520 0.085299 -0.704520 0.463002 0.671576 222 219 125
-0.693654 0.467468 -0.693654 -0.704520 0.085299 -0.704520 0.793821 0.699227 222 219 125
-0.679494 0.272340 -0.679494 -0.675405 -0.295999 -0.675405 0.842369 0.700414 222 219 125
-0.610935 0.100481 -0.610935 -0.513260 -0.687796 -0.513260 0.893432 0.706158 222 219 125
-0.187862 1.243611 -0.199995 -0.440901 0.761223 -0.475478 0.679395 0.867410 222 219 125
-0.478129 -0.007742 -0.478129 -0.353008 -0.866451 -0.353008 0.938860 0.717286 222 219 125
-0.387510 1.084055 -0.387510 -0.400586 0.824732 -0.399152 0.615288 0.814597 222 219 125
-0.375403 0.467468 -0.906303 -0.381268 0.085299 -0.920499 0.809458 0.591834 222 219 125
-0.367739 0.272340 -0.887802 -0.365520 -0.295999 -0.882443 0.857686 0.595213 222 219 125
-0.023272 1.448276 -0.116997 -0.192236 0.514206 -0.835810 0.724752 0.932770 222 219 125
-0.330635 0.100481 -0.798225 -0.277779 -0.687796 -0.670614 0.907204 0.611572 222 219 125
-0.097027 1.243611 -0.256663 -0.231758 0.762719 -0.603717 0.665682 0.894574 222 219 125
-0.258761 -0.007742 -0.624705 -0.191046 -0.866451 -0.461257 0.949638 0.643261 222 219 125
-0.209719 1.084055 -0.506306 -0.217750 0.826167 -0.519608 0.588265 0.868128 222 219 125
-0.280896 0.943237 -0.672927 -0.283975 0.679495 -0.676443 0.532443 0.844732 222 219 125
-0.354842 0.656418 -0.856664 -0.349956 0.415509 -0.839534 0.451955 0.798498 222 219 125
-0.375403 0.467468 -0.906303 -0.381268 0.085299 -0.920499 0.414630 0.767398 222 219 125
0.000000 0.821327 -0.821618 -0.000580 0.582507 -0.812799 0.481001 0.905357 222 219 125
0.000000 0.656418 -0.927247 0.000000 0.404187 -0.914670 0.434635 0.888658 222 219 125
0.000000 0.467468 -0.980976 0.000000 0.085299 -0.996338 0.396306 0.862782 222 219 125
-0.375403 0.467468 -0.906303 -0.381268 0.085299 -0.920499 0.907489 0.495417 222 219 125
-0.367739 0.272340 -0.887802 -0.365520 -0.295999 -0.882443 0.958477 0.490361 222 219 125
0.000000 0.100481 -0.863993 0.000000 -0.687796 -0.725883 0.932651 0.539179 222 219 125
0.004093 1.245703 -0.270972 0.012879 0.753227 -0.657613 0.661497 0.921688 222 219 125
0.000000 -0.007742 -0.676176 0.000000 -0.866451 -0.499252 0.969553 0.586605 222 219 125
0.000000 0.971069 -0.698729 0.003723 0.717551 -0.696463 0.775769 0.365601 222 219 125
0.610936 0.100481 -0.610935 0.513260 -0.687796 -0.513260 0.624124 0.514696 222 219 125
0.514210 0.943237 -0.517032 0.516526 0.680532 -0.519639 0.781728 0.204775 222 219 125
0.927247 0.656418 0.000000 0.914670 0.404187 0.000000 0.858823 0.013567 222 219 125
0.980976 0.467468 0.000000 0.996338 0.085299 0.000000 0.430144 0.422862 222 219 125
-0.000000 0.272340 0.960950 0.000000 -0.295999 0.955168 0.518895 0.014696 222 219 125
-0.192867 1.243983 0.193920 -0.459517 0.761284 0.457381 0.301463 0.395710 222 219 125
-0.980976 0.467468 0.000000 -0.996338 0.085299 0.000000 0.809458 0.922862 222 219 125
0.000000 0.272340 -0.960950 0.000000 -0.295999 -0.955168 0.885989 0.514696 222 219 125
3 0 1 2
3 3 4 5
3 6 7 8
3 9 10 11
3 9 12 13
3 14 15 16
3 14 17 18
3 18 19 20
3 20 21 0
3 22 23 4
3 19 24 21
3 4 23 25
3 21 26 1
3 5 25 27
3 28 29 7
3 30 31 32
3 32 33 34
3 16 35 17
3 19 35 36
3 35 37 38
3 35 39 36
3 24 39 40
3 24 41 26
3 27 25 42
3 29 43 44
3 45 46 31
3 31 47 33
3 48 49 50
3 51 52 43
3 53 50 54
3 44 52 55
3 53 56 46
3 46 57 47
3 47 58 59
3 59 60 61
3 38 62 39
3 40 62 63
3 58 64 65
3 58 66 60
3 60 67 68
3 69 70 71
3 50 49 72
3 69 73 52
3 54 72 74
3 55 73 75
3 56 74 76
3 56 64 57
3 71 77 73
3 74 72 78
3 75 77 79
3 76 80 81
3 76 82 64
3 65 82 83
3 65 84 66
3 66 85 67
3 71 86 87
3 83 88 84
3 84 89 85
3 87 90 91
3 72 49 92
3 87 93 77
3 78 92 94
3 79 93 95
3 80 96 81
3 81 97 82
3 95 98 99
3 80 100 96
3 96 101 97
3 97 102 88
3 103 104 105
3 106 104 107
3 91 98 93
3 108 109 104
3 107 109 110
3 111 112 113
3 107 114 115
3 111 116 117
3 99 118 119
3 120 121 100
3 100 122 101
3 123 124 108
3 125 126 121
3 121 127 122
3 128 129 124
3 124 130 109
3 110 130 131
3 110 132 114
3 113 133 116
3 119 134 135
3 129 136 130
3 131 136 137
3 113 112 138
3 131 139 132
3 113 140 133
3 135 141 142
3 143 144 145
3 145 146 147
3 148 149 150
3 148 151 129
3 144 152 146
3 153 152 154
3 153 155 156
3 156 157 158
3 137 159 160
3 161 162 163
3 164 165 166
3 167 162 168
3 166 169 144
3 170 171 172
3 164 173 174
3 170 175 162
3 164 176 165
3 168 175 177
3 169 176 178
3 169 179 152
3 154 180 155
3 155 181 157
3 178 182 179
3 179 183 180
3 180 184 181
3 172 185 186
3 172 187 175
3 174 188 176
3 177 187 189
3 178 188 190
3 186 191 192
3 174 173 193
3 186 194 187
3 174 195 188
3 189 194 196
3 190 195 197
3 190 198 182
3 182 199 183
3 183 200 184
3 198 13 201
3 199 201 202
3 199 203 200
3 204 0 205
3 192 206 194
3 193 207 195
3 194 208 196
3 197 207 9
3 197 13 198
3 94 120 80
3 74 78 80
3 0 21 1
3 3 22 4
3 6 28 7
3 9 207 10
3 9 11 12
3 14 209 15
3 14 16 17
3 18 17 19
3 20 19 21
3 19 36 24
3 21 24 26
3 5 4 25
3 28 210 29
3 30 45 31
3 32 31 33
3 16 15 211
3 16 211 35
3 19 17 35
3 33 47 59
3 35 211 37
3 35 38 39
3 24 36 39
3 24 40 41
3 29 210 43
3 45 53 46
3 31 46 47
3 51 69 52
3 53 48 50
3 44 43 52
3 53 54 56
3 46 56 57
3 47 57 58
3 59 58 60
3 38 212 62
3 40 39 62
3 58 57 64
3 58 65 66
3 60 66 67
3 69 213 70
3 69 71 73
3 54 50 72
3 55 52 73
3 56 54 74
3 56 76 64
3 71 87 77
3 75 73 77
3 76 74 80
3 76 81 82
3 65 64 82
3 65 83 84
3 66 84 85
3 71 70 86
3 83 97 88
3 84 88 89
3 87 86 90
3 87 91 93
3 78 72 92
3 79 77 93
3 81 96 97
3 83 82 97
3 95 93 98
3 80 120 100
3 96 100 101
3 97 101 102
3 103 108 104
3 106 105 104
3 91 214 98
3 108 124 109
3 107 104 109
3 107 110 114
3 111 113 116
3 99 98 118
3 120 125 121
3 100 121 122
3 123 128 124
3 125 215 126
3 121 126 127
3 128 148 129
3 124 129 130
3 110 109 130
3 110 131 132
3 119 118 134
3 129 151 136
3 131 130 136
3 131 137 139
3 113 138 140
3 135 134 141
3 143 166 144
3 145 144 146
3 148 150 151
3 144 169 152
3 153 146 152
3 153 154 155
3 156 155 157
3 137 136 159
3 161 170 162
3 167 163 162
3 166 165 169
3 170 216 171
3 170 172 175
3 164 174 176
3 168 162 175
3 169 165 176
3 169 178 179
3 154 152 179
3 154 179 180
3 155 180 181
3 178 190 182
3 179 182 183
3 180 183 184
3 172 171 185
3 172 186 187
3 177 175 187
3 178 176 188
3 186 185 191
3 186 192 194
3 174 193 195
3 189 187 194
3 190 188 195
3 190 197 198
3 182 198 199
3 183 199 200
3 199 198 201
3 199 202 203
3 204 20 0
3 192 217 206
3 194 206 208
3 197 195 207
3 197 9 13
3 120 94 125
3 80 78 94
