ply
format ascii 1.0
comment Created by Blender 2.79 (sub 0) - www.blender.org, source file: 'house.blend'
element vertex 58
property float x
property float y
property float z
property float nx
property float ny
property float nz
property float s
property float t
property uchar red
property uchar green
property uchar blue
element face 32
property list uchar uint vertex_indices
end_header
1.818220 0.778349 0.076653 1.000000 0.000000 -0.000000 0.499852 0.228345 0 0 0
1.818220 0.127949 1.849010 1.000000 0.000000 -0.000000 0.027861 0.055139 0 0 0
1.818220 0.000000 1.849010 1.000000 0.000000 -0.000000 0.027861 0.021065 0 0 0
-1.858716 0.778349 0.076654 -1.000000 0.000000 0.000000 1.565080 0.228345 0 0 0
-1.858716 0.127949 -1.695702 -1.000000 0.000000 0.000000 2.037071 0.055139 0 0 0
-1.858716 0.000000 -1.695702 -1.000000 0.000000 0.000000 2.037071 0.021065 0 0 0
2.106836 0.697570 0.078447 1.000000 0.000000 -0.000000 2.354568 0.412798 255 255 255
2.106836 0.107537 -1.863209 1.000000 0.000000 -0.000000 2.451330 0.999115 255 255 255
2.106836 0.812545 0.078447 1.000000 0.000000 -0.000000 2.301472 0.412798 255 255 255
2.106837 -0.007438 2.020102 0.000000 -0.000000 1.000000 2.610616 1.114460 255 255 255
-2.158450 0.107537 2.020103 0.000000 -0.000000 1.000000 2.557521 -0.173519 255 255 255
-2.158450 -0.007438 2.020103 0.000000 -0.000000 1.000000 2.610616 -0.173519 255 255 255
2.106837 0.107537 2.020102 0.000000 0.939956 0.341295 1.322637 -0.173519 255 255 255
-2.158450 0.812545 0.078447 0.000000 0.939956 0.341295 1.659432 1.114460 255 255 255
-2.158450 0.107537 2.020103 0.000000 0.939956 0.341295 1.322637 1.114460 255 255 255
-2.158450 0.107537 -1.863209 -1.000000 -0.000000 0.000000 2.248377 -0.173519 255 255 255
-2.158450 0.697570 0.078447 -1.000000 -0.000000 0.000000 2.151614 0.412798 255 255 255
-2.158450 0.812545 0.078447 -1.000000 -0.000000 0.000000 2.098519 0.412798 255 255 255
2.106836 0.812545 0.078447 -0.000000 0.939956 -0.341295 1.659432 -0.173519 255 255 255
-2.158450 0.107537 -1.863209 -0.000000 0.939956 -0.341295 2.098519 1.114460 255 255 255
-2.158450 0.812545 0.078447 -0.000000 0.939956 -0.341295 1.659432 1.114460 255 255 255
2.106837 0.107537 2.020102 1.000000 0.000000 -0.000000 2.451330 -0.173519 255 255 255
-2.158450 0.107537 2.020103 -1.000000 0.000000 0.000000 2.248377 0.999116 255 255 255
-2.158450 -0.007438 2.020103 -1.000000 0.000000 0.000000 2.301472 0.999116 255 255 255
2.106836 0.107537 -1.863209 -0.000000 -0.000000 -1.000000 2.504426 -0.173519 255 255 255
-2.158450 -0.007438 -1.863209 -0.000000 -0.000000 -1.000000 2.557521 1.114460 255 255 255
-2.158450 0.107537 -1.863209 -0.000000 -0.000000 -1.000000 2.504426 1.114460 255 255 255
-0.873638 0.228605 0.924634 -0.000000 0.000000 1.000000 1.266618 1.268910 0 0 0
-1.227138 1.314363 0.924634 -0.000000 0.000000 1.000000 1.220240 1.416176 0 0 0
-1.227138 0.228605 0.924634 -0.000000 0.000000 1.000000 1.220240 1.268910 0 0 0
-0.873638 0.228605 0.924634 1.000000 0.000000 0.000000 1.118033 1.268910 0 0 0
-0.873638 1.314363 0.499107 1.000000 0.000000 0.000000 1.173861 1.416176 0 0 0
-0.873638 1.314363 0.924634 1.000000 0.000000 0.000000 1.118033 1.416176 0 0 0
-1.227138 1.314363 0.499107 -1.000000 -0.000000 -0.000000 1.118033 1.268910 0 0 0
-1.227138 0.228605 0.924634 -1.000000 -0.000000 -0.000000 1.062205 1.416176 0 0 0
-1.227138 1.314363 0.924634 -1.000000 -0.000000 -0.000000 1.062205 1.268910 0 0 0
-1.227138 1.314363 0.924634 0.000000 1.000000 -0.000000 1.062205 1.416176 0 0 0
-0.873638 1.314363 0.499107 0.000000 1.000000 -0.000000 1.108583 1.473324 0 0 0
-1.227138 1.314363 0.499107 0.000000 1.000000 -0.000000 1.062205 1.473324 0 0 0
-0.873638 1.314363 0.499107 0.000000 0.000000 -1.000000 1.173861 1.416176 0 0 0
-1.227138 0.228605 0.499107 0.000000 0.000000 -1.000000 1.220240 1.268910 0 0 0
-1.227138 1.314363 0.499107 0.000000 0.000000 -1.000000 1.220240 1.416176 0 0 0
1.818220 0.000000 -1.695702 1.000000 0.000000 -0.000000 0.971843 0.021065 0 0 0
1.818220 0.127949 -1.695702 1.000000 0.000000 0.000000 0.971843 0.055139 0 0 0
-1.858716 0.000000 1.849010 -1.000000 0.000000 0.000000 1.093089 0.021065 0 0 0
-1.858716 0.127949 1.849010 -1.000000 0.000000 0.000000 1.093089 0.055139 0 0 0
2.106836 -0.007438 -1.863209 1.000000 0.000000 -0.000000 2.504426 0.999115 255 255 255
2.106837 0.107537 2.020102 0.000000 0.000000 1.000000 2.557521 1.114460 255 255 255
2.106836 0.812545 0.078447 0.000000 0.939956 0.341295 1.659432 -0.173519 255 255 255
-2.158450 -0.007438 -1.863209 -1.000000 0.000000 -0.000000 2.301472 -0.173519 255 255 255
2.106836 0.107537 -1.863209 -0.000000 0.939956 -0.341295 2.098519 -0.173519 255 255 255
2.106837 -0.007438 2.020102 1.000000 0.000000 -0.000000 2.504426 -0.173519 255 255 255
2.106836 -0.007438 -1.863209 -0.000000 0.000000 -1.000000 2.557521 -0.173519 255 255 255
-0.873638 1.314363 0.924634 -0.000000 0.000000 1.000000 1.266618 1.416176 0 0 0
-0.873638 0.228605 0.499107 1.000000 0.000000 -0.000000 1.173861 1.268910 0 0 0
-1.227138 0.228605 0.499107 -1.000000 0.000000 0.000000 1.118033 1.416176 0 0 0
-0.873638 1.314363 0.924634 0.000000 1.000000 -0.000000 1.108583 1.416176 0 0 0
-0.873638 0.228605 0.499107 0.000000 0.000000 -1.000000 1.173861 1.268910 0 0 0
3 0 1 2
3 3 4 5
3 6 7 8
3 9 10 11
3 12 13 14
3 15 16 17
3 18 19 20
3 21 6 8
3 22 16 23
3 24 25 26
3 27 28 29
3 30 31 32
3 33 34 35
3 36 37 38
3 39 40 41
3 2 42 0
3 42 43 0
3 5 44 3
3 44 45 3
3 6 46 7
3 9 47 10
3 12 48 13
3 15 49 16
3 18 50 19
3 21 51 6
3 22 17 16
3 24 52 25
3 27 53 28
3 30 54 31
3 33 55 34
3 36 56 37
3 39 57 40
