ply
format ascii 1.0
comment Created by Blender 2.78 (sub 0) - www.blender.org, source file: 'street-lamp.blend'
element vertex 148
property float x
property float y
property float z
property float nx
property float ny
property float nz
property float s
property float t
property uchar red
property uchar green
property uchar blue
element face 58
property list uchar uint vertex_indices
end_header
-0.000001 5.999998 -0.749998 0.000001 1.000000 0.000000 0.768064 0.450983 190 190 190
-0.487140 5.999998 -0.281248 0.000001 1.000000 0.000000 0.756212 0.475788 190 190 190
-0.000001 5.999998 -0.562498 0.000001 1.000000 0.000000 0.756212 0.454546 190 190 190
-0.649520 5.999999 0.375002 0.000006 1.000000 -0.000000 0.720655 0.493556 190 190 190
-0.487140 5.999998 -0.281248 0.000006 1.000000 -0.000000 0.756212 0.475788 190 190 190
-0.649520 5.999999 -0.374998 0.000006 1.000000 -0.000000 0.768064 0.479306 190 190 190
0.649518 5.999999 0.375002 -0.000001 1.000000 0.000000 0.673247 0.451161 190 190 190
-0.000000 5.999998 0.562502 -0.000001 1.000000 0.000000 0.685099 0.475921 190 190 190
-0.000000 5.999998 0.750002 -0.000001 1.000000 0.000000 0.673247 0.479484 190 190 190
-0.000000 5.999998 0.750002 0.000004 1.000000 -0.000003 0.673247 0.479484 190 190 190
-0.487140 5.999998 0.281252 0.000004 1.000000 -0.000003 0.720655 0.486476 190 190 190
-0.649520 5.999999 0.375002 0.000004 1.000000 -0.000003 0.720655 0.493556 190 190 190
0.649518 5.999999 -0.374998 -0.000006 1.000000 0.000000 0.720655 0.436911 190 190 190
0.487138 5.999998 0.281252 -0.000006 1.000000 0.000000 0.685099 0.454679 190 190 190
0.649518 5.999999 0.375002 -0.000006 1.000000 0.000000 0.673247 0.451161 190 190 190
0.649518 5.999999 -0.374998 -0.000003 1.000000 0.000005 0.720655 0.436911 190 190 190
-0.000001 5.999998 -0.562498 -0.000003 1.000000 0.000005 0.756212 0.454546 190 190 190
0.487138 5.999998 -0.281248 -0.000003 1.000000 0.000005 0.720655 0.443992 190 190 190
-0.866027 -0.000003 0.500002 -0.499674 0.036061 0.865462 0.824951 0.000000 190 190 190
-0.000000 5.999998 0.750002 -0.499674 0.036061 0.865462 0.884859 0.227646 190 190 190
-0.649520 5.999999 0.375002 -0.499674 0.036061 0.865462 0.853576 0.225070 190 190 190
0.866025 -0.000002 0.500002 0.499675 0.036061 0.865462 0.939450 0.002139 190 190 190
-0.000000 5.999998 0.750002 0.499675 0.036061 0.865462 0.884859 0.227646 190 190 190
-0.000001 -0.000002 1.000002 0.499675 0.036061 0.865462 0.866662 0.003434 190 190 190
-0.866027 -0.000003 0.500002 -0.999350 0.036061 0.000000 0.898018 0.454879 190 190 190
-0.649520 5.999999 -0.374998 -0.999350 0.036061 0.000000 0.961951 0.227646 190 190 190
-0.866027 -0.000003 -0.499998 -0.999350 0.036061 0.000000 0.971085 0.454879 190 190 190
-0.866027 -0.000003 -0.499998 -0.499675 0.036061 -0.865462 0.602055 0.436911 190 190 190
-0.000001 5.999998 -0.749998 -0.499675 0.036061 -0.865462 0.662215 0.209310 190 190 190
-0.000002 -0.000002 -0.999998 -0.499675 0.036061 -0.865462 0.644025 0.433389 190 190 190
0.866024 -0.000002 -0.499998 0.499675 0.036061 -0.865462 0.716785 0.434721 190 190 190
-0.000001 5.999998 -0.749998 0.499675 0.036061 -0.865462 0.662215 0.209310 190 190 190
0.649518 5.999999 -0.374998 0.499675 0.036061 -0.865462 0.716785 0.210309 190 190 190
0.866024 -0.000002 -0.499998 0.999350 0.036061 -0.000000 0.824951 0.455061 190 190 190
0.649518 5.999999 0.375002 0.999350 0.036061 -0.000000 0.888885 0.227646 190 190 190
0.866025 -0.000002 0.500002 0.999350 0.036061 -0.000000 0.898018 0.455061 190 190 190
-0.000000 5.999998 0.562502 0.502666 0.006007 0.864460 0.240742 0.003794 190 190 190
0.342720 29.796385 0.197871 0.502666 0.006007 0.864460 0.048218 0.891682 190 190 190
0.000000 30.000002 0.395740 0.502666 0.006007 0.864460 0.017670 0.897457 190 190 190
-0.487140 5.999998 0.281252 -0.497564 0.005961 0.867407 0.218141 0.000000 190 190 190
0.000000 30.000002 0.395740 -0.497564 0.005961 0.867407 0.017670 0.897457 190 190 190
-0.342719 30.185892 0.197871 -0.497564 0.005961 0.867407 0.000000 0.901712 190 190 190
0.487138 5.999998 -0.281248 0.999982 0.006069 -0.000000 0.560955 0.966543 190 190 190
0.342720 29.796385 0.197871 0.999982 0.006069 -0.000000 0.595962 0.065169 190 190 190
0.487138 5.999998 0.281252 0.999982 0.006069 -0.000000 0.602055 0.966543 190 190 190
-0.000001 5.999998 -0.562498 0.499991 0.006069 -0.866010 0.520294 0.996052 190 190 190
0.342720 29.796385 -0.197867 0.499991 0.006069 -0.866010 0.329686 0.108490 190 190 190
0.487138 5.999998 -0.281248 0.499991 0.006069 -0.866010 0.560955 0.993521 190 190 190
-0.487140 5.999998 -0.281248 -0.499991 0.006017 -0.866010 0.497556 0.999896 190 190 190
0.000000 30.000002 -0.395736 -0.499991 0.006017 -0.866010 0.299158 0.102688 190 190 190
-0.000001 5.999998 -0.562498 -0.499991 0.006017 -0.866010 0.520294 0.996052 190 190 190
-0.487140 5.999998 0.281252 -0.999982 0.005971 0.000000 0.783851 0.913803 190 190 190
-0.342719 30.185892 -0.197867 -0.999982 0.005971 0.000000 0.818859 0.000000 190 190 190
-0.487140 5.999998 -0.281248 -0.999982 0.005971 0.000000 0.824951 0.913803 190 190 190
9.685099 33.397293 1.244047 0.627376 0.778716 0.000000 0.783851 0.209310 190 190 190
8.921250 34.012691 -1.033677 0.627376 0.778716 0.000000 0.617426 0.182623 190 190 190
8.921249 34.012691 1.033676 0.627376 0.778716 0.000000 0.768480 0.182623 190 190 190
4.046943 31.345171 1.244047 -0.083133 0.228406 0.970010 0.939450 0.212423 190 190 190
8.921249 34.012691 1.033676 -0.083133 0.228406 0.970010 0.993938 0.012040 190 190 190
4.236515 32.307583 1.033676 -0.083133 0.228406 0.970010 0.993937 0.188542 190 190 190
8.921249 34.012691 1.033676 -0.342021 0.939692 0.000000 0.768480 0.182623 190 190 190
4.236515 32.307583 -1.033677 -0.342021 0.939692 0.000000 0.617426 0.000000 190 190 190
4.236515 32.307583 1.033676 -0.342021 0.939692 0.000000 0.768480 0.000000 190 190 190
4.046944 31.345171 -1.244047 -0.083133 0.228405 -0.970010 0.771225 0.422156 190 190 190
8.921250 34.012691 -1.033677 -0.083133 0.228405 -0.970010 0.716785 0.221453 190 190 190
9.685100 33.397293 -1.244047 -0.083133 0.228405 -0.970010 0.771225 0.209310 190 190 190
4.046944 31.345171 -1.244047 -0.981147 0.193262 0.000000 0.673247 0.436911 190 190 190
4.236515 32.307583 1.033676 -0.981147 0.193262 0.000000 0.602055 0.523196 190 190 190
4.236515 32.307583 -1.033677 -0.981147 0.193262 0.000000 0.602055 0.444880 190 190 190
-0.342719 30.185892 -0.197867 -0.378862 0.925453 0.000000 1.000000 0.404852 190 190 190
4.184834 32.039379 0.040822 -0.378862 0.925453 0.000000 0.982560 0.227646 190 190 190
4.184834 32.039379 -0.121984 -0.378862 0.925453 0.000000 0.994455 0.227646 190 190 190
0.342720 29.796385 0.197871 0.246063 -0.429978 0.868661 0.048218 0.891682 190 190 190
4.142061 31.817812 0.122225 0.246063 -0.429978 0.868661 0.278125 0.991644 190 190 190
0.000000 30.000002 0.395740 0.246063 -0.429978 0.868661 0.017670 0.897457 190 190 190
0.000000 30.000002 0.395740 -0.188788 0.531144 0.825981 0.017670 0.897457 190 190 190
4.184834 32.039379 0.040822 -0.188788 0.531144 0.825981 0.281408 1.000000 190 190 190
-0.342719 30.185892 0.197871 -0.188788 0.531144 0.825981 0.000000 0.901712 190 190 190
0.342720 29.796385 -0.197867 0.432088 -0.901831 0.000000 0.567047 0.065169 190 190 190
4.099288 31.596245 0.040822 0.432088 -0.901831 0.000000 0.584487 0.000000 190 190 190
0.342720 29.796385 0.197871 0.432088 -0.901831 0.000000 0.595962 0.065169 190 190 190
0.342720 29.796385 -0.197867 0.196235 -0.371309 -0.907536 0.329686 0.108490 190 190 190
4.142061 31.817812 -0.203387 0.196235 -0.371309 -0.907536 0.557668 0.008341 190 190 190
4.099288 31.596245 -0.121984 0.196235 -0.371309 -0.907536 0.559569 0.017062 190 190 190
0.000000 30.000002 -0.395736 -0.116002 0.362185 -0.924860 0.299158 0.102688 190 190 190
4.184834 32.039379 -0.121984 -0.116002 0.362185 -0.924860 0.560955 0.000000 190 190 190
4.142061 31.817812 -0.203387 -0.116002 0.362185 -0.924860 0.557668 0.008341 190 190 190
-0.000001 5.999998 -0.749998 0.000004 1.000000 0.000003 0.768064 0.450983 190 190 190
-0.649520 5.999999 -0.374998 0.000004 1.000000 0.000003 0.768064 0.479306 190 190 190
-0.487140 5.999998 -0.281248 0.000004 1.000000 0.000003 0.756212 0.475788 190 190 190
-0.487140 5.999998 0.281252 0.000006 1.000000 -0.000000 0.720655 0.486476 190 190 190
0.649518 5.999999 0.375002 -0.000003 1.000000 -0.000005 0.673247 0.451161 190 190 190
0.487138 5.999998 0.281252 -0.000003 1.000000 -0.000005 0.685099 0.454679 190 190 190
-0.000000 5.999998 0.562502 -0.000003 1.000000 -0.000005 0.685099 0.475921 190 190 190
-0.000000 5.999998 0.750002 0.000001 1.000000 -0.000000 0.673247 0.479484 190 190 190
-0.000000 5.999998 0.562502 0.000001 1.000000 -0.000000 0.685099 0.475921 190 190 190
-0.487140 5.999998 0.281252 0.000001 1.000000 -0.000000 0.720655 0.486476 190 190 190
0.487138 5.999998 -0.281248 -0.000006 1.000000 0.000000 0.720655 0.443992 190 190 190
0.649518 5.999999 -0.374998 -0.000001 1.000000 0.000000 0.720655 0.436911 190 190 190
-0.000001 5.999998 -0.749998 -0.000001 1.000000 0.000000 0.768064 0.450983 190 190 190
-0.000001 5.999998 -0.562498 -0.000001 1.000000 0.000000 0.756212 0.454546 190 190 190
-0.000001 -0.000002 1.000002 -0.499674 0.036061 0.865462 0.866662 0.003434 190 190 190
0.649518 5.999999 0.375002 0.499675 0.036061 0.865462 0.939450 0.226675 190 190 190
-0.649520 5.999999 0.375002 -0.999350 0.036061 0.000000 0.907151 0.227646 190 190 190
-0.649520 5.999999 -0.374998 -0.499675 0.036061 -0.865462 0.630737 0.211952 190 190 190
0.866024 -0.000002 -0.499998 0.499674 0.036061 -0.865462 0.716785 0.434721 190 190 190
-0.000002 -0.000002 -0.999998 0.499674 0.036061 -0.865462 0.644025 0.433389 190 190 190
-0.000001 5.999998 -0.749998 0.499674 0.036061 -0.865462 0.662215 0.209310 190 190 190
0.866024 -0.000002 -0.499998 0.999350 0.036061 -0.000001 0.824951 0.455061 190 190 190
0.649518 5.999999 -0.374998 0.999350 0.036061 -0.000001 0.834085 0.227646 190 190 190
0.649518 5.999999 0.375002 0.999350 0.036061 -0.000001 0.888885 0.227646 190 190 190
-0.000000 5.999998 0.562502 0.499992 0.006069 0.866009 0.240742 0.003794 190 190 190
0.487138 5.999998 0.281252 0.499992 0.006069 0.866009 0.281408 0.006366 190 190 190
0.342720 29.796385 0.197871 0.499992 0.006069 0.866009 0.048218 0.891682 190 190 190
-0.487140 5.999998 0.281252 -0.499991 0.006017 0.866010 0.218141 0.000000 190 190 190
-0.000000 5.999998 0.562502 -0.499991 0.006017 0.866010 0.240742 0.003794 190 190 190
0.000000 30.000002 0.395740 -0.499991 0.006017 0.866010 0.017670 0.897457 190 190 190
0.342720 29.796385 -0.197867 0.999982 0.006069 0.000000 0.567047 0.065169 190 190 190
-0.000001 5.999998 -0.562498 0.502665 0.006007 -0.864460 0.520294 0.996052 190 190 190
0.000000 30.000002 -0.395736 0.502665 0.006007 -0.864460 0.299158 0.102688 190 190 190
0.342720 29.796385 -0.197867 0.502665 0.006007 -0.864460 0.329686 0.108490 190 190 190
-0.487140 5.999998 -0.281248 -0.497564 0.005961 -0.867407 0.497556 0.999896 190 190 190
-0.342719 30.185892 -0.197867 -0.497564 0.005961 -0.867407 0.281408 0.098470 190 190 190
0.000000 30.000002 -0.395736 -0.497564 0.005961 -0.867407 0.299158 0.102688 190 190 190
-0.342719 30.185892 0.197871 -0.999982 0.005971 0.000000 0.789943 0.000000 190 190 190
9.685100 33.397293 -1.244047 0.627376 0.778716 0.000000 0.602055 0.209310 190 190 190
4.046943 31.345171 1.244047 -0.083133 0.228405 0.970010 0.939450 0.212423 190 190 190
9.685099 33.397293 1.244047 -0.083133 0.228405 0.970010 0.939450 0.000000 190 190 190
8.921249 34.012691 1.033676 -0.083133 0.228405 0.970010 0.993938 0.012040 190 190 190
8.921250 34.012691 -1.033677 -0.342021 0.939692 -0.000000 0.617426 0.182623 190 190 190
4.046944 31.345171 -1.244047 -0.083133 0.228406 -0.970010 0.771225 0.422156 190 190 190
4.236515 32.307583 -1.033677 -0.083133 0.228406 -0.970010 0.716785 0.398306 190 190 190
8.921250 34.012691 -1.033677 -0.083133 0.228406 -0.970010 0.716785 0.221453 190 190 190
4.046943 31.345171 1.244047 -0.981147 0.193262 -0.000000 0.673247 0.531165 190 190 190
-0.342719 30.185892 0.197871 -0.378862 0.925453 0.000000 0.971085 0.404852 190 190 190
0.342720 29.796385 0.197871 0.216540 -0.373236 0.902111 0.048218 0.891682 190 190 190
4.099288 31.596245 0.040822 0.216540 -0.373236 0.902111 0.280070 0.982934 190 190 190
4.142061 31.817812 0.122225 0.216540 -0.373236 0.902111 0.278125 0.991644 190 190 190
0.000000 30.000002 0.395740 -0.096538 0.359615 0.928093 0.017670 0.897457 190 190 190
4.142061 31.817812 0.122225 -0.096538 0.359615 0.928093 0.278125 0.991644 190 190 190
4.184834 32.039379 0.040822 -0.096538 0.359615 0.928093 0.281408 1.000000 190 190 190
4.099288 31.596245 -0.121984 0.432088 -0.901831 0.000000 0.572591 0.000000 190 190 190
0.342720 29.796385 -0.197867 0.235133 -0.444301 -0.864470 0.329686 0.108490 190 190 190
0.000000 30.000002 -0.395736 0.235133 -0.444301 -0.864470 0.299158 0.102688 190 190 190
4.142061 31.817812 -0.203387 0.235133 -0.444301 -0.864470 0.557668 0.008341 190 190 190
0.000000 30.000002 -0.395736 -0.198525 0.518979 -0.831414 0.299158 0.102688 190 190 190
-0.342719 30.185892 -0.197867 -0.198525 0.518979 -0.831414 0.281408 0.098470 190 190 190
4.184834 32.039379 -0.121984 -0.198525 0.518979 -0.831414 0.560955 0.000000 190 190 190
3 0 1 2
3 3 4 5
3 6 7 8
3 9 10 11
3 12 13 14
3 15 16 17
3 18 19 20
3 21 22 23
3 24 25 26
3 27 28 29
3 30 31 32
3 33 34 35
3 36 37 38
3 39 40 41
3 42 43 44
3 45 46 47
3 48 49 50
3 51 52 53
3 54 55 56
3 57 58 59
3 60 61 62
3 63 64 65
3 66 67 68
3 69 70 71
3 72 73 74
3 75 76 77
3 78 79 80
3 81 82 83
3 84 85 86
3 87 88 89
3 3 90 4
3 91 92 93
3 94 95 96
3 12 97 13
3 98 99 100
3 18 101 19
3 21 102 22
3 24 103 25
3 27 104 28
3 105 106 107
3 108 109 110
3 111 112 113
3 114 115 116
3 42 117 43
3 118 119 120
3 121 122 123
3 51 124 52
3 54 125 55
3 126 127 128
3 60 129 61
3 130 131 132
3 66 133 67
3 69 134 70
3 135 136 137
3 138 139 140
3 78 141 79
3 142 143 144
3 145 146 147
