ply
format ascii 1.0
comment Created by Blender 2.78 (sub 0) - www.blender.org, source file: 'street-lamp.blend'
element vertex 84
property float x
property float y
property float z
property float nx
property float ny
property float nz
property float s
property float t
property uchar red
property uchar green
property uchar blue
element face 42
property list uchar uint vertex_indices
end_header
0.000000 14.500000 -0.707107 0.701646 -0.124035 -0.701646 0.406286 0.207640 190 190 190
0.353553 12.500000 0.000000 0.701646 -0.124035 -0.701646 0.339036 0.000838 190 190 190
0.000000 12.500000 -0.353553 0.701646 -0.124035 -0.701646 0.406286 0.000000 190 190 190
0.000000 14.500000 0.707107 -0.556974 0.616085 0.556974 0.809788 0.312981 130 130 130
-0.260452 14.903799 0.000000 -0.556974 0.616085 0.556974 0.869863 0.384316 130 130 130
-0.707107 14.500000 0.000000 -0.556974 0.616085 0.556974 0.809788 0.417247 130 130 130
-0.707107 14.500000 0.000000 -0.701646 -0.124035 -0.701646 0.540787 0.209316 131 131 131
0.000000 12.500000 -0.353553 -0.701646 -0.124035 -0.701646 0.406286 0.000000 190 190 190
-0.353553 12.500000 0.000000 -0.701646 -0.124035 -0.701646 0.473537 0.000838 190 190 190
-0.707107 14.500000 0.000000 -0.556974 0.616085 -0.556974 0.809788 0.417247 131 131 131
0.000000 14.903799 -0.260452 -0.556974 0.616085 -0.556974 0.939925 0.384316 130 130 130
0.000000 14.500000 -0.707107 -0.556974 0.616085 -0.556974 1.000000 0.417247 130 130 130
0.707107 14.500000 0.000000 0.701646 -0.124035 0.701646 0.809788 0.520621 130 130 130
0.000000 12.500000 0.353553 0.701646 -0.124035 0.701646 0.742537 0.313819 190 190 190
0.353553 12.500000 0.000000 0.701646 -0.124035 0.701646 0.809788 0.312981 190 190 190
0.000000 14.500000 0.707107 -0.701646 -0.124035 0.701646 0.540787 0.312981 130 130 130
-0.353553 12.500000 0.000000 -0.701646 -0.124035 0.701646 0.675287 0.522297 190 190 190
0.000000 12.500000 0.353553 -0.701646 -0.124035 0.701646 0.608037 0.521459 190 190 190
0.707107 14.500000 0.000000 0.556974 0.616085 0.556974 1.000000 0.312981 130 130 130
0.000000 14.903799 0.260452 0.556974 0.616085 0.556974 0.869863 0.345911 130 130 130
0.000000 14.500000 0.707107 0.556974 0.616085 0.556974 0.809788 0.312981 130 130 130
0.000000 14.500000 -0.707107 0.556974 0.616085 -0.556974 1.000000 0.417247 143 143 143
0.260452 14.903799 0.000000 0.556974 0.616085 -0.556974 0.939925 0.345911 134 134 134
0.707107 14.500000 0.000000 0.556974 0.616085 -0.556974 1.000000 0.312981 130 130 130
-0.260452 14.903799 0.000000 0.000000 1.000000 -0.000000 0.869863 0.384316 130 130 130
0.260452 14.903799 0.000000 0.000000 1.000000 -0.000000 0.939925 0.345911 130 130 130
0.000000 14.903799 -0.260452 0.000000 1.000000 -0.000000 0.939925 0.384316 130 130 130
-0.258482 3.000000 0.258482 0.000000 1.000000 -0.000000 0.412439 0.209316 190 190 190
-0.178607 3.000000 -0.178607 0.000000 1.000000 -0.000000 0.427632 0.254889 190 190 190
-0.258482 3.000000 -0.258482 0.000000 1.000000 -0.000000 0.412439 0.263218 190 190 190
0.369726 0.000000 -0.369726 0.999313 0.037056 0.000000 0.271786 0.522297 190 190 190
0.258482 3.000000 0.258482 0.999313 0.037056 0.000000 0.391279 0.209316 190 190 190
0.369726 0.000000 0.369726 0.999313 0.037056 0.000000 0.412439 0.522297 190 190 190
-0.369726 0.000000 0.369726 -0.999313 0.037056 0.000000 0.540787 0.312981 190 190 190
-0.258482 3.000000 -0.258482 -0.999313 0.037056 0.000000 0.660280 0.000000 190 190 190
-0.369726 0.000000 -0.369726 -0.999313 0.037056 0.000000 0.681440 0.312981 190 190 190
-0.369726 0.000000 -0.369726 0.000000 0.037056 -0.999313 0.822092 0.312981 190 190 190
0.258482 3.000000 -0.258482 0.000000 0.037056 -0.999313 0.941585 0.000000 190 190 190
0.369726 0.000000 -0.369726 0.000000 0.037056 -0.999313 0.962745 0.312981 190 190 190
0.369726 0.000000 0.369726 0.000000 0.037056 0.999313 0.681440 0.312981 190 190 190
-0.258482 3.000000 0.258482 0.000000 0.037056 0.999313 0.800932 0.000000 190 190 190
-0.369726 0.000000 0.369726 0.000000 0.037056 0.999313 0.822092 0.312981 190 190 190
-0.178607 3.000000 -0.178607 0.000000 0.008400 -0.999965 0.203840 1.000000 190 190 190
0.098038 12.591501 -0.098038 0.000000 0.008400 -0.999965 0.256460 0.000000 190 190 190
0.178607 3.000000 -0.178607 0.000000 0.008400 -0.999965 0.271786 1.000000 190 190 190
0.178607 3.000000 -0.178607 0.000000 1.000000 0.000000 0.495578 0.254889 190 190 190
0.258482 3.000000 -0.258482 0.000000 1.000000 0.000000 0.510772 0.263218 190 190 190
0.258482 3.000000 0.258482 -0.000000 1.000000 0.000000 0.510772 0.209316 190 190 190
-0.178607 3.000000 0.178607 -0.000000 1.000000 0.000000 0.427632 0.217644 190 190 190
0.178607 3.000000 0.178607 0.000000 1.000000 0.000000 0.495578 0.217644 190 190 190
0.178607 3.000000 0.178607 0.000000 0.008400 0.999965 0.067947 1.000000 190 190 190
-0.098038 12.591501 0.098038 0.000000 0.008400 0.999965 0.120567 0.000000 190 190 190
-0.178607 3.000000 0.178607 0.000000 0.008400 0.999965 0.135893 1.000000 190 190 190
0.178607 3.000000 -0.178607 0.999965 0.008400 0.000000 0.135893 1.000000 190 190 190
0.098038 12.591501 0.098038 0.999965 0.008400 0.000000 0.188514 0.000000 190 190 190
0.178607 3.000000 0.178607 0.999965 0.008400 0.000000 0.203840 1.000000 190 190 190
-0.178607 3.000000 0.178607 -0.999965 0.008400 0.000000 0.000000 1.000000 190 190 190
-0.098038 12.591501 -0.098038 -0.999965 0.008400 0.000000 0.052621 0.000000 190 190 190
-0.178607 3.000000 -0.178607 -0.999965 0.008400 0.000000 0.067947 1.000000 190 190 190
0.707107 14.500000 0.000000 0.701646 -0.124035 -0.701646 0.271786 0.209316 190 190 190
0.000000 14.500000 0.707107 -0.556973 0.616085 0.556973 0.809788 0.312981 130 130 130
0.000000 14.903799 0.260452 -0.556973 0.616085 0.556973 0.869863 0.345911 130 130 130
-0.260452 14.903799 0.000000 -0.556973 0.616085 0.556973 0.869863 0.384316 130 130 130
0.000000 14.500000 -0.707107 -0.701646 -0.124035 -0.701646 0.406286 0.207640 130 130 130
-0.707107 14.500000 0.000000 -0.556973 0.616085 -0.556973 0.809788 0.417247 131 131 131
-0.260452 14.903799 0.000000 -0.556973 0.616085 -0.556973 0.869863 0.384316 130 130 130
0.000000 14.903799 -0.260452 -0.556973 0.616085 -0.556973 0.939925 0.384316 130 130 130
0.000000 14.500000 0.707107 0.701646 -0.124035 0.701646 0.675287 0.522297 130 130 130
-0.707107 14.500000 0.000000 -0.701646 -0.124035 0.701646 0.675287 0.314657 130 130 130
0.707107 14.500000 0.000000 0.556973 0.616085 0.556973 1.000000 0.312981 130 130 130
0.260452 14.903799 0.000000 0.556973 0.616085 0.556973 0.939925 0.345911 130 130 130
0.000000 14.903799 0.260452 0.556973 0.616085 0.556973 0.869863 0.345911 130 130 130
0.000000 14.500000 -0.707107 0.556973 0.616085 -0.556973 1.000000 0.417247 143 143 143
0.000000 14.903799 -0.260452 0.556973 0.616085 -0.556973 0.939925 0.384316 153 153 153
0.260452 14.903799 0.000000 0.556973 0.616085 -0.556973 0.939925 0.345911 134 134 134
0.000000 14.903799 0.260452 0.000000 1.000000 0.000000 0.869863 0.345911 130 130 130
0.258482 3.000000 -0.258482 0.999313 0.037056 0.000000 0.292946 0.209316 190 190 190
-0.258482 3.000000 0.258482 -0.999313 0.037056 0.000000 0.561947 0.000000 190 190 190
-0.258482 3.000000 -0.258482 0.000000 0.037056 -0.999313 0.843252 0.000000 190 190 190
0.258482 3.000000 0.258482 -0.000000 0.037056 0.999313 0.702600 0.000000 190 190 190
-0.098038 12.591501 -0.098038 0.000000 0.008400 -0.999965 0.219164 0.000000 190 190 190
0.098038 12.591501 0.098038 -0.000000 0.008400 0.999965 0.083271 0.000000 190 190 190
0.098038 12.591501 -0.098038 0.999965 0.008400 0.000000 0.151218 0.000000 190 190 190
-0.098038 12.591501 0.098038 -0.999965 0.008400 0.000000 0.015325 0.000000 190 190 190
3 0 1 2
3 3 4 5
3 6 7 8
3 9 10 11
3 12 13 14
3 15 16 17
3 18 19 20
3 21 22 23
3 24 25 26
3 27 28 29
3 30 31 32
3 33 34 35
3 36 37 38
3 39 40 41
3 42 43 44
3 29 45 46
3 47 48 27
3 46 49 47
3 50 51 52
3 53 54 55
3 56 57 58
3 0 59 1
3 60 61 62
3 6 63 7
3 64 65 66
3 12 67 13
3 15 68 16
3 69 70 71
3 72 73 74
3 24 75 25
3 27 48 28
3 30 76 31
3 33 77 34
3 36 78 37
3 39 79 40
3 42 80 43
3 29 28 45
3 47 49 48
3 46 45 49
3 50 81 51
3 53 82 54
3 56 83 57
