ply
format ascii 1.0
comment Created by Blender 2.78 (sub 0) - www.blender.org, source file: 'street-lamp.blend'
element vertex 100
property float x
property float y
property float z
property float nx
property float ny
property float nz
property float s
property float t
property uchar red
property uchar green
property uchar blue
element face 50
property list uchar uint vertex_indices
end_header
6.000000 27.000000 0.636364 -1.000000 0.000000 0.000000 0.487744 0.484450 148 148 148
6.000000 25.000000 0.136364 -1.000000 0.000000 0.000000 0.000096 0.511245 148 148 148
6.000000 25.000000 0.636364 -1.000000 0.000000 0.000000 0.154139 0.221836 148 148 148
8.000000 25.000000 0.136364 1.000000 -0.000000 0.000000 0.888687 0.000096 148 148 148
8.000000 27.000000 0.636364 1.000000 -0.000000 0.000000 0.674120 0.363433 148 148 148
8.000000 25.000000 0.636364 1.000000 -0.000000 0.000000 0.623045 0.000096 148 148 148
8.000000 27.000000 0.636364 0.000000 -0.000000 1.000000 0.674120 0.363433 0 0 0
6.000000 25.000000 0.636364 0.000000 -0.000000 1.000000 0.154139 0.221836 0 0 0
8.000000 25.000000 0.636364 0.000000 -0.000000 1.000000 0.623045 0.000096 0 0 0
6.000000 27.000000 -0.363636 0.000000 1.000000 -0.000000 0.598025 0.914400 148 148 148
8.000000 27.000000 0.636364 0.000000 1.000000 -0.000000 0.674120 0.363433 148 148 148
8.000000 27.000000 -0.363636 0.000000 1.000000 -0.000000 0.999904 0.560554 148 148 148
8.000000 21.000000 0.136364 1.000000 -0.000000 0.000000 0.888687 0.000096 148 148 148
8.000000 23.000000 0.636364 1.000000 -0.000000 0.000000 0.674120 0.363433 148 148 148
8.000000 21.000000 0.636364 1.000000 -0.000000 0.000000 0.623045 0.000096 148 148 148
6.000000 23.000000 -0.363636 0.000000 1.000000 -0.000000 0.598025 0.914400 148 148 148
8.000000 23.000000 0.636364 0.000000 1.000000 -0.000000 0.674120 0.363433 148 148 148
8.000000 23.000000 -0.363636 0.000000 1.000000 -0.000000 0.999904 0.560554 148 148 148
8.000000 23.000000 0.636364 0.000000 -0.000000 1.000000 0.674120 0.363433 0 0 0
6.000000 21.000000 0.636364 0.000000 -0.000000 1.000000 0.154139 0.221836 0 0 0
8.000000 21.000000 0.636364 0.000000 -0.000000 1.000000 0.623045 0.000096 0 0 0
6.000000 23.000000 0.636364 -1.000000 0.000000 0.000000 0.487744 0.484450 148 148 148
6.000000 21.000000 0.136364 -1.000000 0.000000 0.000000 0.000096 0.511245 148 148 148
6.000000 21.000000 0.636364 -1.000000 0.000000 0.000000 0.154139 0.221836 148 148 148
6.000000 25.000000 -0.363636 0.000000 1.000000 -0.000000 0.598025 0.914400 148 148 148
8.000000 25.000000 0.636364 0.000000 1.000000 -0.000000 0.674120 0.363433 148 148 148
8.000000 25.000000 -0.363636 0.000000 1.000000 -0.000000 0.999904 0.560554 148 148 148
6.000000 25.000000 0.636364 -1.000000 0.000000 0.000000 0.487744 0.484450 148 148 148
6.000000 23.000000 0.136364 -1.000000 0.000000 0.000000 0.000096 0.511245 148 148 148
6.000000 23.000000 0.636364 -1.000000 0.000000 0.000000 0.154139 0.221836 148 148 148
8.000000 25.000000 0.636364 0.000000 -0.000000 1.000000 0.674120 0.363433 0 0 0
6.000000 23.000000 0.636364 0.000000 -0.000000 1.000000 0.154139 0.221836 0 0 0
8.000000 23.000000 0.636364 0.000000 -0.000000 1.000000 0.623045 0.000096 0 0 0
8.000000 23.000000 0.136364 1.000000 -0.000000 0.000000 0.888687 0.000096 148 148 148
8.000000 25.000000 0.636364 1.000000 -0.000000 0.000000 0.674120 0.363433 148 148 148
8.000000 23.000000 0.636364 1.000000 -0.000000 0.000000 0.623045 0.000096 148 148 148
-0.000000 24.000000 -0.250000 0.499995 0.004511 -0.866017 0.232600 4.479271 158 158 158
0.324760 0.000000 -0.187500 0.499995 0.004511 -0.866017 0.087229 -3.480567 158 158 158
-0.000000 0.000000 -0.375000 0.499995 0.004511 -0.866017 0.261686 -3.480566 158 158 158
0.216506 24.000000 -0.125000 0.999990 0.004511 0.000000 0.116295 4.479271 158 158 158
0.324760 0.000000 0.187500 0.999990 0.004511 0.000000 0.000000 -3.478624 158 158 158
0.324760 0.000000 -0.187500 0.999990 0.004511 0.000000 0.087229 -3.480567 158 158 158
0.078058 21.946184 -0.200785 0.000113 0.000053 -1.000000 0.999998 -4.050000 36 36 36
6.000000 24.100000 -0.200000 0.000113 0.000053 -1.000000 0.666669 5.050000 36 36 36
0.297616 21.472557 -0.200785 0.000113 0.000053 -1.000000 0.666667 -4.050000 36 36 36
0.216506 24.000000 0.125000 0.499995 0.004511 0.866017 0.639668 4.480566 158 158 158
-0.000000 0.000000 0.375000 0.499995 0.004511 0.866017 0.610602 -3.480566 158 158 158
0.324760 0.000000 0.187500 0.499995 0.004511 0.866017 0.697830 -3.478623 158 158 158
6.000000 24.600000 0.200000 -0.408947 0.912558 0.000000 0.333334 5.050000 36 36 36
0.078058 21.946184 -0.200785 -0.408947 0.912558 0.000000 0.000000 -4.050000 36 36 36
0.078058 21.946184 0.200787 -0.408947 0.912558 0.000000 0.333332 -4.050000 36 36 36
-0.000000 24.000000 0.250000 -0.499995 0.004511 0.866017 0.581515 4.479271 158 158 158
-0.324760 0.000000 0.187500 -0.499995 0.004511 0.866017 0.436144 -3.480567 158 158 158
-0.000000 0.000000 0.375000 -0.499995 0.004511 0.866017 0.610602 -3.480566 158 158 158
-0.000000 24.000000 -0.250000 0.000000 1.000000 0.000000 0.899277 0.072902 158 158 158
-0.000000 24.000000 0.250000 0.000000 1.000000 0.000000 0.697830 0.093731 158 158 158
0.216506 24.000000 0.125000 0.000000 1.000000 0.000000 0.697830 0.072902 158 158 158
6.000000 24.100000 0.200000 0.000114 0.000053 1.000000 0.333334 -4.050000 36 36 36
0.078058 21.946184 0.200787 0.000114 0.000053 1.000000 0.666667 5.050000 36 36 36
0.297616 21.472557 0.200786 0.000114 0.000053 1.000000 0.333336 5.050000 36 36 36
-0.216506 24.000000 0.125000 -0.999990 0.004511 0.000000 0.465210 4.479270 158 158 158
-0.324760 0.000000 -0.187500 -0.999990 0.004511 0.000000 0.348915 -3.478624 158 158 158
-0.324760 0.000000 0.187500 -0.999990 0.004511 0.000000 0.436144 -3.480567 158 158 158
-0.216506 24.000000 -0.125000 -0.499995 0.004511 -0.866017 0.290753 4.480566 158 158 158
-0.000000 0.000000 -0.375000 -0.499995 0.004511 -0.866017 0.261686 -3.480566 158 158 158
-0.324760 0.000000 -0.187500 -0.499995 0.004511 -0.866017 0.348915 -3.478623 158 158 158
0.324760 0.000000 -0.187500 0.000000 -1.000000 0.000000 0.697830 0.046865 158 158 158
-0.000000 0.000000 0.375000 0.000000 -1.000000 0.000000 0.848915 0.000000 158 158 158
-0.000000 0.000000 -0.375000 0.000000 -1.000000 0.000000 0.848915 0.062487 158 158 158
6.000000 27.000000 -0.363636 -1.000000 0.000000 0.000000 0.598025 0.914400 148 148 148
8.000000 27.000000 -0.363636 1.000000 0.000000 0.000000 0.999904 0.560554 148 148 148
6.000000 27.000000 0.636364 0.000000 0.000000 1.000000 0.487744 0.484450 0 0 0
6.000000 27.000000 0.636364 0.000000 1.000000 0.000000 0.487744 0.484450 148 148 148
8.000000 23.000000 -0.363636 1.000000 0.000000 0.000000 0.999904 0.560554 148 148 148
6.000000 23.000000 0.636364 0.000000 1.000000 0.000000 0.487744 0.484450 148 148 148
6.000000 23.000000 0.636364 0.000000 0.000000 1.000000 0.487744 0.484450 0 0 0
6.000000 23.000000 -0.363636 -1.000000 0.000000 0.000000 0.598025 0.914400 148 148 148
6.000000 25.000000 0.636364 0.000000 1.000000 0.000000 0.487744 0.484450 148 148 148
6.000000 25.000000 -0.363636 -1.000000 0.000000 0.000000 0.598025 0.914400 148 148 148
6.000000 25.000000 0.636364 0.000000 0.000000 1.000000 0.487744 0.484450 0 0 0
8.000000 25.000000 -0.363636 1.000000 0.000000 0.000000 0.999904 0.560554 148 148 148
0.216506 24.000000 -0.125000 0.499995 0.004511 -0.866017 0.116295 4.479271 158 158 158
0.216506 24.000000 0.125000 0.999990 0.004511 0.000000 0.058142 4.480567 158 158 158
0.078058 21.946184 -0.200785 0.000133 0.000000 -1.000000 0.999998 -4.050000 36 36 36
6.000000 24.600000 -0.200000 0.000133 0.000000 -1.000000 1.000000 5.050000 36 36 36
6.000000 24.100000 -0.200000 0.000133 0.000000 -1.000000 0.666669 5.050000 36 36 36
-0.000000 24.000000 0.250000 0.499995 0.004511 0.866017 0.581515 4.479271 158 158 158
6.000000 24.600000 -0.200000 -0.408947 0.912558 0.000000 0.000002 5.050000 36 36 36
-0.216506 24.000000 0.125000 -0.499995 0.004511 0.866017 0.465210 4.479270 158 158 158
0.216506 24.000000 -0.125000 0.000000 1.000000 -0.000000 0.798554 0.062487 158 158 158
-0.216506 24.000000 -0.125000 0.000000 1.000000 0.000000 0.899277 0.093731 158 158 158
-0.216506 24.000000 0.125000 0.000000 1.000000 0.000000 0.798554 0.104145 158 158 158
6.000000 24.100000 0.200000 0.000133 0.000000 1.000000 0.333334 -4.050000 36 36 36
6.000000 24.600000 0.200000 0.000133 0.000000 1.000000 0.666665 -4.050000 36 36 36
0.078058 21.946184 0.200787 0.000133 0.000000 1.000000 0.666667 5.050000 36 36 36
-0.216506 24.000000 -0.125000 -0.999990 0.004511 0.000000 0.407057 4.480566 158 158 158
-0.000000 24.000000 -0.250000 -0.499995 0.004511 -0.866017 0.232600 4.479271 158 158 158
-0.324760 0.000000 -0.187500 -0.000000 -1.000000 -0.000000 1.000000 0.046865 158 158 158
0.324760 0.000000 0.187500 0.000000 -1.000000 0.000000 0.697830 0.015622 158 158 158
-0.324760 0.000000 0.187500 0.000000 -1.000000 0.000000 1.000000 0.015622 158 158 158
3 0 1 2
3 3 4 5
3 6 7 8
3 9 10 11
3 12 13 14
3 15 16 17
3 18 19 20
3 21 22 23
3 24 25 26
3 27 28 29
3 30 31 32
3 33 34 35
3 36 37 38
3 39 40 41
3 42 43 44
3 45 46 47
3 48 49 50
3 51 52 53
3 54 55 56
3 57 58 59
3 60 61 62
3 63 64 65
3 66 67 68
3 0 69 1
3 3 70 4
3 6 71 7
3 9 72 10
3 12 73 13
3 15 74 16
3 18 75 19
3 21 76 22
3 24 77 25
3 27 78 28
3 30 79 31
3 33 80 34
3 36 81 37
3 39 82 40
3 83 84 85
3 45 86 46
3 48 87 49
3 51 88 52
3 56 89 54
3 54 90 91
3 91 55 54
3 92 93 94
3 60 95 61
3 63 96 64
3 97 68 67
3 66 98 67
3 67 99 97
