ply
format ascii 1.0
comment Created by Blender 2.78 (sub 0) - www.blender.org, source file: 'tree1_v2.blend'
element vertex 24
property float x
property float y
property float z
property float nx
property float ny
property float nz
property float s
property float t
property uchar red
property uchar green
property uchar blue
element face 12
property list uchar uint vertex_indices
end_header
2.000000 0.000000 -0.000000 0.000000 -0.000000 1.000000 0.000050 0.999900 18 166 41
-2.000000 4.000000 0.000000 0.000000 -0.000000 1.000000 0.499950 0.000100 18 166 41
-2.000000 0.000000 -0.000000 0.000000 -0.000000 1.000000 0.499950 0.999900 18 166 41
-0.000000 0.000000 -2.000000 1.000000 -0.000000 -0.000000 0.000050 0.999900 18 166 41
0.000000 4.000000 2.000000 1.000000 -0.000000 -0.000000 0.499950 0.000100 18 166 41
-0.000000 0.000000 2.000000 1.000000 -0.000000 -0.000000 0.499950 0.999900 18 166 41
1.000000 2.000000 0.000000 0.000000 0.866025 0.500000 0.000050 0.500000 18 166 41
-1.000000 2.500000 -0.866025 0.000000 0.866025 0.500000 0.499950 0.000100 18 166 41
-1.000000 2.000000 0.000000 0.000000 0.866025 0.500000 0.499950 0.500000 18 166 41
1.000000 2.000000 0.000000 0.000000 0.866025 0.500000 0.499950 0.500000 18 166 41
-1.000000 1.500000 0.866026 0.000000 0.866025 0.500000 0.000050 0.000100 18 166 41
1.000000 1.500000 0.866026 0.000000 0.866025 0.500000 0.499950 0.000100 18 166 41
0.683012 2.816987 0.707107 0.258819 0.965926 0.000000 0.499950 0.500000 18 166 41
-1.366025 3.366026 0.000000 0.258819 0.965926 0.000000 0.000050 0.000100 18 166 41
-0.000000 3.000000 1.414213 0.258819 0.965926 0.000000 0.499950 0.000100 18 166 41
-0.683012 3.183013 -0.707106 0.258819 0.965926 -0.000000 0.499950 0.500000 18 166 41
1.366025 2.633975 0.000000 0.258819 0.965926 -0.000000 0.000050 0.000100 18 166 41
0.000000 3.000000 -1.414213 0.258819 0.965926 -0.000000 0.499950 0.000100 18 166 41
2.000000 4.000000 0.000000 0.000000 -0.000000 1.000000 0.000050 0.000100 18 166 41
0.000000 4.000000 -2.000000 1.000000 -0.000000 -0.000000 0.000050 0.000100 18 166 41
1.000000 2.500000 -0.866025 -0.000000 0.866025 0.500000 0.000050 0.000100 18 166 41
-1.000000 2.000000 0.000000 0.000000 0.866025 0.500000 0.000050 0.500000 18 166 41
-0.683012 3.183013 -0.707106 0.258819 0.965926 0.000000 0.000050 0.500000 18 166 41
0.683013 2.816987 0.707107 0.258819 0.965926 0.000000 0.000050 0.500000 18 166 41
3 0 1 2
3 3 4 5
3 6 7 8
3 9 10 11
3 12 13 14
3 15 16 17
3 0 18 1
3 3 19 4
3 6 20 7
3 9 21 10
3 12 22 13
3 15 23 16
