ply
format ascii 1.0
comment Created by Blender 2.78 (sub 0) - www.blender.org, source file: 'tree1_v2.blend'
element vertex 32
property float x
property float y
property float z
property float nx
property float ny
property float nz
property float s
property float t
property uchar red
property uchar green
property uchar blue
element face 16
property list uchar uint vertex_indices
end_header
-5.570250 0.000000 -0.320249 -0.005025 -0.000000 -0.999987 0.000100 0.999900 18 166 41
5.573750 3.333476 -0.376250 -0.005025 -0.000000 -0.999987 0.999900 0.000100 18 166 41
5.573750 0.000000 -0.376250 -0.005025 -0.000000 -0.999987 0.999900 0.999900 18 166 41
-0.320250 0.000000 -5.570251 -0.999987 -0.000000 -0.005025 0.999900 0.999900 18 166 41
-0.376250 2.840366 5.573750 -0.999987 -0.000000 -0.005025 0.000100 0.000100 18 166 41
-0.320251 4.316123 -5.570250 -0.999987 -0.000000 -0.005025 0.999900 0.000100 18 166 41
5.558000 0.000000 2.757999 0.005025 -0.000000 0.999987 0.000100 0.999900 18 166 41
-5.585999 3.277280 2.814000 0.005025 -0.000000 0.999987 0.999900 0.000100 18 166 41
-5.585999 0.000000 2.814000 0.005025 -0.000000 0.999987 0.999900 0.999900 18 166 41
5.585999 -0.000000 -2.814000 0.005025 -0.000000 0.999987 0.000100 0.999900 18 166 41
-5.558000 3.277280 -2.757999 0.005025 -0.000000 0.999987 0.999900 0.000100 18 166 41
-5.558000 0.000000 -2.758000 0.005025 -0.000000 0.999987 0.999900 0.999900 18 166 41
-2.758000 0.000000 -5.558000 0.999987 -0.000000 0.005025 0.000100 0.999900 18 166 41
-2.814000 3.355412 5.585999 0.999987 -0.000000 0.005025 0.999900 0.000100 18 166 41
-2.814000 0.000000 5.586000 0.999987 -0.000000 0.005025 0.999900 0.999900 18 166 41
2.814000 0.000000 -5.585999 0.999987 -0.000000 0.005025 0.000100 0.999900 18 166 41
2.758000 3.589808 5.558000 0.999987 -0.000000 0.005025 0.999900 0.000100 18 166 41
2.758000 0.000000 5.558000 0.999987 -0.000000 0.005025 0.999900 0.999900 18 166 41
-0.028000 1.999905 5.572000 -0.000000 1.000000 -0.000000 0.999900 0.499950 18 166 41
-4.809345 1.999905 -5.547691 -0.000000 1.000000 -0.000000 0.000100 0.000050 18 166 41
-5.599999 1.999905 5.599999 -0.000000 1.000000 -0.000000 0.999900 0.000050 18 166 41
0.028000 1.999905 -5.572000 -0.000000 1.000000 -0.000000 0.999900 0.499950 18 166 41
4.809346 1.999905 5.547690 -0.000000 1.000000 -0.000000 0.000100 0.000050 18 166 41
5.599998 1.999905 -5.600000 -0.000000 1.000000 -0.000000 0.999900 0.000050 18 166 41
-5.570250 3.367600 -0.320249 -0.005025 -0.000000 -0.999987 0.000100 0.000100 18 166 41
-0.376249 0.000000 5.573750 -0.999987 -0.000000 -0.005025 0.000100 0.999900 18 166 41
5.558000 4.164032 2.758000 0.005025 -0.000000 0.999987 0.000100 0.000100 18 166 41
5.585999 4.064538 -2.813999 0.005025 -0.000000 0.999987 0.000100 0.000100 18 166 41
-2.757999 3.570275 -5.558000 0.999987 -0.000000 0.005025 0.000100 0.000100 18 166 41
2.814000 4.541121 -5.586000 0.999987 -0.000000 0.005025 0.000100 0.000100 18 166 41
0.027999 1.999905 -5.571999 0.000000 1.000000 -0.000000 0.000100 0.499950 18 166 41
-0.027999 1.999905 5.571999 -0.000000 1.000000 -0.000000 0.000100 0.499950 18 166 41
3 0 1 2
3 3 4 5
3 6 7 8
3 9 10 11
3 12 13 14
3 15 16 17
3 18 19 20
3 21 22 23
3 0 24 1
3 3 25 4
3 6 26 7
3 9 27 10
3 12 28 13
3 15 29 16
3 18 30 19
3 21 31 22
